STARTFONT 2.1
FONT -IBM-BIOS-Normal-R-Normal--16-120-96-96-C-160-ISO10646-1
SIZE 12 96 96
FONTBOUNDINGBOX 16 16 0 -2
COMMENT "Generated by fontforge, http://fontforge.sourceforge.net"
STARTPROPERTIES 34
FOUNDRY "IBM"
FAMILY_NAME "IBM BIOS 16x16"
WEIGHT_NAME "Normal"
SLANT "R"
SETWIDTH_NAME "Normal"
ADD_STYLE_NAME ""
PIXEL_SIZE 16
POINT_SIZE 120
RESOLUTION_X 96
RESOLUTION_Y 96
SPACING "C"
AVERAGE_WIDTH 160
CHARSET_REGISTRY "ISO10646"
CHARSET_ENCODING "1"
FONTNAME_REGISTRY ""
CHARSET_COLLECTIONS "ASCII ISOLatin1Encoding ISO8859-2 ISO8859-5 ISO8859-7 ISO8859-9 ISO8859-8 ISO8859-4 ISO10646-1"
FONT_NAME "IBMBIOS16x16"
FACE_NAME "IBM BIOS 16x16"
COPYRIGHT "BDF conversion (c) 2016 farsil, license: CC BY-SA 4.0"
FONT_VERSION "001.000"
FONT_ASCENT 14
FONT_DESCENT 2
UNDERLINE_POSITION -2
UNDERLINE_THICKNESS 1
X_HEIGHT 10
CAP_HEIGHT 14
RAW_ASCENT 875
RAW_DESCENT 125
NORM_SPACE 16
RELATIVE_WEIGHT 50
RELATIVE_SETWIDTH 50
FIGURE_WIDTH 16
AVG_LOWERCASE_WIDTH 160
AVG_UPPERCASE_WIDTH 160
ENDPROPERTIES
CHARS 782
STARTCHAR uni0000.dup1
ENCODING 0
SWIDTH 1000 0
DWIDTH 16 0
BBX 1 1 0 0
BITMAP
00
ENDCHAR
STARTCHAR uni0001
ENCODING 1
SWIDTH 1000 0
DWIDTH 16 0
BBX 16 16 0 -2
BITMAP
3FFC
3FFC
C003
C003
CC33
CC33
C003
C003
CFF3
CFF3
C3C3
C3C3
C003
C003
3FFC
3FFC
ENDCHAR
STARTCHAR uni0002
ENCODING 2
SWIDTH 1000 0
DWIDTH 16 0
BBX 16 16 0 -2
BITMAP
3FFC
3FFC
FFFF
FFFF
F3CF
F3CF
FFFF
FFFF
F00F
F00F
FC3F
FC3F
FFFF
FFFF
3FFC
3FFC
ENDCHAR
STARTCHAR uni0003
ENCODING 3
SWIDTH 1000 0
DWIDTH 16 0
BBX 14 14 0 0
BITMAP
3CF0
3CF0
FFFC
FFFC
FFFC
FFFC
FFFC
FFFC
3FF0
3FF0
0FC0
0FC0
0300
0300
ENDCHAR
STARTCHAR uni0004
ENCODING 4
SWIDTH 1000 0
DWIDTH 16 0
BBX 14 14 0 0
BITMAP
0300
0300
0FC0
0FC0
3FF0
3FF0
FFFC
FFFC
3FF0
3FF0
0FC0
0FC0
0300
0300
ENDCHAR
STARTCHAR uni0005
ENCODING 5
SWIDTH 1000 0
DWIDTH 16 0
BBX 14 16 0 -2
BITMAP
0FC0
0FC0
3FF0
3FF0
0FC0
0FC0
FFFC
FFFC
FFFC
FFFC
3FF0
3FF0
0FC0
0FC0
3FF0
3FF0
ENDCHAR
STARTCHAR uni0006
ENCODING 6
SWIDTH 1000 0
DWIDTH 16 0
BBX 14 16 0 -2
BITMAP
0300
0300
0300
0300
0FC0
0FC0
3FF0
3FF0
FFFC
FFFC
3FF0
3FF0
0FC0
0FC0
3FF0
3FF0
ENDCHAR
STARTCHAR uni0007
ENCODING 7
SWIDTH 1000 0
DWIDTH 16 0
BBX 8 8 4 2
BITMAP
3C
3C
FF
FF
FF
FF
3C
3C
ENDCHAR
STARTCHAR uni0008
ENCODING 8
SWIDTH 1000 0
DWIDTH 16 0
BBX 16 16 0 -2
BITMAP
FFFF
FFFF
FFFF
FFFF
FC3F
FC3F
F00F
F00F
F00F
F00F
FC3F
FC3F
FFFF
FFFF
FFFF
FFFF
ENDCHAR
STARTCHAR uni0009
ENCODING 9
SWIDTH 1000 0
DWIDTH 16 0
BBX 12 12 2 0
BITMAP
3FC0
3FC0
F0F0
F0F0
C030
C030
C030
C030
F0F0
F0F0
3FC0
3FC0
ENDCHAR
STARTCHAR uni000A
ENCODING 10
SWIDTH 1000 0
DWIDTH 16 0
BBX 16 16 0 -2
BITMAP
FFFF
FFFF
F00F
F00F
C3C3
C3C3
CFF3
CFF3
CFF3
CFF3
C3C3
C3C3
F00F
F00F
FFFF
FFFF
ENDCHAR
STARTCHAR uni000B
ENCODING 11
SWIDTH 1000 0
DWIDTH 16 0
BBX 16 16 0 -2
BITMAP
00FF
00FF
003F
003F
00FF
00FF
3FF3
3FF3
F0F0
F0F0
F0F0
F0F0
F0F0
F0F0
3FC0
3FC0
ENDCHAR
STARTCHAR uni000C
ENCODING 12
SWIDTH 1000 0
DWIDTH 16 0
BBX 12 16 2 -2
BITMAP
3FC0
3FC0
F0F0
F0F0
F0F0
F0F0
F0F0
F0F0
3FC0
3FC0
0F00
0F00
FFF0
FFF0
0F00
0F00
ENDCHAR
STARTCHAR uni000D
ENCODING 13
SWIDTH 1000 0
DWIDTH 16 0
BBX 16 16 0 -2
BITMAP
0FFF
0FFF
0F0F
0F0F
0FFF
0FFF
0F00
0F00
0F00
0F00
3F00
3F00
FF00
FF00
FC00
FC00
ENDCHAR
STARTCHAR uni000E
ENCODING 14
SWIDTH 1000 0
DWIDTH 16 0
BBX 16 16 0 -2
BITMAP
3FFF
3FFF
3C0F
3C0F
3FFF
3FFF
3C0F
3C0F
3C0F
3C0F
3C3F
3C3F
FC3C
FC3C
F000
F000
ENDCHAR
STARTCHAR uni000F
ENCODING 15
SWIDTH 1000 0
DWIDTH 16 0
BBX 16 16 0 -2
BITMAP
C3C3
C3C3
33CC
33CC
0FF0
0FF0
FC3F
FC3F
FC3F
FC3F
0FF0
0FF0
33CC
33CC
C3C3
C3C3
ENDCHAR
STARTCHAR uni0010
ENCODING 16
SWIDTH 1000 0
DWIDTH 16 0
BBX 14 14 0 0
BITMAP
C000
C000
FC00
FC00
FFC0
FFC0
FFFC
FFFC
FFC0
FFC0
FC00
FC00
C000
C000
ENDCHAR
STARTCHAR uni0011
ENCODING 17
SWIDTH 1000 0
DWIDTH 16 0
BBX 14 14 0 0
BITMAP
000C
000C
00FC
00FC
0FFC
0FFC
FFFC
FFFC
0FFC
0FFC
00FC
00FC
000C
000C
ENDCHAR
STARTCHAR uni0012
ENCODING 18
SWIDTH 1000 0
DWIDTH 16 0
BBX 12 16 2 -2
BITMAP
0F00
0F00
3FC0
3FC0
FFF0
FFF0
0F00
0F00
0F00
0F00
FFF0
FFF0
3FC0
3FC0
0F00
0F00
ENDCHAR
STARTCHAR uni0013
ENCODING 19
SWIDTH 1000 0
DWIDTH 16 0
BBX 12 14 2 0
BITMAP
F0F0
F0F0
F0F0
F0F0
F0F0
F0F0
F0F0
F0F0
F0F0
F0F0
0000
0000
F0F0
F0F0
ENDCHAR
STARTCHAR uni0014
ENCODING 20
SWIDTH 1000 0
DWIDTH 16 0
BBX 16 14 0 0
BITMAP
3FFF
3FFF
F3CF
F3CF
F3CF
F3CF
3FCF
3FCF
03CF
03CF
03CF
03CF
03CF
03CF
ENDCHAR
STARTCHAR uni0015
ENCODING 21
SWIDTH 1000 0
DWIDTH 16 0
BBX 16 16 0 -2
BITMAP
0FFC
0FFC
3C0F
3C0F
0FC0
0FC0
3CF0
3CF0
3CF0
3CF0
0FC0
0FC0
F0F0
F0F0
3FC0
3FC0
ENDCHAR
STARTCHAR uni0016
ENCODING 22
SWIDTH 1000 0
DWIDTH 16 0
BBX 12 6 2 0
BITMAP
FFF0
FFF0
FFF0
FFF0
FFF0
FFF0
ENDCHAR
STARTCHAR uni0017
ENCODING 23
SWIDTH 1000 0
DWIDTH 16 0
BBX 16 16 0 -2
BITMAP
03C0
03C0
0FF0
0FF0
3FFC
3FFC
03C0
03C0
3FFC
3FFC
0FF0
0FF0
03C0
03C0
FFFF
FFFF
ENDCHAR
STARTCHAR uni0018
ENCODING 24
SWIDTH 1000 0
DWIDTH 16 0
BBX 12 14 2 0
BITMAP
0F00
0F00
3FC0
3FC0
FFF0
FFF0
0F00
0F00
0F00
0F00
0F00
0F00
0F00
0F00
ENDCHAR
STARTCHAR uni0019
ENCODING 25
SWIDTH 1000 0
DWIDTH 16 0
BBX 12 14 2 0
BITMAP
0F00
0F00
0F00
0F00
0F00
0F00
0F00
0F00
FFF0
FFF0
3FC0
3FC0
0F00
0F00
ENDCHAR
STARTCHAR uni001A
ENCODING 26
SWIDTH 1000 0
DWIDTH 16 0
BBX 14 10 0 2
BITMAP
03C0
03C0
00F0
00F0
FFFC
FFFC
00F0
00F0
03C0
03C0
ENDCHAR
STARTCHAR uni001B
ENCODING 27
SWIDTH 1000 0
DWIDTH 16 0
BBX 14 10 0 2
BITMAP
0F00
0F00
3C00
3C00
FFFC
FFFC
3C00
3C00
0F00
0F00
ENDCHAR
STARTCHAR uni001C
ENCODING 28
SWIDTH 1000 0
DWIDTH 16 0
BBX 14 8 0 2
BITMAP
F000
F000
F000
F000
F000
F000
FFFC
FFFC
ENDCHAR
STARTCHAR uni001D
ENCODING 29
SWIDTH 1000 0
DWIDTH 16 0
BBX 16 10 0 2
BITMAP
0C30
0C30
3C3C
3C3C
FFFF
FFFF
3C3C
3C3C
0C30
0C30
ENDCHAR
STARTCHAR uni001E
ENCODING 30
SWIDTH 1000 0
DWIDTH 16 0
BBX 16 10 0 2
BITMAP
03C0
03C0
0FF0
0FF0
3FFC
3FFC
FFFF
FFFF
FFFF
FFFF
ENDCHAR
STARTCHAR uni001F
ENCODING 31
SWIDTH 1000 0
DWIDTH 16 0
BBX 16 10 0 2
BITMAP
FFFF
FFFF
FFFF
FFFF
3FFC
3FFC
0FF0
0FF0
03C0
03C0
ENDCHAR
STARTCHAR space
ENCODING 32
SWIDTH 1000 0
DWIDTH 16 0
BBX 1 1 0 0
BITMAP
00
ENDCHAR
STARTCHAR exclam
ENCODING 33
SWIDTH 1000 0
DWIDTH 16 0
BBX 8 14 2 0
BITMAP
3C
3C
FF
FF
FF
FF
3C
3C
3C
3C
00
00
3C
3C
ENDCHAR
STARTCHAR quotedbl
ENCODING 34
SWIDTH 1000 0
DWIDTH 16 0
BBX 10 6 2 8
BITMAP
F3C0
F3C0
F3C0
F3C0
F3C0
F3C0
ENDCHAR
STARTCHAR numbersign
ENCODING 35
SWIDTH 1000 0
DWIDTH 16 0
BBX 14 14 0 0
BITMAP
3CF0
3CF0
3CF0
3CF0
FFFC
FFFC
3CF0
3CF0
FFFC
FFFC
3CF0
3CF0
3CF0
3CF0
ENDCHAR
STARTCHAR dollar
ENCODING 36
SWIDTH 1000 0
DWIDTH 16 0
BBX 12 14 0 0
BITMAP
0F00
0F00
3FF0
3FF0
F000
F000
3FC0
3FC0
00F0
00F0
FFC0
FFC0
0F00
0F00
ENDCHAR
STARTCHAR percent
ENCODING 37
SWIDTH 1000 0
DWIDTH 16 0
BBX 14 12 0 0
BITMAP
F03C
F03C
F0F0
F0F0
03C0
03C0
0F00
0F00
3C3C
3C3C
F03C
F03C
ENDCHAR
STARTCHAR ampersand
ENCODING 38
SWIDTH 1000 0
DWIDTH 16 0
BBX 14 14 0 0
BITMAP
0FC0
0FC0
3CF0
3CF0
0FC0
0FC0
3F3C
3F3C
F3F0
F3F0
F0F0
F0F0
3F3C
3F3C
ENDCHAR
STARTCHAR quotesingle
ENCODING 39
SWIDTH 1000 0
DWIDTH 16 0
BBX 6 6 0 8
BITMAP
3C
3C
3C
3C
F0
F0
ENDCHAR
STARTCHAR parenleft
ENCODING 40
SWIDTH 1000 0
DWIDTH 16 0
BBX 8 14 2 0
BITMAP
0F
0F
3C
3C
F0
F0
F0
F0
F0
F0
3C
3C
0F
0F
ENDCHAR
STARTCHAR parenright
ENCODING 41
SWIDTH 1000 0
DWIDTH 16 0
BBX 8 14 2 0
BITMAP
F0
F0
3C
3C
0F
0F
0F
0F
0F
0F
3C
3C
F0
F0
ENDCHAR
STARTCHAR asterisk
ENCODING 42
SWIDTH 1000 0
DWIDTH 16 0
BBX 16 10 0 2
BITMAP
3C3C
3C3C
0FF0
0FF0
FFFF
FFFF
0FF0
0FF0
3C3C
3C3C
ENDCHAR
STARTCHAR plus
ENCODING 43
SWIDTH 1000 0
DWIDTH 16 0
BBX 12 10 0 2
BITMAP
0F00
0F00
0F00
0F00
FFF0
FFF0
0F00
0F00
0F00
0F00
ENDCHAR
STARTCHAR comma
ENCODING 44
SWIDTH 1000 0
DWIDTH 16 0
BBX 6 6 2 -2
BITMAP
3C
3C
3C
3C
F0
F0
ENDCHAR
STARTCHAR hyphen
ENCODING 45
SWIDTH 1000 0
DWIDTH 16 0
BBX 12 2 0 6
BITMAP
FFF0
FFF0
ENDCHAR
STARTCHAR period
ENCODING 46
SWIDTH 1000 0
DWIDTH 16 0
BBX 4 4 4 0
BITMAP
F0
F0
F0
F0
ENDCHAR
STARTCHAR slash
ENCODING 47
SWIDTH 1000 0
DWIDTH 16 0
BBX 14 14 0 0
BITMAP
003C
003C
00F0
00F0
03C0
03C0
0F00
0F00
3C00
3C00
F000
F000
C000
C000
ENDCHAR
STARTCHAR zero
ENCODING 48
SWIDTH 1000 0
DWIDTH 16 0
BBX 14 14 0 0
BITMAP
3FF0
3FF0
F03C
F03C
F0FC
F0FC
F3FC
F3FC
FF3C
FF3C
FC3C
FC3C
3FF0
3FF0
ENDCHAR
STARTCHAR one
ENCODING 49
SWIDTH 1000 0
DWIDTH 16 0
BBX 12 14 0 0
BITMAP
0F00
0F00
3F00
3F00
0F00
0F00
0F00
0F00
0F00
0F00
0F00
0F00
FFF0
FFF0
ENDCHAR
STARTCHAR two
ENCODING 50
SWIDTH 1000 0
DWIDTH 16 0
BBX 12 14 0 0
BITMAP
3FC0
3FC0
F0F0
F0F0
00F0
00F0
0FC0
0FC0
3C00
3C00
F030
F030
FFF0
FFF0
ENDCHAR
STARTCHAR three
ENCODING 51
SWIDTH 1000 0
DWIDTH 16 0
BBX 12 14 0 0
BITMAP
3FC0
3FC0
F0F0
F0F0
00F0
00F0
0FC0
0FC0
00F0
00F0
F0F0
F0F0
3FC0
3FC0
ENDCHAR
STARTCHAR four
ENCODING 52
SWIDTH 1000 0
DWIDTH 16 0
BBX 14 14 0 0
BITMAP
03F0
03F0
0FF0
0FF0
3CF0
3CF0
F0F0
F0F0
FFFC
FFFC
00F0
00F0
03FC
03FC
ENDCHAR
STARTCHAR five
ENCODING 53
SWIDTH 1000 0
DWIDTH 16 0
BBX 12 14 0 0
BITMAP
FFF0
FFF0
F000
F000
FFC0
FFC0
00F0
00F0
00F0
00F0
F0F0
F0F0
3FC0
3FC0
ENDCHAR
STARTCHAR six
ENCODING 54
SWIDTH 1000 0
DWIDTH 16 0
BBX 12 14 0 0
BITMAP
0FC0
0FC0
3C00
3C00
F000
F000
FFC0
FFC0
F0F0
F0F0
F0F0
F0F0
3FC0
3FC0
ENDCHAR
STARTCHAR seven
ENCODING 55
SWIDTH 1000 0
DWIDTH 16 0
BBX 12 14 0 0
BITMAP
FFF0
FFF0
F0F0
F0F0
00F0
00F0
03C0
03C0
0F00
0F00
0F00
0F00
0F00
0F00
ENDCHAR
STARTCHAR eight
ENCODING 56
SWIDTH 1000 0
DWIDTH 16 0
BBX 12 14 0 0
BITMAP
3FC0
3FC0
F0F0
F0F0
F0F0
F0F0
3FC0
3FC0
F0F0
F0F0
F0F0
F0F0
3FC0
3FC0
ENDCHAR
STARTCHAR nine
ENCODING 57
SWIDTH 1000 0
DWIDTH 16 0
BBX 12 14 0 0
BITMAP
3FC0
3FC0
F0F0
F0F0
F0F0
F0F0
3FF0
3FF0
00F0
00F0
03C0
03C0
3F00
3F00
ENDCHAR
STARTCHAR colon
ENCODING 58
SWIDTH 1000 0
DWIDTH 16 0
BBX 4 12 4 0
BITMAP
F0
F0
F0
F0
00
00
00
00
F0
F0
F0
F0
ENDCHAR
STARTCHAR semicolon
ENCODING 59
SWIDTH 1000 0
DWIDTH 16 0
BBX 6 12 2 0
BITMAP
3C
3C
3C
3C
00
00
3C
3C
3C
3C
F0
F0
ENDCHAR
STARTCHAR less
ENCODING 60
SWIDTH 1000 0
DWIDTH 16 0
BBX 10 14 0 0
BITMAP
03C0
03C0
0F00
0F00
3C00
3C00
F000
F000
3C00
3C00
0F00
0F00
03C0
03C0
ENDCHAR
STARTCHAR equal
ENCODING 61
SWIDTH 1000 0
DWIDTH 16 0
BBX 12 8 0 2
BITMAP
FFF0
FFF0
0000
0000
0000
0000
FFF0
FFF0
ENDCHAR
STARTCHAR greater
ENCODING 62
SWIDTH 1000 0
DWIDTH 16 0
BBX 10 14 2 0
BITMAP
F000
F000
3C00
3C00
0F00
0F00
03C0
03C0
0F00
0F00
3C00
3C00
F000
F000
ENDCHAR
STARTCHAR question
ENCODING 63
SWIDTH 1000 0
DWIDTH 16 0
BBX 12 14 0 0
BITMAP
3FC0
3FC0
F0F0
F0F0
00F0
00F0
03C0
03C0
0F00
0F00
0000
0000
0F00
0F00
ENDCHAR
STARTCHAR at
ENCODING 64
SWIDTH 1000 0
DWIDTH 16 0
BBX 14 14 0 0
BITMAP
3FF0
3FF0
F03C
F03C
F3FC
F3FC
F3FC
F3FC
F3FC
F3FC
F000
F000
3FC0
3FC0
ENDCHAR
STARTCHAR A
ENCODING 65
SWIDTH 1000 0
DWIDTH 16 0
BBX 12 14 0 0
BITMAP
0F00
0F00
3FC0
3FC0
F0F0
F0F0
F0F0
F0F0
FFF0
FFF0
F0F0
F0F0
F0F0
F0F0
ENDCHAR
STARTCHAR B
ENCODING 66
SWIDTH 1000 0
DWIDTH 16 0
BBX 14 14 0 0
BITMAP
FFF0
FFF0
3C3C
3C3C
3C3C
3C3C
3FF0
3FF0
3C3C
3C3C
3C3C
3C3C
FFF0
FFF0
ENDCHAR
STARTCHAR C
ENCODING 67
SWIDTH 1000 0
DWIDTH 16 0
BBX 14 14 0 0
BITMAP
0FF0
0FF0
3C3C
3C3C
F000
F000
F000
F000
F000
F000
3C3C
3C3C
0FF0
0FF0
ENDCHAR
STARTCHAR D
ENCODING 68
SWIDTH 1000 0
DWIDTH 16 0
BBX 14 14 0 0
BITMAP
FFC0
FFC0
3CF0
3CF0
3C3C
3C3C
3C3C
3C3C
3C3C
3C3C
3CF0
3CF0
FFC0
FFC0
ENDCHAR
STARTCHAR E
ENCODING 69
SWIDTH 1000 0
DWIDTH 16 0
BBX 14 14 0 0
BITMAP
FFFC
FFFC
3C0C
3C0C
3CC0
3CC0
3FC0
3FC0
3CC0
3CC0
3C0C
3C0C
FFFC
FFFC
ENDCHAR
STARTCHAR F
ENCODING 70
SWIDTH 1000 0
DWIDTH 16 0
BBX 14 14 0 0
BITMAP
FFFC
FFFC
3C0C
3C0C
3CC0
3CC0
3FC0
3FC0
3CC0
3CC0
3C00
3C00
FF00
FF00
ENDCHAR
STARTCHAR G
ENCODING 71
SWIDTH 1000 0
DWIDTH 16 0
BBX 14 14 0 0
BITMAP
0FF0
0FF0
3C3C
3C3C
F000
F000
F000
F000
F0FC
F0FC
3C3C
3C3C
0FFC
0FFC
ENDCHAR
STARTCHAR H
ENCODING 72
SWIDTH 1000 0
DWIDTH 16 0
BBX 12 14 0 0
BITMAP
F0F0
F0F0
F0F0
F0F0
F0F0
F0F0
FFF0
FFF0
F0F0
F0F0
F0F0
F0F0
F0F0
F0F0
ENDCHAR
STARTCHAR I
ENCODING 73
SWIDTH 1000 0
DWIDTH 16 0
BBX 8 14 2 0
BITMAP
FF
FF
3C
3C
3C
3C
3C
3C
3C
3C
3C
3C
FF
FF
ENDCHAR
STARTCHAR J
ENCODING 74
SWIDTH 1000 0
DWIDTH 16 0
BBX 14 14 0 0
BITMAP
03FC
03FC
00F0
00F0
00F0
00F0
00F0
00F0
F0F0
F0F0
F0F0
F0F0
3FC0
3FC0
ENDCHAR
STARTCHAR K
ENCODING 75
SWIDTH 1000 0
DWIDTH 16 0
BBX 14 14 0 0
BITMAP
FC3C
FC3C
3C3C
3C3C
3CF0
3CF0
3FC0
3FC0
3CF0
3CF0
3C3C
3C3C
FC3C
FC3C
ENDCHAR
STARTCHAR L
ENCODING 76
SWIDTH 1000 0
DWIDTH 16 0
BBX 14 14 0 0
BITMAP
FF00
FF00
3C00
3C00
3C00
3C00
3C00
3C00
3C0C
3C0C
3C3C
3C3C
FFFC
FFFC
ENDCHAR
STARTCHAR M
ENCODING 77
SWIDTH 1000 0
DWIDTH 16 0
BBX 14 14 0 0
BITMAP
F03C
F03C
FCFC
FCFC
FFFC
FFFC
FFFC
FFFC
F33C
F33C
F03C
F03C
F03C
F03C
ENDCHAR
STARTCHAR N
ENCODING 78
SWIDTH 1000 0
DWIDTH 16 0
BBX 14 14 0 0
BITMAP
F03C
F03C
FC3C
FC3C
FF3C
FF3C
F3FC
F3FC
F0FC
F0FC
F03C
F03C
F03C
F03C
ENDCHAR
STARTCHAR O
ENCODING 79
SWIDTH 1000 0
DWIDTH 16 0
BBX 14 14 0 0
BITMAP
0FC0
0FC0
3CF0
3CF0
F03C
F03C
F03C
F03C
F03C
F03C
3CF0
3CF0
0FC0
0FC0
ENDCHAR
STARTCHAR P
ENCODING 80
SWIDTH 1000 0
DWIDTH 16 0
BBX 14 14 0 0
BITMAP
FFF0
FFF0
3C3C
3C3C
3C3C
3C3C
3FF0
3FF0
3C00
3C00
3C00
3C00
FF00
FF00
ENDCHAR
STARTCHAR Q
ENCODING 81
SWIDTH 1000 0
DWIDTH 16 0
BBX 12 14 0 0
BITMAP
3FC0
3FC0
F0F0
F0F0
F0F0
F0F0
F0F0
F0F0
F3F0
F3F0
3FC0
3FC0
03F0
03F0
ENDCHAR
STARTCHAR R
ENCODING 82
SWIDTH 1000 0
DWIDTH 16 0
BBX 14 14 0 0
BITMAP
FFF0
FFF0
3C3C
3C3C
3C3C
3C3C
3FF0
3FF0
3CF0
3CF0
3C3C
3C3C
FC3C
FC3C
ENDCHAR
STARTCHAR S
ENCODING 83
SWIDTH 1000 0
DWIDTH 16 0
BBX 12 14 0 0
BITMAP
3FC0
3FC0
F0F0
F0F0
FC00
FC00
3F00
3F00
03F0
03F0
F0F0
F0F0
3FC0
3FC0
ENDCHAR
STARTCHAR T
ENCODING 84
SWIDTH 1000 0
DWIDTH 16 0
BBX 12 14 0 0
BITMAP
FFF0
FFF0
CF30
CF30
0F00
0F00
0F00
0F00
0F00
0F00
0F00
0F00
3FC0
3FC0
ENDCHAR
STARTCHAR U
ENCODING 85
SWIDTH 1000 0
DWIDTH 16 0
BBX 12 14 0 0
BITMAP
F0F0
F0F0
F0F0
F0F0
F0F0
F0F0
F0F0
F0F0
F0F0
F0F0
F0F0
F0F0
FFF0
FFF0
ENDCHAR
STARTCHAR V
ENCODING 86
SWIDTH 1000 0
DWIDTH 16 0
BBX 12 14 0 0
BITMAP
F0F0
F0F0
F0F0
F0F0
F0F0
F0F0
F0F0
F0F0
F0F0
F0F0
3FC0
3FC0
0F00
0F00
ENDCHAR
STARTCHAR W
ENCODING 87
SWIDTH 1000 0
DWIDTH 16 0
BBX 14 14 0 0
BITMAP
F03C
F03C
F03C
F03C
F03C
F03C
F33C
F33C
FFFC
FFFC
FCFC
FCFC
F03C
F03C
ENDCHAR
STARTCHAR X
ENCODING 88
SWIDTH 1000 0
DWIDTH 16 0
BBX 14 14 0 0
BITMAP
F03C
F03C
F03C
F03C
3CF0
3CF0
0FC0
0FC0
0FC0
0FC0
3CF0
3CF0
F03C
F03C
ENDCHAR
STARTCHAR Y
ENCODING 89
SWIDTH 1000 0
DWIDTH 16 0
BBX 12 14 0 0
BITMAP
F0F0
F0F0
F0F0
F0F0
F0F0
F0F0
3FC0
3FC0
0F00
0F00
0F00
0F00
3FC0
3FC0
ENDCHAR
STARTCHAR Z
ENCODING 90
SWIDTH 1000 0
DWIDTH 16 0
BBX 14 14 0 0
BITMAP
FFFC
FFFC
F03C
F03C
C0F0
C0F0
03C0
03C0
0F0C
0F0C
3C3C
3C3C
FFFC
FFFC
ENDCHAR
STARTCHAR bracketleft
ENCODING 91
SWIDTH 1000 0
DWIDTH 16 0
BBX 8 14 2 0
BITMAP
FF
FF
F0
F0
F0
F0
F0
F0
F0
F0
F0
F0
FF
FF
ENDCHAR
STARTCHAR backslash
ENCODING 92
SWIDTH 1000 0
DWIDTH 16 0
BBX 14 14 0 0
BITMAP
F000
F000
3C00
3C00
0F00
0F00
03C0
03C0
00F0
00F0
003C
003C
000C
000C
ENDCHAR
STARTCHAR bracketright
ENCODING 93
SWIDTH 1000 0
DWIDTH 16 0
BBX 8 14 2 0
BITMAP
FF
FF
0F
0F
0F
0F
0F
0F
0F
0F
0F
0F
FF
FF
ENDCHAR
STARTCHAR asciicircum
ENCODING 94
SWIDTH 1000 0
DWIDTH 16 0
BBX 14 8 0 6
BITMAP
0300
0300
0FC0
0FC0
3CF0
3CF0
F03C
F03C
ENDCHAR
STARTCHAR underscore
ENCODING 95
SWIDTH 1000 0
DWIDTH 16 0
BBX 16 2 0 -2
BITMAP
FFFF
FFFF
ENDCHAR
STARTCHAR grave
ENCODING 96
SWIDTH 1000 0
DWIDTH 16 0
BBX 6 6 4 8
BITMAP
F0
F0
F0
F0
3C
3C
ENDCHAR
STARTCHAR a
ENCODING 97
SWIDTH 1000 0
DWIDTH 16 0
BBX 14 10 0 0
BITMAP
3FC0
3FC0
00F0
00F0
3FF0
3FF0
F0F0
F0F0
3F3C
3F3C
ENDCHAR
STARTCHAR b
ENCODING 98
SWIDTH 1000 0
DWIDTH 16 0
BBX 14 14 0 0
BITMAP
FC00
FC00
3C00
3C00
3C00
3C00
3FF0
3FF0
3C3C
3C3C
3C3C
3C3C
F3F0
F3F0
ENDCHAR
STARTCHAR c
ENCODING 99
SWIDTH 1000 0
DWIDTH 16 0
BBX 12 10 0 0
BITMAP
3FC0
3FC0
F0F0
F0F0
F000
F000
F0F0
F0F0
3FC0
3FC0
ENDCHAR
STARTCHAR d
ENCODING 100
SWIDTH 1000 0
DWIDTH 16 0
BBX 14 14 0 0
BITMAP
03F0
03F0
00F0
00F0
00F0
00F0
3FF0
3FF0
F0F0
F0F0
F0F0
F0F0
3F3C
3F3C
ENDCHAR
STARTCHAR e
ENCODING 101
SWIDTH 1000 0
DWIDTH 16 0
BBX 12 10 0 0
BITMAP
3FC0
3FC0
F0F0
F0F0
FFF0
FFF0
F000
F000
3FC0
3FC0
ENDCHAR
STARTCHAR f
ENCODING 102
SWIDTH 1000 0
DWIDTH 16 0
BBX 12 14 0 0
BITMAP
0FC0
0FC0
3CF0
3CF0
3C00
3C00
FF00
FF00
3C00
3C00
3C00
3C00
FF00
FF00
ENDCHAR
STARTCHAR g
ENCODING 103
SWIDTH 1000 0
DWIDTH 16 0
BBX 14 12 0 -2
BITMAP
3F3C
3F3C
F0F0
F0F0
F0F0
F0F0
3FF0
3FF0
00F0
00F0
FFC0
FFC0
ENDCHAR
STARTCHAR h
ENCODING 104
SWIDTH 1000 0
DWIDTH 16 0
BBX 14 14 0 0
BITMAP
FC00
FC00
3C00
3C00
3CF0
3CF0
3F3C
3F3C
3C3C
3C3C
3C3C
3C3C
FC3C
FC3C
ENDCHAR
STARTCHAR i
ENCODING 105
SWIDTH 1000 0
DWIDTH 16 0
BBX 8 14 2 0
BITMAP
3C
3C
00
00
FC
FC
3C
3C
3C
3C
3C
3C
FF
FF
ENDCHAR
STARTCHAR j
ENCODING 106
SWIDTH 1000 0
DWIDTH 16 0
BBX 12 16 0 -2
BITMAP
00F0
00F0
0000
0000
00F0
00F0
00F0
00F0
00F0
00F0
F0F0
F0F0
F0F0
F0F0
3FC0
3FC0
ENDCHAR
STARTCHAR k
ENCODING 107
SWIDTH 1000 0
DWIDTH 16 0
BBX 14 14 0 0
BITMAP
FC00
FC00
3C00
3C00
3C3C
3C3C
3CF0
3CF0
3FC0
3FC0
3CF0
3CF0
FC3C
FC3C
ENDCHAR
STARTCHAR l
ENCODING 108
SWIDTH 1000 0
DWIDTH 16 0
BBX 8 14 2 0
BITMAP
FC
FC
3C
3C
3C
3C
3C
3C
3C
3C
3C
3C
FF
FF
ENDCHAR
STARTCHAR m
ENCODING 109
SWIDTH 1000 0
DWIDTH 16 0
BBX 14 10 0 0
BITMAP
F0F0
F0F0
FFFC
FFFC
FFFC
FFFC
F33C
F33C
F03C
F03C
ENDCHAR
STARTCHAR n
ENCODING 110
SWIDTH 1000 0
DWIDTH 16 0
BBX 12 10 0 0
BITMAP
FFC0
FFC0
F0F0
F0F0
F0F0
F0F0
F0F0
F0F0
F0F0
F0F0
ENDCHAR
STARTCHAR o
ENCODING 111
SWIDTH 1000 0
DWIDTH 16 0
BBX 12 10 0 0
BITMAP
3FC0
3FC0
F0F0
F0F0
F0F0
F0F0
F0F0
F0F0
3FC0
3FC0
ENDCHAR
STARTCHAR p
ENCODING 112
SWIDTH 1000 0
DWIDTH 16 0
BBX 14 12 0 -2
BITMAP
F3F0
F3F0
3C3C
3C3C
3C3C
3C3C
3FF0
3FF0
3C00
3C00
FF00
FF00
ENDCHAR
STARTCHAR q
ENCODING 113
SWIDTH 1000 0
DWIDTH 16 0
BBX 14 12 0 -2
BITMAP
3F3C
3F3C
F0F0
F0F0
F0F0
F0F0
3FF0
3FF0
00F0
00F0
03FC
03FC
ENDCHAR
STARTCHAR r
ENCODING 114
SWIDTH 1000 0
DWIDTH 16 0
BBX 14 10 0 0
BITMAP
F3F0
F3F0
3F3C
3F3C
3C3C
3C3C
3C00
3C00
FF00
FF00
ENDCHAR
STARTCHAR s
ENCODING 115
SWIDTH 1000 0
DWIDTH 16 0
BBX 12 10 0 0
BITMAP
3FF0
3FF0
F000
F000
3FC0
3FC0
00F0
00F0
FFC0
FFC0
ENDCHAR
STARTCHAR t
ENCODING 116
SWIDTH 1000 0
DWIDTH 16 0
BBX 10 14 2 0
BITMAP
0C00
0C00
3C00
3C00
FFC0
FFC0
3C00
3C00
3C00
3C00
3CC0
3CC0
0F00
0F00
ENDCHAR
STARTCHAR u
ENCODING 117
SWIDTH 1000 0
DWIDTH 16 0
BBX 14 10 0 0
BITMAP
F0F0
F0F0
F0F0
F0F0
F0F0
F0F0
F0F0
F0F0
3F3C
3F3C
ENDCHAR
STARTCHAR v
ENCODING 118
SWIDTH 1000 0
DWIDTH 16 0
BBX 12 10 0 0
BITMAP
F0F0
F0F0
F0F0
F0F0
F0F0
F0F0
3FC0
3FC0
0F00
0F00
ENDCHAR
STARTCHAR w
ENCODING 119
SWIDTH 1000 0
DWIDTH 16 0
BBX 14 10 0 0
BITMAP
F03C
F03C
F33C
F33C
FFFC
FFFC
FFFC
FFFC
3CF0
3CF0
ENDCHAR
STARTCHAR x
ENCODING 120
SWIDTH 1000 0
DWIDTH 16 0
BBX 14 10 0 0
BITMAP
F03C
F03C
3CF0
3CF0
0FC0
0FC0
3CF0
3CF0
F03C
F03C
ENDCHAR
STARTCHAR y
ENCODING 121
SWIDTH 1000 0
DWIDTH 16 0
BBX 12 12 0 -2
BITMAP
F0F0
F0F0
F0F0
F0F0
F0F0
F0F0
3FF0
3FF0
00F0
00F0
FFC0
FFC0
ENDCHAR
STARTCHAR z
ENCODING 122
SWIDTH 1000 0
DWIDTH 16 0
BBX 12 10 0 0
BITMAP
FFF0
FFF0
C3C0
C3C0
0F00
0F00
3C30
3C30
FFF0
FFF0
ENDCHAR
STARTCHAR braceleft
ENCODING 123
SWIDTH 1000 0
DWIDTH 16 0
BBX 12 14 0 0
BITMAP
03F0
03F0
0F00
0F00
0F00
0F00
FC00
FC00
0F00
0F00
0F00
0F00
03F0
03F0
ENDCHAR
STARTCHAR bar
ENCODING 124
SWIDTH 1000 0
DWIDTH 16 0
BBX 4 14 6 0
BITMAP
F0
F0
F0
F0
F0
F0
00
00
F0
F0
F0
F0
F0
F0
ENDCHAR
STARTCHAR braceright
ENCODING 125
SWIDTH 1000 0
DWIDTH 16 0
BBX 12 14 0 0
BITMAP
FC00
FC00
0F00
0F00
0F00
0F00
03F0
03F0
0F00
0F00
0F00
0F00
FC00
FC00
ENDCHAR
STARTCHAR asciitilde
ENCODING 126
SWIDTH 1000 0
DWIDTH 16 0
BBX 14 4 0 10
BITMAP
3F3C
3F3C
F3F0
F3F0
ENDCHAR
STARTCHAR uni007F
ENCODING 127
SWIDTH 1000 0
DWIDTH 16 0
BBX 14 12 0 0
BITMAP
0300
0300
0FC0
0FC0
3CF0
3CF0
F03C
F03C
F03C
F03C
FFFC
FFFC
ENDCHAR
STARTCHAR uni00A0
ENCODING 160
SWIDTH 1000 0
DWIDTH 16 0
BBX 1 1 0 0
BITMAP
00
ENDCHAR
STARTCHAR exclamdown
ENCODING 161
SWIDTH 1000 0
DWIDTH 16 0
BBX 4 14 6 0
BITMAP
F0
F0
F0
F0
00
00
F0
F0
F0
F0
F0
F0
F0
F0
ENDCHAR
STARTCHAR cent
ENCODING 162
SWIDTH 1000 0
DWIDTH 16 0
BBX 14 16 0 -2
BITMAP
03C0
03C0
03C0
03C0
3FFC
3FFC
F000
F000
F000
F000
3FFC
3FFC
03C0
03C0
03C0
03C0
ENDCHAR
STARTCHAR sterling
ENCODING 163
SWIDTH 1000 0
DWIDTH 16 0
BBX 14 14 0 0
BITMAP
0FC0
0FC0
3CF0
3CF0
3C30
3C30
FF00
FF00
3C00
3C00
FC3C
FC3C
FFF0
FFF0
ENDCHAR
STARTCHAR currency
ENCODING 164
SWIDTH 1000 0
DWIDTH 16 0
BBX 14 12 0 0
BITMAP
F03C
F03C
3FF0
3FF0
F03C
F03C
F03C
F03C
3FF0
3FF0
F03C
F03C
ENDCHAR
STARTCHAR yen
ENCODING 165
SWIDTH 1000 0
DWIDTH 16 0
BBX 12 16 0 -2
BITMAP
F0F0
F0F0
F0F0
F0F0
3FC0
3FC0
FFF0
FFF0
0F00
0F00
FFF0
FFF0
0F00
0F00
0F00
0F00
ENDCHAR
STARTCHAR brokenbar
ENCODING 166
SWIDTH 1000 0
DWIDTH 16 0
BBX 4 14 6 0
BITMAP
F0
F0
F0
F0
F0
F0
00
00
F0
F0
F0
F0
F0
F0
ENDCHAR
STARTCHAR section
ENCODING 167
SWIDTH 1000 0
DWIDTH 16 0
BBX 16 16 0 -2
BITMAP
0FFC
0FFC
3C0F
3C0F
0FC0
0FC0
3CF0
3CF0
3CF0
3CF0
0FC0
0FC0
F0F0
F0F0
3FC0
3FC0
ENDCHAR
STARTCHAR dieresis
ENCODING 168
SWIDTH 1000 0
DWIDTH 16 0
BBX 14 2 0 12
BITMAP
F03C
F03C
ENDCHAR
STARTCHAR copyright
ENCODING 169
SWIDTH 1000 0
DWIDTH 16 0
BBX 16 16 0 -2
BITMAP
3FFC
3FFC
C003
C003
C3F3
C3F3
CC03
CC03
CC03
CC03
C3F3
C3F3
C003
C003
3FFC
3FFC
ENDCHAR
STARTCHAR ordfeminine
ENCODING 170
SWIDTH 1000 0
DWIDTH 16 0
BBX 12 12 2 2
BITMAP
3FC0
3FC0
F3C0
F3C0
F3C0
F3C0
3FF0
3FF0
0000
0000
FFF0
FFF0
ENDCHAR
STARTCHAR guillemotleft
ENCODING 171
SWIDTH 1000 0
DWIDTH 16 0
BBX 16 10 0 2
BITMAP
0F0F
0F0F
3C3C
3C3C
F0F0
F0F0
3C3C
3C3C
0F0F
0F0F
ENDCHAR
STARTCHAR logicalnot
ENCODING 172
SWIDTH 1000 0
DWIDTH 16 0
BBX 12 6 0 2
BITMAP
FFF0
FFF0
00F0
00F0
00F0
00F0
ENDCHAR
STARTCHAR uni00AD
ENCODING 173
SWIDTH 1000 0
DWIDTH 16 0
BBX 12 2 2 6
BITMAP
FFF0
FFF0
ENDCHAR
STARTCHAR registered
ENCODING 174
SWIDTH 1000 0
DWIDTH 16 0
BBX 16 16 0 -2
BITMAP
3FFC
3FFC
C003
C003
CFC3
CFC3
CC33
CC33
CFC3
CFC3
CC33
CC33
C003
C003
3FFC
3FFC
ENDCHAR
STARTCHAR macron
ENCODING 175
SWIDTH 1000 0
DWIDTH 16 0
BBX 16 2 0 12
BITMAP
FFFF
FFFF
ENDCHAR
STARTCHAR degree
ENCODING 176
SWIDTH 1000 0
DWIDTH 16 0
BBX 10 8 2 6
BITMAP
3F00
3F00
F3C0
F3C0
F3C0
F3C0
3F00
3F00
ENDCHAR
STARTCHAR plusminus
ENCODING 177
SWIDTH 1000 0
DWIDTH 16 0
BBX 12 14 0 0
BITMAP
0F00
0F00
0F00
0F00
FFF0
FFF0
0F00
0F00
0F00
0F00
0000
0000
FFF0
FFF0
ENDCHAR
STARTCHAR uni00B2
ENCODING 178
SWIDTH 1000 0
DWIDTH 16 0
BBX 8 10 2 4
BITMAP
FC
FC
0F
0F
3C
3C
F0
F0
FF
FF
ENDCHAR
STARTCHAR uni00B3
ENCODING 179
SWIDTH 1000 0
DWIDTH 16 0
BBX 8 10 2 4
BITMAP
FC
FC
0F
0F
3C
3C
0F
0F
FC
FC
ENDCHAR
STARTCHAR acute
ENCODING 180
SWIDTH 1000 0
DWIDTH 16 0
BBX 8 6 4 8
BITMAP
0F
0F
3C
3C
F0
F0
ENDCHAR
STARTCHAR mu
ENCODING 181
SWIDTH 1000 0
DWIDTH 16 0
BBX 14 14 0 -2
BITMAP
3C3C
3C3C
3C3C
3C3C
3C3C
3C3C
3C3C
3C3C
3FF0
3FF0
3C00
3C00
F000
F000
ENDCHAR
STARTCHAR paragraph
ENCODING 182
SWIDTH 1000 0
DWIDTH 16 0
BBX 16 14 0 0
BITMAP
3FFF
3FFF
F3CF
F3CF
F3CF
F3CF
3FCF
3FCF
03CF
03CF
03CF
03CF
03CF
03CF
ENDCHAR
STARTCHAR periodcentered
ENCODING 183
SWIDTH 1000 0
DWIDTH 16 0
BBX 4 2 6 4
BITMAP
F0
F0
ENDCHAR
STARTCHAR cedilla
ENCODING 184
SWIDTH 1000 0
DWIDTH 16 0
BBX 8 6 4 -2
BITMAP
3C
3C
0F
0F
FC
FC
ENDCHAR
STARTCHAR uni00B9
ENCODING 185
SWIDTH 1000 0
DWIDTH 16 0
BBX 8 10 2 4
BITMAP
3C
3C
FC
FC
3C
3C
3C
3C
FF
FF
ENDCHAR
STARTCHAR ordmasculine
ENCODING 186
SWIDTH 1000 0
DWIDTH 16 0
BBX 10 12 2 2
BITMAP
3F00
3F00
F3C0
F3C0
F3C0
F3C0
3F00
3F00
0000
0000
FFC0
FFC0
ENDCHAR
STARTCHAR guillemotright
ENCODING 187
SWIDTH 1000 0
DWIDTH 16 0
BBX 16 10 0 2
BITMAP
F0F0
F0F0
3C3C
3C3C
0F0F
0F0F
3C3C
3C3C
F0F0
F0F0
ENDCHAR
STARTCHAR onequarter
ENCODING 188
SWIDTH 1000 0
DWIDTH 16 0
BBX 16 16 0 -2
BITMAP
F00F
F00F
F03C
F03C
F0F0
F0F0
F3CF
F3CF
0F3F
0F3F
3CFF
3CFF
F0FF
F0FF
000F
000F
ENDCHAR
STARTCHAR onehalf
ENCODING 189
SWIDTH 1000 0
DWIDTH 16 0
BBX 16 16 0 -2
BITMAP
F00F
F00F
F03C
F03C
F0F0
F0F0
F3FC
F3FC
0F0F
0F0F
3C3C
3C3C
F0F0
F0F0
00FF
00FF
ENDCHAR
STARTCHAR threequarters
ENCODING 190
SWIDTH 1000 0
DWIDTH 16 0
BBX 16 16 0 -2
BITMAP
FC00
FC00
0F0F
0F0F
3C3C
3C3C
0FF0
0FF0
FFCF
FFCF
0F3F
0F3F
3CFF
3CFF
F00F
F00F
ENDCHAR
STARTCHAR questiondown
ENCODING 191
SWIDTH 1000 0
DWIDTH 16 0
BBX 12 14 0 0
BITMAP
0F00
0F00
0000
0000
0F00
0F00
3C00
3C00
F000
F000
F0F0
F0F0
3FC0
3FC0
ENDCHAR
STARTCHAR Agrave
ENCODING 192
SWIDTH 1000 0
DWIDTH 16 0
BBX 14 14 0 0
BITMAP
F000
F000
0FC0
0FC0
3CF0
3CF0
F03C
F03C
FFFC
FFFC
F03C
F03C
F03C
F03C
ENDCHAR
STARTCHAR Aacute
ENCODING 193
SWIDTH 1000 0
DWIDTH 16 0
BBX 14 14 0 0
BITMAP
003C
003C
0FC0
0FC0
3CF0
3CF0
F03C
F03C
FFFC
FFFC
F03C
F03C
F03C
F03C
ENDCHAR
STARTCHAR Acircumflex
ENCODING 194
SWIDTH 1000 0
DWIDTH 16 0
BBX 14 14 0 0
BITMAP
3FF0
3FF0
F03C
F03C
0FC0
0FC0
3CF0
3CF0
F03C
F03C
FFFC
FFFC
F03C
F03C
ENDCHAR
STARTCHAR Atilde
ENCODING 195
SWIDTH 1000 0
DWIDTH 16 0
BBX 14 14 0 0
BITMAP
3F3C
3F3C
F3F0
F3F0
0FC0
0FC0
3CF0
3CF0
F03C
F03C
FFFC
FFFC
F03C
F03C
ENDCHAR
STARTCHAR Adieresis
ENCODING 196
SWIDTH 1000 0
DWIDTH 16 0
BBX 14 14 0 0
BITMAP
F03C
F03C
0FC0
0FC0
3CF0
3CF0
F03C
F03C
FFFC
FFFC
F03C
F03C
F03C
F03C
ENDCHAR
STARTCHAR Aring
ENCODING 197
SWIDTH 1000 0
DWIDTH 16 0
BBX 12 14 0 0
BITMAP
0F00
0F00
0F00
0F00
0000
0000
3FC0
3FC0
F0F0
F0F0
FFF0
FFF0
F0F0
F0F0
ENDCHAR
STARTCHAR AE
ENCODING 198
SWIDTH 1000 0
DWIDTH 16 0
BBX 14 14 0 0
BITMAP
0FFC
0FFC
3CF0
3CF0
F0F0
F0F0
FFFC
FFFC
F0F0
F0F0
F0F0
F0F0
F0FC
F0FC
ENDCHAR
STARTCHAR Ccedilla
ENCODING 199
SWIDTH 1000 0
DWIDTH 16 0
BBX 12 16 0 -2
BITMAP
3FC0
3FC0
F0F0
F0F0
F000
F000
F0F0
F0F0
3FC0
3FC0
03C0
03C0
00F0
00F0
3FC0
3FC0
ENDCHAR
STARTCHAR Egrave
ENCODING 200
SWIDTH 1000 0
DWIDTH 16 0
BBX 12 14 0 0
BITMAP
FC00
FC00
0000
0000
FFF0
FFF0
3C00
3C00
3FC0
3FC0
3C00
3C00
FFF0
FFF0
ENDCHAR
STARTCHAR Eacute
ENCODING 201
SWIDTH 1000 0
DWIDTH 16 0
BBX 12 14 0 0
BITMAP
03F0
03F0
0000
0000
FFF0
FFF0
3C00
3C00
3FC0
3FC0
3C00
3C00
FFF0
FFF0
ENDCHAR
STARTCHAR Ecircumflex
ENCODING 202
SWIDTH 1000 0
DWIDTH 16 0
BBX 12 14 0 0
BITMAP
3FC0
3FC0
F0F0
F0F0
FFF0
FFF0
3C00
3C00
3FC0
3FC0
3C00
3C00
FFF0
FFF0
ENDCHAR
STARTCHAR Edieresis
ENCODING 203
SWIDTH 1000 0
DWIDTH 16 0
BBX 12 14 0 0
BITMAP
F0F0
F0F0
0000
0000
FFF0
FFF0
3C00
3C00
3FC0
3FC0
3C00
3C00
FFF0
FFF0
ENDCHAR
STARTCHAR Igrave
ENCODING 204
SWIDTH 1000 0
DWIDTH 16 0
BBX 10 14 0 0
BITMAP
FC00
FC00
0000
0000
3FC0
3FC0
0F00
0F00
0F00
0F00
0F00
0F00
3FC0
3FC0
ENDCHAR
STARTCHAR Iacute
ENCODING 205
SWIDTH 1000 0
DWIDTH 16 0
BBX 10 14 2 0
BITMAP
0FC0
0FC0
0000
0000
FF00
FF00
3C00
3C00
3C00
3C00
3C00
3C00
FF00
FF00
ENDCHAR
STARTCHAR Icircumflex
ENCODING 206
SWIDTH 1000 0
DWIDTH 16 0
BBX 16 14 0 0
BITMAP
3FFC
3FFC
F00F
F00F
0FF0
0FF0
03C0
03C0
03C0
03C0
03C0
03C0
0FF0
0FF0
ENDCHAR
STARTCHAR Idieresis
ENCODING 207
SWIDTH 1000 0
DWIDTH 16 0
BBX 12 14 0 0
BITMAP
F0F0
F0F0
0000
0000
3FC0
3FC0
0F00
0F00
0F00
0F00
0F00
0F00
3FC0
3FC0
ENDCHAR
STARTCHAR Eth
ENCODING 208
SWIDTH 1000 0
DWIDTH 16 0
BBX 14 14 0 0
BITMAP
FFC0
FFC0
3CF0
3CF0
3C3C
3C3C
FF3C
FF3C
3C3C
3C3C
3CF0
3CF0
FFC0
FFC0
ENDCHAR
STARTCHAR Ntilde
ENCODING 209
SWIDTH 1000 0
DWIDTH 16 0
BBX 12 14 0 0
BITMAP
FFF0
FFF0
0000
0000
F0F0
F0F0
FCF0
FCF0
FFF0
FFF0
F3F0
F3F0
F0F0
F0F0
ENDCHAR
STARTCHAR Ograve
ENCODING 210
SWIDTH 1000 0
DWIDTH 16 0
BBX 14 14 0 0
BITMAP
F000
F000
0FC0
0FC0
3CF0
3CF0
F03C
F03C
F03C
F03C
3CF0
3CF0
0FC0
0FC0
ENDCHAR
STARTCHAR Oacute
ENCODING 211
SWIDTH 1000 0
DWIDTH 16 0
BBX 14 14 0 0
BITMAP
003C
003C
0FC0
0FC0
3CF0
3CF0
F03C
F03C
F03C
F03C
3CF0
3CF0
0FC0
0FC0
ENDCHAR
STARTCHAR Ocircumflex
ENCODING 212
SWIDTH 1000 0
DWIDTH 16 0
BBX 14 14 0 0
BITMAP
3FF0
3FF0
F03C
F03C
0FC0
0FC0
3CF0
3CF0
F03C
F03C
3CF0
3CF0
0FC0
0FC0
ENDCHAR
STARTCHAR Otilde
ENCODING 213
SWIDTH 1000 0
DWIDTH 16 0
BBX 14 14 0 0
BITMAP
3F3C
3F3C
F3F0
F3F0
0FC0
0FC0
3CF0
3CF0
F03C
F03C
3CF0
3CF0
0FC0
0FC0
ENDCHAR
STARTCHAR Odieresis
ENCODING 214
SWIDTH 1000 0
DWIDTH 16 0
BBX 16 14 0 0
BITMAP
F00F
F00F
03C0
03C0
0FF0
0FF0
3C3C
3C3C
3C3C
3C3C
0FF0
0FF0
03C0
03C0
ENDCHAR
STARTCHAR multiply
ENCODING 215
SWIDTH 1000 0
DWIDTH 16 0
BBX 14 10 0 2
BITMAP
F03C
F03C
3CF0
3CF0
0FC0
0FC0
3CF0
3CF0
F03C
F03C
ENDCHAR
STARTCHAR Oslash
ENCODING 216
SWIDTH 1000 0
DWIDTH 16 0
BBX 14 14 0 0
BITMAP
0FCC
0FCC
3CF0
3CF0
F0FC
F0FC
F33C
F33C
FC3C
FC3C
3CF0
3CF0
CFC0
CFC0
ENDCHAR
STARTCHAR Ugrave
ENCODING 217
SWIDTH 1000 0
DWIDTH 16 0
BBX 12 14 0 0
BITMAP
FC00
FC00
0000
0000
F0F0
F0F0
F0F0
F0F0
F0F0
F0F0
F0F0
F0F0
3FC0
3FC0
ENDCHAR
STARTCHAR Uacute
ENCODING 218
SWIDTH 1000 0
DWIDTH 16 0
BBX 12 14 0 0
BITMAP
03F0
03F0
0000
0000
F0F0
F0F0
F0F0
F0F0
F0F0
F0F0
F0F0
F0F0
3FC0
3FC0
ENDCHAR
STARTCHAR Ucircumflex
ENCODING 219
SWIDTH 1000 0
DWIDTH 16 0
BBX 14 14 0 0
BITMAP
3FF0
3FF0
F03C
F03C
0000
0000
F03C
F03C
F03C
F03C
F03C
F03C
3FF0
3FF0
ENDCHAR
STARTCHAR Udieresis
ENCODING 220
SWIDTH 1000 0
DWIDTH 16 0
BBX 12 14 0 0
BITMAP
F0F0
F0F0
0000
0000
F0F0
F0F0
F0F0
F0F0
F0F0
F0F0
F0F0
F0F0
3FC0
3FC0
ENDCHAR
STARTCHAR Yacute
ENCODING 221
SWIDTH 1000 0
DWIDTH 16 0
BBX 12 14 0 0
BITMAP
03F0
03F0
0000
0000
F0F0
F0F0
F0F0
F0F0
3FC0
3FC0
0F00
0F00
3FC0
3FC0
ENDCHAR
STARTCHAR Thorn
ENCODING 222
SWIDTH 1000 0
DWIDTH 16 0
BBX 14 14 0 0
BITMAP
FF00
FF00
3C00
3C00
3FF0
3FF0
3C3C
3C3C
3FF0
3FF0
3C00
3C00
FF00
FF00
ENDCHAR
STARTCHAR germandbls
ENCODING 223
SWIDTH 1000 0
DWIDTH 16 0
BBX 14 14 0 0
BITMAP
3FC0
3FC0
F0F0
F0F0
F0F0
F0F0
F3C0
F3C0
F0F0
F0F0
F03C
F03C
F0F0
F0F0
ENDCHAR
STARTCHAR agrave
ENCODING 224
SWIDTH 1000 0
DWIDTH 16 0
BBX 14 14 0 0
BITMAP
FC00
FC00
0000
0000
3FC0
3FC0
00F0
00F0
3FF0
3FF0
F0F0
F0F0
3FFC
3FFC
ENDCHAR
STARTCHAR aacute
ENCODING 225
SWIDTH 1000 0
DWIDTH 16 0
BBX 14 14 0 0
BITMAP
03F0
03F0
0000
0000
3FC0
3FC0
00F0
00F0
3FF0
3FF0
F0F0
F0F0
3FFC
3FFC
ENDCHAR
STARTCHAR acircumflex
ENCODING 226
SWIDTH 1000 0
DWIDTH 16 0
BBX 16 14 0 0
BITMAP
3FFC
3FFC
F00F
F00F
0FF0
0FF0
003C
003C
0FFC
0FFC
3C3C
3C3C
0FFF
0FFF
ENDCHAR
STARTCHAR atilde
ENCODING 227
SWIDTH 1000 0
DWIDTH 16 0
BBX 14 14 0 0
BITMAP
3F3C
3F3C
F3F0
F3F0
3FC0
3FC0
00F0
00F0
3FF0
3FF0
F0F0
F0F0
3FFC
3FFC
ENDCHAR
STARTCHAR adieresis
ENCODING 228
SWIDTH 1000 0
DWIDTH 16 0
BBX 14 14 0 0
BITMAP
F0F0
F0F0
0000
0000
3FC0
3FC0
00F0
00F0
3FF0
3FF0
F0F0
F0F0
3FFC
3FFC
ENDCHAR
STARTCHAR aring
ENCODING 229
SWIDTH 1000 0
DWIDTH 16 0
BBX 14 14 0 0
BITMAP
0F00
0F00
0F00
0F00
3FC0
3FC0
00F0
00F0
3FF0
3FF0
F0F0
F0F0
3FFC
3FFC
ENDCHAR
STARTCHAR ae
ENCODING 230
SWIDTH 1000 0
DWIDTH 16 0
BBX 16 10 0 0
BITMAP
3FFF
3FFF
00F0
00F0
3FFF
3FFF
F0F0
F0F0
3FFF
3FFF
ENDCHAR
STARTCHAR ccedilla
ENCODING 231
SWIDTH 1000 0
DWIDTH 16 0
BBX 12 12 0 -2
BITMAP
3FC0
3FC0
F000
F000
F000
F000
3FC0
3FC0
00F0
00F0
0FC0
0FC0
ENDCHAR
STARTCHAR egrave
ENCODING 232
SWIDTH 1000 0
DWIDTH 16 0
BBX 12 14 0 0
BITMAP
FC00
FC00
0000
0000
3FC0
3FC0
F0F0
F0F0
FFF0
FFF0
F000
F000
3FC0
3FC0
ENDCHAR
STARTCHAR eacute
ENCODING 233
SWIDTH 1000 0
DWIDTH 16 0
BBX 12 14 0 0
BITMAP
03F0
03F0
0000
0000
3FC0
3FC0
F0F0
F0F0
FFF0
FFF0
F000
F000
3FC0
3FC0
ENDCHAR
STARTCHAR ecircumflex
ENCODING 234
SWIDTH 1000 0
DWIDTH 16 0
BBX 16 14 0 0
BITMAP
3FFC
3FFC
F00F
F00F
0FF0
0FF0
3C3C
3C3C
3FFC
3FFC
3C00
3C00
0FF0
0FF0
ENDCHAR
STARTCHAR edieresis
ENCODING 235
SWIDTH 1000 0
DWIDTH 16 0
BBX 12 14 0 0
BITMAP
F0F0
F0F0
0000
0000
3FC0
3FC0
F0F0
F0F0
FFF0
FFF0
F000
F000
3FC0
3FC0
ENDCHAR
STARTCHAR igrave
ENCODING 236
SWIDTH 1000 0
DWIDTH 16 0
BBX 10 14 0 0
BITMAP
FC00
FC00
0000
0000
3F00
3F00
0F00
0F00
0F00
0F00
0F00
0F00
3FC0
3FC0
ENDCHAR
STARTCHAR iacute
ENCODING 237
SWIDTH 1000 0
DWIDTH 16 0
BBX 8 14 2 0
BITMAP
3F
3F
00
00
FC
FC
3C
3C
3C
3C
3C
3C
FF
FF
ENDCHAR
STARTCHAR icircumflex
ENCODING 238
SWIDTH 1000 0
DWIDTH 16 0
BBX 14 14 0 0
BITMAP
3FF0
3FF0
F03C
F03C
0FC0
0FC0
03C0
03C0
03C0
03C0
03C0
03C0
0FF0
0FF0
ENDCHAR
STARTCHAR idieresis
ENCODING 239
SWIDTH 1000 0
DWIDTH 16 0
BBX 12 14 0 0
BITMAP
F0F0
F0F0
0000
0000
3F00
3F00
0F00
0F00
0F00
0F00
0F00
0F00
3FC0
3FC0
ENDCHAR
STARTCHAR eth
ENCODING 240
SWIDTH 1000 0
DWIDTH 16 0
BBX 14 14 0 0
BITMAP
0F00
0F00
3FFC
3FFC
00F0
00F0
3FF0
3FF0
F0F0
F0F0
F0F0
F0F0
3FC0
3FC0
ENDCHAR
STARTCHAR ntilde
ENCODING 241
SWIDTH 1000 0
DWIDTH 16 0
BBX 12 12 0 0
BITMAP
FFC0
FFC0
0000
0000
FFC0
FFC0
F0F0
F0F0
F0F0
F0F0
F0F0
F0F0
ENDCHAR
STARTCHAR ograve
ENCODING 242
SWIDTH 1000 0
DWIDTH 16 0
BBX 12 12 0 0
BITMAP
FC00
FC00
0000
0000
3FC0
3FC0
F0F0
F0F0
F0F0
F0F0
3FC0
3FC0
ENDCHAR
STARTCHAR oacute
ENCODING 243
SWIDTH 1000 0
DWIDTH 16 0
BBX 12 12 0 0
BITMAP
03F0
03F0
0000
0000
3FC0
3FC0
F0F0
F0F0
F0F0
F0F0
3FC0
3FC0
ENDCHAR
STARTCHAR ocircumflex
ENCODING 244
SWIDTH 1000 0
DWIDTH 16 0
BBX 12 14 0 0
BITMAP
3FC0
3FC0
F0F0
F0F0
0000
0000
3FC0
3FC0
F0F0
F0F0
F0F0
F0F0
3FC0
3FC0
ENDCHAR
STARTCHAR otilde
ENCODING 245
SWIDTH 1000 0
DWIDTH 16 0
BBX 14 14 0 0
BITMAP
3F3C
3F3C
F3F0
F3F0
0000
0000
3FC0
3FC0
F0F0
F0F0
F0F0
F0F0
3FC0
3FC0
ENDCHAR
STARTCHAR odieresis
ENCODING 246
SWIDTH 1000 0
DWIDTH 16 0
BBX 12 12 0 0
BITMAP
F0F0
F0F0
0000
0000
3FC0
3FC0
F0F0
F0F0
F0F0
F0F0
3FC0
3FC0
ENDCHAR
STARTCHAR divide
ENCODING 247
SWIDTH 1000 0
DWIDTH 16 0
BBX 12 14 0 0
BITMAP
0F00
0F00
0F00
0F00
0000
0000
FFF0
FFF0
0000
0000
0F00
0F00
0F00
0F00
ENDCHAR
STARTCHAR oslash
ENCODING 248
SWIDTH 1000 0
DWIDTH 16 0
BBX 14 14 0 -2
BITMAP
000C
000C
3FF0
3FF0
F0FC
F0FC
F33C
F33C
FC3C
FC3C
3FF0
3FF0
C000
C000
ENDCHAR
STARTCHAR ugrave
ENCODING 249
SWIDTH 1000 0
DWIDTH 16 0
BBX 14 12 0 0
BITMAP
FC00
FC00
0000
0000
F0F0
F0F0
F0F0
F0F0
F0F0
F0F0
3FFC
3FFC
ENDCHAR
STARTCHAR uacute
ENCODING 250
SWIDTH 1000 0
DWIDTH 16 0
BBX 14 12 0 0
BITMAP
03F0
03F0
0000
0000
F0F0
F0F0
F0F0
F0F0
F0F0
F0F0
3FFC
3FFC
ENDCHAR
STARTCHAR ucircumflex
ENCODING 251
SWIDTH 1000 0
DWIDTH 16 0
BBX 14 14 0 0
BITMAP
3FC0
3FC0
F0F0
F0F0
0000
0000
F0F0
F0F0
F0F0
F0F0
F0F0
F0F0
3FFC
3FFC
ENDCHAR
STARTCHAR udieresis
ENCODING 252
SWIDTH 1000 0
DWIDTH 16 0
BBX 14 12 0 0
BITMAP
F0F0
F0F0
0000
0000
F0F0
F0F0
F0F0
F0F0
F0F0
F0F0
3FFC
3FFC
ENDCHAR
STARTCHAR yacute
ENCODING 253
SWIDTH 1000 0
DWIDTH 16 0
BBX 12 14 0 -2
BITMAP
03F0
03F0
0000
0000
F0F0
F0F0
F0F0
F0F0
3FF0
3FF0
00F0
00F0
3FC0
3FC0
ENDCHAR
STARTCHAR thorn
ENCODING 254
SWIDTH 1000 0
DWIDTH 16 0
BBX 14 16 0 -2
BITMAP
FC00
FC00
3C00
3C00
3FF0
3FF0
3C3C
3C3C
3C3C
3C3C
3FF0
3FF0
3C00
3C00
FF00
FF00
ENDCHAR
STARTCHAR ydieresis
ENCODING 255
SWIDTH 1000 0
DWIDTH 16 0
BBX 12 14 0 -2
BITMAP
F0F0
F0F0
0000
0000
F0F0
F0F0
F0F0
F0F0
3FF0
3FF0
00F0
00F0
FFC0
FFC0
ENDCHAR
STARTCHAR Amacron
ENCODING 256
SWIDTH 1000 0
DWIDTH 16 0
BBX 14 14 0 0
BITMAP
FFFC
FFFC
0000
0000
0FC0
0FC0
3CF0
3CF0
F03C
F03C
FFFC
FFFC
F03C
F03C
ENDCHAR
STARTCHAR amacron
ENCODING 257
SWIDTH 1000 0
DWIDTH 16 0
BBX 14 14 0 0
BITMAP
3FF0
3FF0
0000
0000
3FC0
3FC0
00F0
00F0
3FF0
3FF0
F0F0
F0F0
3FFC
3FFC
ENDCHAR
STARTCHAR Abreve
ENCODING 258
SWIDTH 1000 0
DWIDTH 16 0
BBX 14 14 0 0
BITMAP
F03C
F03C
3FF0
3FF0
0FC0
0FC0
3CF0
3CF0
F03C
F03C
FFFC
FFFC
F03C
F03C
ENDCHAR
STARTCHAR abreve
ENCODING 259
SWIDTH 1000 0
DWIDTH 16 0
BBX 14 14 0 0
BITMAP
F0F0
F0F0
3FC0
3FC0
3FC0
3FC0
00F0
00F0
3FF0
3FF0
F0F0
F0F0
3FFC
3FFC
ENDCHAR
STARTCHAR Aogonek
ENCODING 260
SWIDTH 1000 0
DWIDTH 16 0
BBX 14 16 0 -2
BITMAP
0F00
0F00
3FC0
3FC0
F0F0
F0F0
F0F0
F0F0
FFF0
FFF0
F0F0
F0F0
F3F0
F3F0
00FC
00FC
ENDCHAR
STARTCHAR aogonek
ENCODING 261
SWIDTH 1000 0
DWIDTH 16 0
BBX 16 12 0 -2
BITMAP
3FC0
3FC0
00F0
00F0
3FF0
3FF0
F0F0
F0F0
3FFC
3FFC
003F
003F
ENDCHAR
STARTCHAR Cacute
ENCODING 262
SWIDTH 1000 0
DWIDTH 16 0
BBX 14 14 0 0
BITMAP
00FC
00FC
0FF0
0FF0
3C3C
3C3C
F000
F000
F000
F000
3C3C
3C3C
0FF0
0FF0
ENDCHAR
STARTCHAR cacute
ENCODING 263
SWIDTH 1000 0
DWIDTH 16 0
BBX 12 14 0 0
BITMAP
03F0
03F0
0000
0000
3FC0
3FC0
F0F0
F0F0
F000
F000
F0F0
F0F0
3FC0
3FC0
ENDCHAR
STARTCHAR Ccircumflex
ENCODING 264
SWIDTH 1000 0
DWIDTH 16 0
BBX 16 14 0 0
BITMAP
3FFC
3FFC
F00F
F00F
0FF0
0FF0
3C3C
3C3C
F000
F000
3C3C
3C3C
0FF0
0FF0
ENDCHAR
STARTCHAR ccircumflex
ENCODING 265
SWIDTH 1000 0
DWIDTH 16 0
BBX 10 14 2 0
BITMAP
3F00
3F00
F3C0
F3C0
0000
0000
3FC0
3FC0
F000
F000
F000
F000
3FC0
3FC0
ENDCHAR
STARTCHAR Cdotaccent
ENCODING 266
SWIDTH 1000 0
DWIDTH 16 0
BBX 14 14 0 0
BITMAP
03C0
03C0
0000
0000
0FF0
0FF0
3C3C
3C3C
F000
F000
3C3C
3C3C
0FF0
0FF0
ENDCHAR
STARTCHAR cdotaccent
ENCODING 267
SWIDTH 1000 0
DWIDTH 16 0
BBX 10 12 2 0
BITMAP
0F00
0F00
0000
0000
3FC0
3FC0
F000
F000
F000
F000
3FC0
3FC0
ENDCHAR
STARTCHAR Ccaron
ENCODING 268
SWIDTH 1000 0
DWIDTH 16 0
BBX 16 14 0 0
BITMAP
F00F
F00F
3FFC
3FFC
0FF0
0FF0
3C3C
3C3C
F000
F000
3C3C
3C3C
0FF0
0FF0
ENDCHAR
STARTCHAR ccaron
ENCODING 269
SWIDTH 1000 0
DWIDTH 16 0
BBX 10 14 2 0
BITMAP
F3C0
F3C0
3F00
3F00
0000
0000
3FC0
3FC0
F000
F000
F000
F000
3FC0
3FC0
ENDCHAR
STARTCHAR Dcaron
ENCODING 270
SWIDTH 1000 0
DWIDTH 16 0
BBX 14 14 0 0
BITMAP
F0F0
F0F0
3FC0
3FC0
FFF0
FFF0
3C3C
3C3C
3C3C
3C3C
3C3C
3C3C
FFF0
FFF0
ENDCHAR
STARTCHAR dcaron
ENCODING 271
SWIDTH 1000 0
DWIDTH 16 0
BBX 16 14 0 0
BITMAP
F3FC
F3FC
3F3C
3F3C
003C
003C
0FFC
0FFC
3C3C
3C3C
3C3C
3C3C
0FCF
0FCF
ENDCHAR
STARTCHAR Dcroat
ENCODING 272
SWIDTH 1000 0
DWIDTH 16 0
BBX 14 14 0 0
BITMAP
FFC0
FFC0
3CF0
3CF0
3C3C
3C3C
FF3C
FF3C
3C3C
3C3C
3CF0
3CF0
FFC0
FFC0
ENDCHAR
STARTCHAR dcroat
ENCODING 273
SWIDTH 1000 0
DWIDTH 16 0
BBX 14 14 0 0
BITMAP
00F0
00F0
0FFC
0FFC
00F0
00F0
3FF0
3FF0
F0F0
F0F0
F0F0
F0F0
3F3C
3F3C
ENDCHAR
STARTCHAR Emacron
ENCODING 274
SWIDTH 1000 0
DWIDTH 16 0
BBX 12 14 0 0
BITMAP
FFF0
FFF0
0000
0000
FFF0
FFF0
3C00
3C00
3FC0
3FC0
3C00
3C00
FFF0
FFF0
ENDCHAR
STARTCHAR emacron
ENCODING 275
SWIDTH 1000 0
DWIDTH 16 0
BBX 12 14 0 0
BITMAP
FFF0
FFF0
0000
0000
3FC0
3FC0
F0F0
F0F0
FFF0
FFF0
F000
F000
3FC0
3FC0
ENDCHAR
STARTCHAR Ebreve
ENCODING 276
SWIDTH 1000 0
DWIDTH 16 0
BBX 12 14 0 0
BITMAP
F0F0
F0F0
3FC0
3FC0
FFF0
FFF0
3C00
3C00
3FC0
3FC0
3C00
3C00
FFF0
FFF0
ENDCHAR
STARTCHAR ebreve
ENCODING 277
SWIDTH 1000 0
DWIDTH 16 0
BBX 12 14 0 0
BITMAP
F0F0
F0F0
3FC0
3FC0
3FC0
3FC0
F0F0
F0F0
FFF0
FFF0
F000
F000
3FC0
3FC0
ENDCHAR
STARTCHAR Edotaccent
ENCODING 278
SWIDTH 1000 0
DWIDTH 16 0
BBX 12 14 0 0
BITMAP
0F00
0F00
0000
0000
FFF0
FFF0
3C00
3C00
3FC0
3FC0
3C00
3C00
FFF0
FFF0
ENDCHAR
STARTCHAR edotaccent
ENCODING 279
SWIDTH 1000 0
DWIDTH 16 0
BBX 12 14 0 0
BITMAP
0F00
0F00
0000
0000
3FC0
3FC0
F0F0
F0F0
FFF0
FFF0
F000
F000
3FC0
3FC0
ENDCHAR
STARTCHAR Eogonek
ENCODING 280
SWIDTH 1000 0
DWIDTH 16 0
BBX 14 16 0 -2
BITMAP
FFFC
FFFC
3C0C
3C0C
3CC0
3CC0
3FC0
3FC0
3CC0
3CC0
3C0C
3C0C
FFFC
FFFC
00F0
00F0
ENDCHAR
STARTCHAR eogonek
ENCODING 281
SWIDTH 1000 0
DWIDTH 16 0
BBX 14 12 0 -2
BITMAP
3FC0
3FC0
F0F0
F0F0
FFF0
FFF0
F000
F000
3FF0
3FF0
00FC
00FC
ENDCHAR
STARTCHAR Ecaron
ENCODING 282
SWIDTH 1000 0
DWIDTH 16 0
BBX 12 14 0 0
BITMAP
3CF0
3CF0
0FC0
0FC0
FFF0
FFF0
3C00
3C00
3FC0
3FC0
3C00
3C00
FFF0
FFF0
ENDCHAR
STARTCHAR ecaron
ENCODING 283
SWIDTH 1000 0
DWIDTH 16 0
BBX 12 14 0 0
BITMAP
3CF0
3CF0
0FC0
0FC0
3FC0
3FC0
F0F0
F0F0
FFF0
FFF0
F000
F000
3FC0
3FC0
ENDCHAR
STARTCHAR Gcircumflex
ENCODING 284
SWIDTH 1000 0
DWIDTH 16 0
BBX 16 14 0 0
BITMAP
3FFC
3FFC
F00F
F00F
0FFC
0FFC
3C00
3C00
F0FC
F0FC
3C3C
3C3C
0FFC
0FFC
ENDCHAR
STARTCHAR gcircumflex
ENCODING 285
SWIDTH 1000 0
DWIDTH 16 0
BBX 14 16 0 -2
BITMAP
0FC0
0FC0
3CF0
3CF0
0000
0000
3F3C
3F3C
F0F0
F0F0
3FF0
3FF0
00F0
00F0
FFC0
FFC0
ENDCHAR
STARTCHAR Gbreve
ENCODING 286
SWIDTH 1000 0
DWIDTH 16 0
BBX 14 14 0 0
BITMAP
0F3C
0F3C
03F0
03F0
0FFC
0FFC
3C00
3C00
F0FC
F0FC
3C3C
3C3C
0FFC
0FFC
ENDCHAR
STARTCHAR gbreve
ENCODING 287
SWIDTH 1000 0
DWIDTH 16 0
BBX 14 16 0 -2
BITMAP
3C3C
3C3C
0FF0
0FF0
0000
0000
3F3C
3F3C
F0F0
F0F0
3FF0
3FF0
00F0
00F0
FFC0
FFC0
ENDCHAR
STARTCHAR Gdotaccent
ENCODING 288
SWIDTH 1000 0
DWIDTH 16 0
BBX 14 14 0 0
BITMAP
03C0
03C0
0000
0000
0FFC
0FFC
3C00
3C00
F0FC
F0FC
3C3C
3C3C
0FFC
0FFC
ENDCHAR
STARTCHAR gdotaccent
ENCODING 289
SWIDTH 1000 0
DWIDTH 16 0
BBX 14 16 0 -2
BITMAP
03C0
03C0
0000
0000
3F3C
3F3C
F0F0
F0F0
F0F0
F0F0
3FF0
3FF0
00F0
00F0
FFC0
FFC0
ENDCHAR
STARTCHAR Gcommaaccent
ENCODING 290
SWIDTH 1000 0
DWIDTH 16 0
BBX 14 16 0 -2
BITMAP
0FF0
0FF0
3C3C
3C3C
F000
F000
F0FC
F0FC
3C3C
3C3C
0FFC
0FFC
00F0
00F0
0FC0
0FC0
ENDCHAR
STARTCHAR gcommaaccent
ENCODING 291
SWIDTH 1000 0
DWIDTH 16 0
BBX 14 16 0 -2
BITMAP
00FC
00FC
03C0
03C0
3F3C
3F3C
F0F0
F0F0
F0F0
F0F0
3FF0
3FF0
00F0
00F0
FFC0
FFC0
ENDCHAR
STARTCHAR Hcircumflex
ENCODING 292
SWIDTH 1000 0
DWIDTH 16 0
BBX 12 14 0 0
BITMAP
3FC0
3FC0
F0F0
F0F0
0000
0000
F0F0
F0F0
FFF0
FFF0
F0F0
F0F0
F0F0
F0F0
ENDCHAR
STARTCHAR hcircumflex
ENCODING 293
SWIDTH 1000 0
DWIDTH 16 0
BBX 16 14 0 0
BITMAP
FCFC
FCFC
3FCF
3FCF
3C00
3C00
3CF0
3CF0
3F3C
3F3C
3C3C
3C3C
FC3C
FC3C
ENDCHAR
STARTCHAR Hbar
ENCODING 294
SWIDTH 1000 0
DWIDTH 16 0
BBX 16 14 0 0
BITMAP
3C3C
3C3C
FFFF
FFFF
3C3C
3C3C
3FFC
3FFC
3C3C
3C3C
3C3C
3C3C
3C3C
3C3C
ENDCHAR
STARTCHAR hbar
ENCODING 295
SWIDTH 1000 0
DWIDTH 16 0
BBX 14 14 0 0
BITMAP
FC00
FC00
3C00
3C00
FF00
FF00
3CF0
3CF0
3F3C
3F3C
3C3C
3C3C
FC3C
FC3C
ENDCHAR
STARTCHAR Itilde
ENCODING 296
SWIDTH 1000 0
DWIDTH 16 0
BBX 14 14 0 0
BITMAP
3F3C
3F3C
F3F0
F3F0
0000
0000
3FC0
3FC0
0F00
0F00
0F00
0F00
3FC0
3FC0
ENDCHAR
STARTCHAR itilde
ENCODING 297
SWIDTH 1000 0
DWIDTH 16 0
BBX 14 14 0 0
BITMAP
3F3C
3F3C
F3F0
F3F0
0000
0000
3F00
3F00
0F00
0F00
0F00
0F00
3FC0
3FC0
ENDCHAR
STARTCHAR Imacron
ENCODING 298
SWIDTH 1000 0
DWIDTH 16 0
BBX 12 14 0 0
BITMAP
FFF0
FFF0
0000
0000
3FC0
3FC0
0F00
0F00
0F00
0F00
0F00
0F00
3FC0
3FC0
ENDCHAR
STARTCHAR imacron
ENCODING 299
SWIDTH 1000 0
DWIDTH 16 0
BBX 10 14 0 0
BITMAP
FFC0
FFC0
0000
0000
3F00
3F00
0F00
0F00
0F00
0F00
0F00
0F00
3FC0
3FC0
ENDCHAR
STARTCHAR Ibreve
ENCODING 300
SWIDTH 1000 0
DWIDTH 16 0
BBX 12 14 0 0
BITMAP
F0F0
F0F0
3FC0
3FC0
0000
0000
3FC0
3FC0
0F00
0F00
0F00
0F00
3FC0
3FC0
ENDCHAR
STARTCHAR ibreve
ENCODING 301
SWIDTH 1000 0
DWIDTH 16 0
BBX 12 14 0 0
BITMAP
F0F0
F0F0
3FC0
3FC0
0000
0000
3F00
3F00
0F00
0F00
0F00
0F00
3FC0
3FC0
ENDCHAR
STARTCHAR Iogonek
ENCODING 302
SWIDTH 1000 0
DWIDTH 16 0
BBX 10 16 2 -2
BITMAP
FF00
FF00
3C00
3C00
3C00
3C00
3C00
3C00
3C00
3C00
3C00
3C00
FF00
FF00
0FC0
0FC0
ENDCHAR
STARTCHAR iogonek
ENCODING 303
SWIDTH 1000 0
DWIDTH 16 0
BBX 10 16 2 -2
BITMAP
3C00
3C00
0000
0000
FC00
FC00
3C00
3C00
3C00
3C00
3C00
3C00
FF00
FF00
0FC0
0FC0
ENDCHAR
STARTCHAR Idotaccent
ENCODING 304
SWIDTH 1000 0
DWIDTH 16 0
BBX 8 14 2 0
BITMAP
3C
3C
00
00
FF
FF
3C
3C
3C
3C
3C
3C
FF
FF
ENDCHAR
STARTCHAR dotlessi
ENCODING 305
SWIDTH 1000 0
DWIDTH 16 0
BBX 8 10 2 0
BITMAP
FC
FC
3C
3C
3C
3C
3C
3C
FF
FF
ENDCHAR
STARTCHAR IJ
ENCODING 306
SWIDTH 1000 0
DWIDTH 16 0
BBX 14 14 0 0
BITMAP
F03C
F03C
F03C
F03C
F03C
F03C
F03C
F03C
F33C
F33C
F33C
F33C
F3F0
F3F0
ENDCHAR
STARTCHAR ij
ENCODING 307
SWIDTH 1000 0
DWIDTH 16 0
BBX 14 16 0 -2
BITMAP
F03C
F03C
0000
0000
F03C
F03C
F03C
F03C
F03C
F03C
F33C
F33C
F33C
F33C
03F0
03F0
ENDCHAR
STARTCHAR Jcircumflex
ENCODING 308
SWIDTH 1000 0
DWIDTH 16 0
BBX 16 14 0 0
BITMAP
0FFC
0FFC
3C0F
3C0F
03F0
03F0
00F0
00F0
00F0
00F0
F0F0
F0F0
3FC0
3FC0
ENDCHAR
STARTCHAR jcircumflex
ENCODING 309
SWIDTH 1000 0
DWIDTH 16 0
BBX 16 16 0 -2
BITMAP
03FC
03FC
0F0F
0F0F
0000
0000
00F0
00F0
00F0
00F0
F0F0
F0F0
F0F0
F0F0
3FC0
3FC0
ENDCHAR
STARTCHAR Kcommaaccent
ENCODING 310
SWIDTH 1000 0
DWIDTH 16 0
BBX 14 16 0 -2
BITMAP
FC3C
FC3C
3C3C
3C3C
3CF0
3CF0
3FC0
3FC0
3CF0
3CF0
3C3C
3C3C
FC3C
FC3C
03F0
03F0
ENDCHAR
STARTCHAR kcommaaccent
ENCODING 311
SWIDTH 1000 0
DWIDTH 16 0
BBX 14 16 0 -2
BITMAP
FC00
FC00
3C00
3C00
3C3C
3C3C
3CF0
3CF0
3FC0
3FC0
3CF0
3CF0
FC3C
FC3C
03F0
03F0
ENDCHAR
STARTCHAR kgreenlandic
ENCODING 312
SWIDTH 1000 0
DWIDTH 16 0
BBX 14 10 0 0
BITMAP
FC3C
FC3C
3CF0
3CF0
3FC0
3FC0
3CF0
3CF0
3C3C
3C3C
ENDCHAR
STARTCHAR Lacute
ENCODING 313
SWIDTH 1000 0
DWIDTH 16 0
BBX 16 14 0 0
BITMAP
FF0F
FF0F
3C3C
3C3C
3C00
3C00
3C00
3C00
3C0C
3C0C
3C3C
3C3C
FFFC
FFFC
ENDCHAR
STARTCHAR lacute
ENCODING 314
SWIDTH 1000 0
DWIDTH 16 0
BBX 14 14 2 0
BITMAP
FC3C
FC3C
3CF0
3CF0
3C00
3C00
3C00
3C00
3C00
3C00
3C00
3C00
FF00
FF00
ENDCHAR
STARTCHAR Lcommaaccent
ENCODING 315
SWIDTH 1000 0
DWIDTH 16 0
BBX 14 16 0 -2
BITMAP
FF00
FF00
3C00
3C00
3C00
3C00
3C0C
3C0C
3C3C
3C3C
FFFC
FFFC
03C0
03C0
3F00
3F00
ENDCHAR
STARTCHAR lcommaaccent
ENCODING 316
SWIDTH 1000 0
DWIDTH 16 0
BBX 8 16 2 -2
BITMAP
FC
FC
3C
3C
3C
3C
3C
3C
3C
3C
FF
FF
0F
0F
FC
FC
ENDCHAR
STARTCHAR Lcaron
ENCODING 317
SWIDTH 1000 0
DWIDTH 16 0
BBX 16 14 0 0
BITMAP
FFCF
FFCF
3CFC
3CFC
3C30
3C30
3C00
3C00
3C0C
3C0C
3C3C
3C3C
FFFC
FFFC
ENDCHAR
STARTCHAR lcaron
ENCODING 318
SWIDTH 1000 0
DWIDTH 16 0
BBX 16 14 0 0
BITMAP
F3CF
F3CF
F0FC
F0FC
F030
F030
F000
F000
F000
F000
F000
F000
FC00
FC00
ENDCHAR
STARTCHAR Ldot
ENCODING 319
SWIDTH 1000 0
DWIDTH 16 0
BBX 14 14 0 0
BITMAP
FF00
FF00
3C00
3C00
3C3C
3C3C
3C00
3C00
3C0C
3C0C
3C3C
3C3C
FFFC
FFFC
ENDCHAR
STARTCHAR ldot
ENCODING 320
SWIDTH 1000 0
DWIDTH 16 0
BBX 12 14 2 0
BITMAP
FC00
FC00
3C00
3C00
3CF0
3CF0
3C00
3C00
3C00
3C00
3C00
3C00
FF00
FF00
ENDCHAR
STARTCHAR Lslash
ENCODING 321
SWIDTH 1000 0
DWIDTH 16 0
BBX 14 14 0 0
BITMAP
FF00
FF00
3C00
3C00
3FC0
3FC0
3F00
3F00
FC0C
FC0C
3C3C
3C3C
FFFC
FFFC
ENDCHAR
STARTCHAR lslash
ENCODING 322
SWIDTH 1000 0
DWIDTH 16 0
BBX 14 14 0 0
BITMAP
3F00
3F00
0F3C
0F3C
0FF0
0FF0
0FC0
0FC0
0F00
0F00
3F00
3F00
F3C0
F3C0
ENDCHAR
STARTCHAR Nacute
ENCODING 323
SWIDTH 1000 0
DWIDTH 16 0
BBX 14 14 0 0
BITMAP
00FC
00FC
0000
0000
FC3C
FC3C
FF3C
FF3C
F3FC
F3FC
F0FC
F0FC
F03C
F03C
ENDCHAR
STARTCHAR nacute
ENCODING 324
SWIDTH 1000 0
DWIDTH 16 0
BBX 12 14 0 0
BITMAP
03F0
03F0
0000
0000
FFC0
FFC0
F0F0
F0F0
F0F0
F0F0
F0F0
F0F0
F0F0
F0F0
ENDCHAR
STARTCHAR Ncommaaccent
ENCODING 325
SWIDTH 1000 0
DWIDTH 16 0
BBX 14 16 0 -2
BITMAP
F03C
F03C
FC3C
FC3C
FF3C
FF3C
F3FC
F3FC
F0FC
F0FC
F03C
F03C
03C0
03C0
3F00
3F00
ENDCHAR
STARTCHAR ncommaaccent
ENCODING 326
SWIDTH 1000 0
DWIDTH 16 0
BBX 12 12 0 -2
BITMAP
FFC0
FFC0
F0F0
F0F0
F0F0
F0F0
F0F0
F0F0
0F00
0F00
FC00
FC00
ENDCHAR
STARTCHAR Ncaron
ENCODING 327
SWIDTH 1000 0
DWIDTH 16 0
BBX 14 14 0 0
BITMAP
3CF0
3CF0
0FC0
0FC0
FC3C
FC3C
FF3C
FF3C
F3FC
F3FC
F0FC
F0FC
F03C
F03C
ENDCHAR
STARTCHAR ncaron
ENCODING 328
SWIDTH 1000 0
DWIDTH 16 0
BBX 12 14 0 0
BITMAP
F0F0
F0F0
3FC0
3FC0
0000
0000
FFC0
FFC0
F0F0
F0F0
F0F0
F0F0
F0F0
F0F0
ENDCHAR
STARTCHAR napostrophe
ENCODING 329
SWIDTH 1000 0
DWIDTH 16 0
BBX 12 14 0 0
BITMAP
3C00
3C00
F000
F000
0000
0000
FFC0
FFC0
F0F0
F0F0
F0F0
F0F0
F0F0
F0F0
ENDCHAR
STARTCHAR Eng
ENCODING 330
SWIDTH 1000 0
DWIDTH 16 0
BBX 14 16 0 -2
BITMAP
F03C
F03C
FC3C
FC3C
FF3C
FF3C
F3FC
F3FC
F0FC
F0FC
F03C
F03C
F03C
F03C
03F0
03F0
ENDCHAR
STARTCHAR eng
ENCODING 331
SWIDTH 1000 0
DWIDTH 16 0
BBX 12 12 0 -2
BITMAP
FFC0
FFC0
F0F0
F0F0
F0F0
F0F0
F0F0
F0F0
F0F0
F0F0
03C0
03C0
ENDCHAR
STARTCHAR Omacron
ENCODING 332
SWIDTH 1000 0
DWIDTH 16 0
BBX 14 14 0 0
BITMAP
FFFC
FFFC
0000
0000
0FC0
0FC0
3CF0
3CF0
F03C
F03C
3CF0
3CF0
0FC0
0FC0
ENDCHAR
STARTCHAR omacron
ENCODING 333
SWIDTH 1000 0
DWIDTH 16 0
BBX 12 12 0 0
BITMAP
FFF0
FFF0
0000
0000
3FC0
3FC0
F0F0
F0F0
F0F0
F0F0
3FC0
3FC0
ENDCHAR
STARTCHAR Obreve
ENCODING 334
SWIDTH 1000 0
DWIDTH 16 0
BBX 14 14 0 0
BITMAP
F03C
F03C
3FF0
3FF0
0FC0
0FC0
3CF0
3CF0
F03C
F03C
3CF0
3CF0
0FC0
0FC0
ENDCHAR
STARTCHAR obreve
ENCODING 335
SWIDTH 1000 0
DWIDTH 16 0
BBX 12 14 0 0
BITMAP
F0F0
F0F0
3FC0
3FC0
0000
0000
3FC0
3FC0
F0F0
F0F0
F0F0
F0F0
3FC0
3FC0
ENDCHAR
STARTCHAR Ohungarumlaut
ENCODING 336
SWIDTH 1000 0
DWIDTH 16 0
BBX 14 14 0 0
BITMAP
0F3C
0F3C
0000
0000
0FC0
0FC0
3CF0
3CF0
F03C
F03C
3CF0
3CF0
0FC0
0FC0
ENDCHAR
STARTCHAR ohungarumlaut
ENCODING 337
SWIDTH 1000 0
DWIDTH 16 0
BBX 14 12 0 0
BITMAP
0F3C
0F3C
0000
0000
3FC0
3FC0
F0F0
F0F0
F0F0
F0F0
3FC0
3FC0
ENDCHAR
STARTCHAR OE
ENCODING 338
SWIDTH 1000 0
DWIDTH 16 0
BBX 14 14 0 0
BITMAP
0FFC
0FFC
3CF0
3CF0
F0F0
F0F0
F0FC
F0FC
F0F0
F0F0
3CF0
3CF0
0FFC
0FFC
ENDCHAR
STARTCHAR oe
ENCODING 339
SWIDTH 1000 0
DWIDTH 16 0
BBX 14 10 0 0
BITMAP
3FFC
3FFC
F3C0
F3C0
F3FC
F3FC
F3C0
F3C0
3FFC
3FFC
ENDCHAR
STARTCHAR Racute
ENCODING 340
SWIDTH 1000 0
DWIDTH 16 0
BBX 14 14 0 0
BITMAP
00FC
00FC
0000
0000
FFF0
FFF0
3C3C
3C3C
3FF0
3FF0
3CF0
3CF0
FC3C
FC3C
ENDCHAR
STARTCHAR racute
ENCODING 341
SWIDTH 1000 0
DWIDTH 16 0
BBX 14 14 0 0
BITMAP
00FC
00FC
0000
0000
F3F0
F3F0
3F3C
3F3C
3C3C
3C3C
3C00
3C00
FF00
FF00
ENDCHAR
STARTCHAR Rcommaaccent
ENCODING 342
SWIDTH 1000 0
DWIDTH 16 0
BBX 14 16 0 -2
BITMAP
FFF0
FFF0
3C3C
3C3C
3C3C
3C3C
3FF0
3FF0
3CF0
3CF0
FC3C
FC3C
03C0
03C0
3F00
3F00
ENDCHAR
STARTCHAR rcommaaccent
ENCODING 343
SWIDTH 1000 0
DWIDTH 16 0
BBX 14 12 0 -2
BITMAP
F3F0
F3F0
3F3C
3F3C
3C00
3C00
FF00
FF00
03C0
03C0
3F00
3F00
ENDCHAR
STARTCHAR Rcaron
ENCODING 344
SWIDTH 1000 0
DWIDTH 16 0
BBX 14 14 0 0
BITMAP
3CF0
3CF0
0FC0
0FC0
FFF0
FFF0
3C3C
3C3C
3FF0
3FF0
3CF0
3CF0
FC3C
FC3C
ENDCHAR
STARTCHAR rcaron
ENCODING 345
SWIDTH 1000 0
DWIDTH 16 0
BBX 14 14 0 0
BITMAP
3CF0
3CF0
0FC0
0FC0
F3F0
F3F0
3F3C
3F3C
3C3C
3C3C
3C00
3C00
FF00
FF00
ENDCHAR
STARTCHAR Sacute
ENCODING 346
SWIDTH 1000 0
DWIDTH 16 0
BBX 16 14 0 0
BITMAP
3FCF
3FCF
F0F0
F0F0
FC00
FC00
3F00
3F00
03F0
03F0
F0F0
F0F0
3FC0
3FC0
ENDCHAR
STARTCHAR sacute
ENCODING 347
SWIDTH 1000 0
DWIDTH 16 0
BBX 12 14 0 0
BITMAP
03F0
03F0
0000
0000
3FF0
3FF0
F000
F000
3FC0
3FC0
00F0
00F0
FFC0
FFC0
ENDCHAR
STARTCHAR Scircumflex
ENCODING 348
SWIDTH 1000 0
DWIDTH 16 0
BBX 12 14 0 0
BITMAP
0FC0
0FC0
3CF0
3CF0
3FF0
3FF0
FC00
FC00
3FC0
3FC0
03F0
03F0
FFC0
FFC0
ENDCHAR
STARTCHAR scircumflex
ENCODING 349
SWIDTH 1000 0
DWIDTH 16 0
BBX 12 14 0 0
BITMAP
0FC0
0FC0
3CF0
3CF0
0000
0000
3FC0
3FC0
FC00
FC00
03F0
03F0
3FC0
3FC0
ENDCHAR
STARTCHAR Scedilla
ENCODING 350
SWIDTH 1000 0
DWIDTH 16 0
BBX 12 16 0 -2
BITMAP
3FC0
3FC0
F0F0
F0F0
FC00
FC00
3F00
3F00
03F0
03F0
F0F0
F0F0
3FC0
3FC0
FC00
FC00
ENDCHAR
STARTCHAR scedilla
ENCODING 351
SWIDTH 1000 0
DWIDTH 16 0
BBX 12 12 0 -2
BITMAP
3FF0
3FF0
F000
F000
3FC0
3FC0
00F0
00F0
FFC0
FFC0
FC00
FC00
ENDCHAR
STARTCHAR Scaron
ENCODING 352
SWIDTH 1000 0
DWIDTH 16 0
BBX 12 14 0 0
BITMAP
F0F0
F0F0
3FC0
3FC0
F0F0
F0F0
3C00
3C00
03C0
03C0
F0F0
F0F0
3FC0
3FC0
ENDCHAR
STARTCHAR scaron
ENCODING 353
SWIDTH 1000 0
DWIDTH 16 0
BBX 12 14 0 0
BITMAP
3CF0
3CF0
0FC0
0FC0
3FF0
3FF0
F000
F000
3FC0
3FC0
00F0
00F0
FFC0
FFC0
ENDCHAR
STARTCHAR Tcommaaccent
ENCODING 354
SWIDTH 1000 0
DWIDTH 16 0
BBX 12 16 0 -2
BITMAP
FFF0
FFF0
CF30
CF30
0F00
0F00
0F00
0F00
0F00
0F00
3FC0
3FC0
03C0
03C0
FF00
FF00
ENDCHAR
STARTCHAR tcommaaccent
ENCODING 355
SWIDTH 1000 0
DWIDTH 16 0
BBX 10 16 2 -2
BITMAP
0C00
0C00
3C00
3C00
FFC0
FFC0
3C00
3C00
3C00
3C00
3CC0
3CC0
0F00
0F00
FC00
FC00
ENDCHAR
STARTCHAR Tcaron
ENCODING 356
SWIDTH 1000 0
DWIDTH 16 0
BBX 12 14 0 0
BITMAP
F0F0
F0F0
3FC0
3FC0
FFF0
FFF0
CF30
CF30
0F00
0F00
0F00
0F00
3FC0
3FC0
ENDCHAR
STARTCHAR tcaron
ENCODING 357
SWIDTH 1000 0
DWIDTH 16 0
BBX 12 14 0 0
BITMAP
F0F0
F0F0
3FC0
3FC0
0F00
0F00
3FF0
3FF0
0F00
0F00
0F30
0F30
03C0
03C0
ENDCHAR
STARTCHAR Tbar
ENCODING 358
SWIDTH 1000 0
DWIDTH 16 0
BBX 12 14 0 0
BITMAP
FFF0
FFF0
CF30
CF30
0F00
0F00
FFF0
FFF0
0F00
0F00
0F00
0F00
3FC0
3FC0
ENDCHAR
STARTCHAR tbar
ENCODING 359
SWIDTH 1000 0
DWIDTH 16 0
BBX 12 14 2 0
BITMAP
0C00
0C00
3C00
3C00
FFC0
FFC0
3C00
3C00
FF00
FF00
3C30
3C30
0FC0
0FC0
ENDCHAR
STARTCHAR Utilde
ENCODING 360
SWIDTH 1000 0
DWIDTH 16 0
BBX 14 14 0 0
BITMAP
3F3C
3F3C
F3F0
F3F0
3C3C
3C3C
3C3C
3C3C
3C3C
3C3C
3C3C
3C3C
0FF0
0FF0
ENDCHAR
STARTCHAR utilde
ENCODING 361
SWIDTH 1000 0
DWIDTH 16 0
BBX 14 14 0 0
BITMAP
3F3C
3F3C
F3F0
F3F0
0000
0000
F0F0
F0F0
F0F0
F0F0
F0F0
F0F0
3FFC
3FFC
ENDCHAR
STARTCHAR Umacron
ENCODING 362
SWIDTH 1000 0
DWIDTH 16 0
BBX 12 14 0 0
BITMAP
FFF0
FFF0
0000
0000
F0F0
F0F0
F0F0
F0F0
F0F0
F0F0
F0F0
F0F0
3FC0
3FC0
ENDCHAR
STARTCHAR umacron
ENCODING 363
SWIDTH 1000 0
DWIDTH 16 0
BBX 14 12 0 0
BITMAP
FFF0
FFF0
0000
0000
F0F0
F0F0
F0F0
F0F0
F0F0
F0F0
3FFC
3FFC
ENDCHAR
STARTCHAR Ubreve
ENCODING 364
SWIDTH 1000 0
DWIDTH 16 0
BBX 12 14 0 0
BITMAP
F0F0
F0F0
3FC0
3FC0
0000
0000
F0F0
F0F0
F0F0
F0F0
F0F0
F0F0
3FC0
3FC0
ENDCHAR
STARTCHAR ubreve
ENCODING 365
SWIDTH 1000 0
DWIDTH 16 0
BBX 14 14 0 0
BITMAP
F0F0
F0F0
3FC0
3FC0
0000
0000
F0F0
F0F0
F0F0
F0F0
F0F0
F0F0
3FFC
3FFC
ENDCHAR
STARTCHAR Uring
ENCODING 366
SWIDTH 1000 0
DWIDTH 16 0
BBX 12 14 0 0
BITMAP
0F00
0F00
0000
0000
F0F0
F0F0
F0F0
F0F0
F0F0
F0F0
F0F0
F0F0
3FC0
3FC0
ENDCHAR
STARTCHAR uring
ENCODING 367
SWIDTH 1000 0
DWIDTH 16 0
BBX 14 14 0 0
BITMAP
0F00
0F00
0F00
0F00
0000
0000
F0F0
F0F0
F0F0
F0F0
F0F0
F0F0
3FFC
3FFC
ENDCHAR
STARTCHAR Uhungarumlaut
ENCODING 368
SWIDTH 1000 0
DWIDTH 16 0
BBX 14 14 0 0
BITMAP
0F3C
0F3C
0000
0000
F0F0
F0F0
F0F0
F0F0
F0F0
F0F0
F0F0
F0F0
3FC0
3FC0
ENDCHAR
STARTCHAR uhungarumlaut
ENCODING 369
SWIDTH 1000 0
DWIDTH 16 0
BBX 14 12 0 0
BITMAP
0F3C
0F3C
0000
0000
F0F0
F0F0
F0F0
F0F0
F0F0
F0F0
3FFC
3FFC
ENDCHAR
STARTCHAR Uogonek
ENCODING 370
SWIDTH 1000 0
DWIDTH 16 0
BBX 14 16 0 -2
BITMAP
F0F0
F0F0
F0F0
F0F0
F0F0
F0F0
F0F0
F0F0
F0F0
F0F0
F0F0
F0F0
3FC0
3FC0
00FC
00FC
ENDCHAR
STARTCHAR uogonek
ENCODING 371
SWIDTH 1000 0
DWIDTH 16 0
BBX 14 12 0 -2
BITMAP
F0F0
F0F0
F0F0
F0F0
F0F0
F0F0
F0F0
F0F0
3FF0
3FF0
00FC
00FC
ENDCHAR
STARTCHAR Wcircumflex
ENCODING 372
SWIDTH 1000 0
DWIDTH 16 0
BBX 14 14 0 0
BITMAP
0FC0
0FC0
3CF0
3CF0
0000
0000
F33C
F33C
FFFC
FFFC
FCFC
FCFC
F03C
F03C
ENDCHAR
STARTCHAR wcircumflex
ENCODING 373
SWIDTH 1000 0
DWIDTH 16 0
BBX 14 14 0 0
BITMAP
0FC0
0FC0
3CF0
3CF0
0000
0000
F03C
F03C
F33C
F33C
FFFC
FFFC
3CF0
3CF0
ENDCHAR
STARTCHAR Ycircumflex
ENCODING 374
SWIDTH 1000 0
DWIDTH 16 0
BBX 12 14 0 0
BITMAP
3FC0
3FC0
F0F0
F0F0
0000
0000
F0F0
F0F0
3FC0
3FC0
0F00
0F00
3FC0
3FC0
ENDCHAR
STARTCHAR ycircumflex
ENCODING 375
SWIDTH 1000 0
DWIDTH 16 0
BBX 12 16 0 -2
BITMAP
3FC0
3FC0
F0F0
F0F0
0000
0000
F0F0
F0F0
F0F0
F0F0
3FF0
3FF0
00F0
00F0
3FC0
3FC0
ENDCHAR
STARTCHAR Ydieresis
ENCODING 376
SWIDTH 1000 0
DWIDTH 16 0
BBX 12 14 0 0
BITMAP
F0F0
F0F0
0000
0000
F0F0
F0F0
F0F0
F0F0
3FC0
3FC0
0F00
0F00
3FC0
3FC0
ENDCHAR
STARTCHAR Zacute
ENCODING 377
SWIDTH 1000 0
DWIDTH 16 0
BBX 16 14 0 0
BITMAP
000F
000F
FFFC
FFFC
F0F0
F0F0
C3C0
C3C0
0F0C
0F0C
3C3C
3C3C
FFFC
FFFC
ENDCHAR
STARTCHAR zacute
ENCODING 378
SWIDTH 1000 0
DWIDTH 16 0
BBX 12 14 0 0
BITMAP
03F0
03F0
0000
0000
FFF0
FFF0
C3C0
C3C0
0F00
0F00
3C30
3C30
FFF0
FFF0
ENDCHAR
STARTCHAR Zdotaccent
ENCODING 379
SWIDTH 1000 0
DWIDTH 16 0
BBX 14 14 0 0
BITMAP
0F00
0F00
FFFC
FFFC
F0F0
F0F0
C3C0
C3C0
0F0C
0F0C
3C3C
3C3C
FFFC
FFFC
ENDCHAR
STARTCHAR zdotaccent
ENCODING 380
SWIDTH 1000 0
DWIDTH 16 0
BBX 12 14 0 0
BITMAP
0F00
0F00
0000
0000
FFF0
FFF0
C3C0
C3C0
0F00
0F00
3C30
3C30
FFF0
FFF0
ENDCHAR
STARTCHAR Zcaron
ENCODING 381
SWIDTH 1000 0
DWIDTH 16 0
BBX 16 14 0 0
BITMAP
F00F
F00F
3FFC
3FFC
3C3C
3C3C
30F0
30F0
03C0
03C0
0F0C
0F0C
3FFC
3FFC
ENDCHAR
STARTCHAR zcaron
ENCODING 382
SWIDTH 1000 0
DWIDTH 16 0
BBX 12 14 0 0
BITMAP
F0F0
F0F0
3FC0
3FC0
FFF0
FFF0
C3C0
C3C0
0F00
0F00
3C30
3C30
FFF0
FFF0
ENDCHAR
STARTCHAR longs
ENCODING 383
SWIDTH 1000 0
DWIDTH 16 0
BBX 12 14 0 0
BITMAP
0FC0
0FC0
3CF0
3CF0
3C00
3C00
3C00
3C00
3C00
3C00
3C00
3C00
FF00
FF00
ENDCHAR
STARTCHAR florin
ENCODING 402
SWIDTH 1000 0
DWIDTH 16 0
BBX 16 16 0 -2
BITMAP
00FC
00FC
03CF
03CF
03C0
03C0
0FF0
0FF0
03C0
03C0
03C0
03C0
F3C0
F3C0
3F00
3F00
ENDCHAR
STARTCHAR ohorn
ENCODING 417
SWIDTH 1000 0
DWIDTH 16 0
BBX 14 10 0 0
BITMAP
3FFC
3FFC
F3C0
F3C0
F3C0
F3C0
F3C0
F3C0
3F00
3F00
ENDCHAR
STARTCHAR uni01B7
ENCODING 439
SWIDTH 1000 0
DWIDTH 16 0
BBX 12 14 0 0
BITMAP
FFF0
FFF0
F0F0
F0F0
03C0
03C0
0FC0
0FC0
00F0
00F0
F0F0
F0F0
3FC0
3FC0
ENDCHAR
STARTCHAR Aringacute
ENCODING 506
SWIDTH 1000 0
DWIDTH 16 0
BBX 12 14 0 0
BITMAP
0FF0
0FF0
0F00
0F00
0000
0000
3FC0
3FC0
F0F0
F0F0
FFF0
FFF0
F0F0
F0F0
ENDCHAR
STARTCHAR aringacute
ENCODING 507
SWIDTH 1000 0
DWIDTH 16 0
BBX 14 14 0 0
BITMAP
0FF0
0FF0
0F00
0F00
3FC0
3FC0
00F0
00F0
3FF0
3FF0
F0F0
F0F0
3FFC
3FFC
ENDCHAR
STARTCHAR AEacute
ENCODING 508
SWIDTH 1000 0
DWIDTH 16 0
BBX 14 14 0 0
BITMAP
00FC
00FC
0000
0000
0FFC
0FFC
3CF0
3CF0
FFFC
FFFC
F0F0
F0F0
F0FC
F0FC
ENDCHAR
STARTCHAR aeacute
ENCODING 509
SWIDTH 1000 0
DWIDTH 16 0
BBX 16 14 0 0
BITMAP
00FC
00FC
0000
0000
3FFF
3FFF
00F0
00F0
3FFF
3FFF
F0F0
F0F0
3FFF
3FFF
ENDCHAR
STARTCHAR Oslashacute
ENCODING 510
SWIDTH 1000 0
DWIDTH 16 0
BBX 16 14 0 0
BITMAP
003F
003F
0FCC
0FCC
3CF0
3CF0
F33C
F33C
F33C
F33C
3CF0
3CF0
CFC0
CFC0
ENDCHAR
STARTCHAR oslashacute
ENCODING 511
SWIDTH 1000 0
DWIDTH 16 0
BBX 14 16 0 -2
BITMAP
03F0
03F0
000C
000C
3FF0
3FF0
F0FC
F0FC
F33C
F33C
FC3C
FC3C
3FF0
3FF0
C000
C000
ENDCHAR
STARTCHAR Scommaaccent
ENCODING 536
SWIDTH 1000 0
DWIDTH 16 0
BBX 12 16 0 -2
BITMAP
3FC0
3FC0
F0F0
F0F0
FC00
FC00
3F00
3F00
03F0
03F0
F0F0
F0F0
3FC0
3FC0
0F00
0F00
ENDCHAR
STARTCHAR scommaaccent
ENCODING 537
SWIDTH 1000 0
DWIDTH 16 0
BBX 12 12 0 -2
BITMAP
3FF0
3FF0
F000
F000
3FC0
3FC0
00F0
00F0
FFC0
FFC0
0F00
0F00
ENDCHAR
STARTCHAR uni021A
ENCODING 538
SWIDTH 1000 0
DWIDTH 16 0
BBX 12 16 0 -2
BITMAP
FFF0
FFF0
CF30
CF30
0F00
0F00
0F00
0F00
0F00
0F00
0F00
0F00
3FC0
3FC0
0F00
0F00
ENDCHAR
STARTCHAR uni021B
ENCODING 539
SWIDTH 1000 0
DWIDTH 16 0
BBX 10 16 2 -2
BITMAP
0C00
0C00
3C00
3C00
FFC0
FFC0
3C00
3C00
3C00
3C00
3CC0
3CC0
0F00
0F00
3C00
3C00
ENDCHAR
STARTCHAR uni0251
ENCODING 593
SWIDTH 1000 0
DWIDTH 16 0
BBX 14 10 0 0
BITMAP
3F3C
3F3C
F3F0
F3F0
F0C0
F0C0
F3F0
F3F0
3F3C
3F3C
ENDCHAR
STARTCHAR uni0278
ENCODING 632
SWIDTH 1000 0
DWIDTH 16 0
BBX 12 16 0 -2
BITMAP
FFF0
FFF0
0F00
0F00
3FC0
3FC0
F0F0
F0F0
F0F0
F0F0
3FC0
3FC0
0F00
0F00
FFF0
FFF0
ENDCHAR
STARTCHAR circumflex
ENCODING 710
SWIDTH 1000 0
DWIDTH 16 0
BBX 10 6 2 8
BITMAP
0C00
0C00
3F00
3F00
F3C0
F3C0
ENDCHAR
STARTCHAR caron
ENCODING 711
SWIDTH 1000 0
DWIDTH 16 0
BBX 10 4 0 10
BITMAP
F3C0
F3C0
3F00
3F00
ENDCHAR
STARTCHAR uni02C9
ENCODING 713
SWIDTH 1000 0
DWIDTH 16 0
BBX 10 2 2 12
BITMAP
FFC0
FFC0
ENDCHAR
STARTCHAR breve
ENCODING 728
SWIDTH 1000 0
DWIDTH 16 0
BBX 14 4 0 10
BITMAP
F03C
F03C
3FF0
3FF0
ENDCHAR
STARTCHAR dotaccent
ENCODING 729
SWIDTH 1000 0
DWIDTH 16 0
BBX 4 2 4 12
BITMAP
F0
F0
ENDCHAR
STARTCHAR ring
ENCODING 730
SWIDTH 1000 0
DWIDTH 16 0
BBX 10 8 2 6
BITMAP
3F00
3F00
F3C0
F3C0
F3C0
F3C0
3F00
3F00
ENDCHAR
STARTCHAR ogonek
ENCODING 731
SWIDTH 1000 0
DWIDTH 16 0
BBX 6 4 6 -2
BITMAP
F0
F0
FC
FC
ENDCHAR
STARTCHAR tilde
ENCODING 732
SWIDTH 1000 0
DWIDTH 16 0
BBX 14 4 0 10
BITMAP
3F3C
3F3C
F3F0
F3F0
ENDCHAR
STARTCHAR hungarumlaut
ENCODING 733
SWIDTH 1000 0
DWIDTH 16 0
BBX 10 2 4 12
BITMAP
F3C0
F3C0
ENDCHAR
STARTCHAR uni037E
ENCODING 894
SWIDTH 1000 0
DWIDTH 16 0
BBX 6 12 2 0
BITMAP
3C
3C
3C
3C
00
00
3C
3C
3C
3C
F0
F0
ENDCHAR
STARTCHAR tonos
ENCODING 900
SWIDTH 1000 0
DWIDTH 16 0
BBX 6 6 4 8
BITMAP
3C
3C
F0
F0
C0
C0
ENDCHAR
STARTCHAR dieresistonos
ENCODING 901
SWIDTH 1000 0
DWIDTH 16 0
BBX 16 4 0 10
BITMAP
00C0
00C0
F00F
F00F
ENDCHAR
STARTCHAR Alphatonos
ENCODING 902
SWIDTH 1000 0
DWIDTH 16 0
BBX 14 14 0 0
BITMAP
C3C0
C3C0
CFF0
CFF0
3C3C
3C3C
3C3C
3C3C
3FFC
3FFC
3C3C
3C3C
3C3C
3C3C
ENDCHAR
STARTCHAR anoteleia
ENCODING 903
SWIDTH 1000 0
DWIDTH 16 0
BBX 4 4 6 6
BITMAP
F0
F0
F0
F0
ENDCHAR
STARTCHAR Epsilontonos
ENCODING 904
SWIDTH 1000 0
DWIDTH 16 0
BBX 14 14 0 0
BITMAP
CFFC
CFFC
CF0C
CF0C
0F00
0F00
0FF0
0FF0
0F00
0F00
0F0C
0F0C
0FFC
0FFC
ENDCHAR
STARTCHAR Etatonos
ENCODING 905
SWIDTH 1000 0
DWIDTH 16 0
BBX 14 14 0 0
BITMAP
CF3C
CF3C
CF3C
CF3C
0F3C
0F3C
0FFC
0FFC
0F3C
0F3C
0F3C
0F3C
0F3C
0F3C
ENDCHAR
STARTCHAR Iotatonos
ENCODING 906
SWIDTH 1000 0
DWIDTH 16 0
BBX 12 14 0 0
BITMAP
CFF0
CFF0
C3C0
C3C0
03C0
03C0
03C0
03C0
03C0
03C0
03C0
03C0
0FF0
0FF0
ENDCHAR
STARTCHAR Omicrontonos
ENCODING 908
SWIDTH 1000 0
DWIDTH 16 0
BBX 14 14 0 0
BITMAP
CFC0
CFC0
3CF0
3CF0
F03C
F03C
F03C
F03C
F03C
F03C
3CF0
3CF0
0FC0
0FC0
ENDCHAR
STARTCHAR Upsilontonos
ENCODING 910
SWIDTH 1000 0
DWIDTH 16 0
BBX 14 14 0 0
BITMAP
CF3C
CF3C
CF3C
CF3C
0F3C
0F3C
03F0
03F0
00C0
00C0
00C0
00C0
03F0
03F0
ENDCHAR
STARTCHAR Omegatonos
ENCODING 911
SWIDTH 1000 0
DWIDTH 16 0
BBX 14 14 0 0
BITMAP
CFC0
CFC0
3CF0
3CF0
F03C
F03C
F03C
F03C
F03C
F03C
3CF0
3CF0
FCFC
FCFC
ENDCHAR
STARTCHAR iotadieresistonos
ENCODING 912
SWIDTH 1000 0
DWIDTH 16 0
BBX 16 14 0 0
BITMAP
00C0
00C0
F00F
F00F
03C0
03C0
03C0
03C0
03C0
03C0
03C0
03C0
00F0
00F0
ENDCHAR
STARTCHAR Alpha
ENCODING 913
SWIDTH 1000 0
DWIDTH 16 0
BBX 12 14 0 0
BITMAP
0F00
0F00
3FC0
3FC0
F0F0
F0F0
F0F0
F0F0
FFF0
FFF0
F0F0
F0F0
F0F0
F0F0
ENDCHAR
STARTCHAR Beta
ENCODING 914
SWIDTH 1000 0
DWIDTH 16 0
BBX 14 14 0 0
BITMAP
FFF0
FFF0
3C3C
3C3C
3C3C
3C3C
3FF0
3FF0
3C3C
3C3C
3C3C
3C3C
FFF0
FFF0
ENDCHAR
STARTCHAR Gamma
ENCODING 915
SWIDTH 1000 0
DWIDTH 16 0
BBX 12 14 0 0
BITMAP
FFF0
FFF0
F0F0
F0F0
F000
F000
F000
F000
F000
F000
F000
F000
F000
F000
ENDCHAR
STARTCHAR uni0394
ENCODING 916
SWIDTH 1000 0
DWIDTH 16 0
BBX 14 14 0 0
BITMAP
0300
0300
0FC0
0FC0
3CF0
3CF0
F03C
F03C
F03C
F03C
F03C
F03C
FFFC
FFFC
ENDCHAR
STARTCHAR Epsilon
ENCODING 917
SWIDTH 1000 0
DWIDTH 16 0
BBX 14 14 0 0
BITMAP
FFFC
FFFC
3C0C
3C0C
3CC0
3CC0
3FC0
3FC0
3CC0
3CC0
3C0C
3C0C
FFFC
FFFC
ENDCHAR
STARTCHAR Zeta
ENCODING 918
SWIDTH 1000 0
DWIDTH 16 0
BBX 14 14 0 0
BITMAP
FFFC
FFFC
F03C
F03C
C0F0
C0F0
03C0
03C0
0F0C
0F0C
3C3C
3C3C
FFFC
FFFC
ENDCHAR
STARTCHAR Eta
ENCODING 919
SWIDTH 1000 0
DWIDTH 16 0
BBX 12 14 0 0
BITMAP
F0F0
F0F0
F0F0
F0F0
F0F0
F0F0
FFF0
FFF0
F0F0
F0F0
F0F0
F0F0
F0F0
F0F0
ENDCHAR
STARTCHAR Theta
ENCODING 920
SWIDTH 1000 0
DWIDTH 16 0
BBX 14 14 0 0
BITMAP
0FC0
0FC0
3CF0
3CF0
F03C
F03C
FFFC
FFFC
F03C
F03C
3CF0
3CF0
0FC0
0FC0
ENDCHAR
STARTCHAR Iota
ENCODING 921
SWIDTH 1000 0
DWIDTH 16 0
BBX 8 14 2 0
BITMAP
FF
FF
3C
3C
3C
3C
3C
3C
3C
3C
3C
3C
FF
FF
ENDCHAR
STARTCHAR Kappa
ENCODING 922
SWIDTH 1000 0
DWIDTH 16 0
BBX 14 14 0 0
BITMAP
FC3C
FC3C
3C3C
3C3C
3CF0
3CF0
3FC0
3FC0
3CF0
3CF0
3C3C
3C3C
FC3C
FC3C
ENDCHAR
STARTCHAR Lambda
ENCODING 923
SWIDTH 1000 0
DWIDTH 16 0
BBX 14 14 0 0
BITMAP
0300
0300
0FC0
0FC0
3CF0
3CF0
F03C
F03C
F03C
F03C
F03C
F03C
F03C
F03C
ENDCHAR
STARTCHAR Mu
ENCODING 924
SWIDTH 1000 0
DWIDTH 16 0
BBX 14 14 0 0
BITMAP
F03C
F03C
FCFC
FCFC
FFFC
FFFC
FFFC
FFFC
F33C
F33C
F03C
F03C
F03C
F03C
ENDCHAR
STARTCHAR Nu
ENCODING 925
SWIDTH 1000 0
DWIDTH 16 0
BBX 14 14 0 0
BITMAP
F03C
F03C
FC3C
FC3C
FF3C
FF3C
F3FC
F3FC
F0FC
F0FC
F03C
F03C
F03C
F03C
ENDCHAR
STARTCHAR Xi
ENCODING 926
SWIDTH 1000 0
DWIDTH 16 0
BBX 14 14 0 0
BITMAP
FFFC
FFFC
F03C
F03C
0000
0000
3FF0
3FF0
0000
0000
F03C
F03C
FFFC
FFFC
ENDCHAR
STARTCHAR Omicron
ENCODING 927
SWIDTH 1000 0
DWIDTH 16 0
BBX 14 14 0 0
BITMAP
0FC0
0FC0
3CF0
3CF0
F03C
F03C
F03C
F03C
F03C
F03C
3CF0
3CF0
0FC0
0FC0
ENDCHAR
STARTCHAR Pi
ENCODING 928
SWIDTH 1000 0
DWIDTH 16 0
BBX 12 14 0 0
BITMAP
FFF0
FFF0
F0F0
F0F0
F0F0
F0F0
F0F0
F0F0
F0F0
F0F0
F0F0
F0F0
F0F0
F0F0
ENDCHAR
STARTCHAR Rho
ENCODING 929
SWIDTH 1000 0
DWIDTH 16 0
BBX 14 14 0 0
BITMAP
FFF0
FFF0
3C3C
3C3C
3C3C
3C3C
3FF0
3FF0
3C00
3C00
3C00
3C00
FF00
FF00
ENDCHAR
STARTCHAR Sigma
ENCODING 931
SWIDTH 1000 0
DWIDTH 16 0
BBX 14 14 0 0
BITMAP
FFFC
FFFC
3C3C
3C3C
0F00
0F00
03C0
03C0
0F00
0F00
3C3C
3C3C
FFFC
FFFC
ENDCHAR
STARTCHAR Tau
ENCODING 932
SWIDTH 1000 0
DWIDTH 16 0
BBX 12 14 0 0
BITMAP
FFF0
FFF0
CF30
CF30
0F00
0F00
0F00
0F00
0F00
0F00
0F00
0F00
3FC0
3FC0
ENDCHAR
STARTCHAR Upsilon
ENCODING 933
SWIDTH 1000 0
DWIDTH 16 0
BBX 12 14 0 0
BITMAP
F0F0
F0F0
F0F0
F0F0
F0F0
F0F0
3FC0
3FC0
0F00
0F00
0F00
0F00
3FC0
3FC0
ENDCHAR
STARTCHAR Phi
ENCODING 934
SWIDTH 1000 0
DWIDTH 16 0
BBX 14 14 0 0
BITMAP
0300
0300
3FF0
3FF0
F33C
F33C
F33C
F33C
3FF0
3FF0
0300
0300
0300
0300
ENDCHAR
STARTCHAR Chi
ENCODING 935
SWIDTH 1000 0
DWIDTH 16 0
BBX 14 14 0 0
BITMAP
F03C
F03C
F03C
F03C
3CF0
3CF0
0FC0
0FC0
0FC0
0FC0
3CF0
3CF0
F03C
F03C
ENDCHAR
STARTCHAR Psi
ENCODING 936
SWIDTH 1000 0
DWIDTH 16 0
BBX 14 14 0 0
BITMAP
F03C
F03C
F33C
F33C
F33C
F33C
3FF0
3FF0
0300
0300
0300
0300
0300
0300
ENDCHAR
STARTCHAR uni03A9
ENCODING 937
SWIDTH 1000 0
DWIDTH 16 0
BBX 14 14 0 0
BITMAP
0FC0
0FC0
3CF0
3CF0
F03C
F03C
F03C
F03C
F03C
F03C
3CF0
3CF0
FCFC
FCFC
ENDCHAR
STARTCHAR Iotadieresis
ENCODING 938
SWIDTH 1000 0
DWIDTH 16 0
BBX 12 14 0 0
BITMAP
F0F0
F0F0
0000
0000
3FC0
3FC0
0F00
0F00
0F00
0F00
0F00
0F00
3FC0
3FC0
ENDCHAR
STARTCHAR Upsilondieresis
ENCODING 939
SWIDTH 1000 0
DWIDTH 16 0
BBX 12 14 0 0
BITMAP
F0F0
F0F0
0000
0000
F0F0
F0F0
F0F0
F0F0
3FC0
3FC0
0F00
0F00
3FC0
3FC0
ENDCHAR
STARTCHAR alphatonos
ENCODING 940
SWIDTH 1000 0
DWIDTH 16 0
BBX 14 14 0 0
BITMAP
03C0
03C0
0000
0000
3F3C
3F3C
F3F0
F3F0
F0F0
F0F0
F3F0
F3F0
3F3C
3F3C
ENDCHAR
STARTCHAR epsilontonos
ENCODING 941
SWIDTH 1000 0
DWIDTH 16 0
BBX 12 14 0 0
BITMAP
0F00
0F00
0000
0000
3FF0
3FF0
F000
F000
3F00
3F00
F000
F000
3FF0
3FF0
ENDCHAR
STARTCHAR etatonos
ENCODING 942
SWIDTH 1000 0
DWIDTH 16 0
BBX 12 14 0 0
BITMAP
0F00
0F00
0000
0000
CFC0
CFC0
FCF0
FCF0
3CF0
3CF0
3CF0
3CF0
3CF0
3CF0
ENDCHAR
STARTCHAR iotatonos
ENCODING 943
SWIDTH 1000 0
DWIDTH 16 0
BBX 6 14 4 0
BITMAP
F0
F0
00
00
F0
F0
F0
F0
F0
F0
F0
F0
3C
3C
ENDCHAR
STARTCHAR upsilondieresistonos
ENCODING 944
SWIDTH 1000 0
DWIDTH 16 0
BBX 16 14 0 0
BITMAP
00C0
00C0
F00F
F00F
0000
0000
3C3C
3C3C
3C3C
3C3C
3C3C
3C3C
0FF0
0FF0
ENDCHAR
STARTCHAR alpha
ENCODING 945
SWIDTH 1000 0
DWIDTH 16 0
BBX 14 10 0 0
BITMAP
3F3C
3F3C
F3F0
F3F0
F0F0
F0F0
F3F0
F3F0
3F3C
3F3C
ENDCHAR
STARTCHAR beta
ENCODING 946
SWIDTH 1000 0
DWIDTH 16 0
BBX 12 16 0 -2
BITMAP
3FC0
3FC0
F0F0
F0F0
F0F0
F0F0
FFC0
FFC0
F0F0
F0F0
FFC0
FFC0
F000
F000
F000
F000
ENDCHAR
STARTCHAR gamma
ENCODING 947
SWIDTH 1000 0
DWIDTH 16 0
BBX 12 12 0 -2
BITMAP
F0F0
F0F0
3FC0
3FC0
0F00
0F00
3FC0
3FC0
F0F0
F0F0
3FC0
3FC0
ENDCHAR
STARTCHAR delta
ENCODING 948
SWIDTH 1000 0
DWIDTH 16 0
BBX 12 14 0 0
BITMAP
3FC0
3FC0
F0F0
F0F0
3C00
3C00
3FC0
3FC0
F0F0
F0F0
F0F0
F0F0
3FC0
3FC0
ENDCHAR
STARTCHAR epsilon
ENCODING 949
SWIDTH 1000 0
DWIDTH 16 0
BBX 12 10 0 0
BITMAP
3FF0
3FF0
F000
F000
3F00
3F00
F000
F000
3FF0
3FF0
ENDCHAR
STARTCHAR zeta
ENCODING 950
SWIDTH 1000 0
DWIDTH 16 0
BBX 12 16 0 -2
BITMAP
FFF0
FFF0
0F00
0F00
3C00
3C00
F000
F000
F000
F000
3FC0
3FC0
00F0
00F0
0FC0
0FC0
ENDCHAR
STARTCHAR eta
ENCODING 951
SWIDTH 1000 0
DWIDTH 16 0
BBX 12 10 0 0
BITMAP
CFC0
CFC0
FCF0
FCF0
3CF0
3CF0
3CF0
3CF0
3CF0
3CF0
ENDCHAR
STARTCHAR theta
ENCODING 952
SWIDTH 1000 0
DWIDTH 16 0
BBX 12 14 0 0
BITMAP
3FC0
3FC0
F0F0
F0F0
F0F0
F0F0
FFF0
FFF0
F0F0
F0F0
F0F0
F0F0
3FC0
3FC0
ENDCHAR
STARTCHAR iota
ENCODING 953
SWIDTH 1000 0
DWIDTH 16 0
BBX 6 10 4 0
BITMAP
F0
F0
F0
F0
F0
F0
F0
F0
3C
3C
ENDCHAR
STARTCHAR kappa
ENCODING 954
SWIDTH 1000 0
DWIDTH 16 0
BBX 12 10 0 0
BITMAP
F0F0
F0F0
F3C0
F3C0
FF00
FF00
F3C0
F3C0
F0F0
F0F0
ENDCHAR
STARTCHAR lambda
ENCODING 955
SWIDTH 1000 0
DWIDTH 16 0
BBX 12 14 0 0
BITMAP
3F00
3F00
F3C0
F3C0
00F0
00F0
0FF0
0FF0
3CF0
3CF0
F0F0
F0F0
F0F0
F0F0
ENDCHAR
STARTCHAR uni03BC
ENCODING 956
SWIDTH 1000 0
DWIDTH 16 0
BBX 14 12 0 -2
BITMAP
F0F0
F0F0
F0F0
F0F0
F0F0
F0F0
FFFC
FFFC
F000
F000
F000
F000
ENDCHAR
STARTCHAR nu
ENCODING 957
SWIDTH 1000 0
DWIDTH 16 0
BBX 12 10 0 0
BITMAP
F0F0
F0F0
F0F0
F0F0
F0F0
F0F0
3FC0
3FC0
0F00
0F00
ENDCHAR
STARTCHAR xi
ENCODING 958
SWIDTH 1000 0
DWIDTH 16 0
BBX 12 16 0 -2
BITMAP
FFF0
FFF0
0F00
0F00
3C00
3C00
0FC0
0FC0
3C00
3C00
0FC0
0FC0
00F0
00F0
0FC0
0FC0
ENDCHAR
STARTCHAR omicron
ENCODING 959
SWIDTH 1000 0
DWIDTH 16 0
BBX 12 10 0 0
BITMAP
3FC0
3FC0
F0F0
F0F0
F0F0
F0F0
F0F0
F0F0
3FC0
3FC0
ENDCHAR
STARTCHAR pi
ENCODING 960
SWIDTH 1000 0
DWIDTH 16 0
BBX 12 10 0 0
BITMAP
FFF0
FFF0
F0F0
F0F0
F0F0
F0F0
F0F0
F0F0
F0F0
F0F0
ENDCHAR
STARTCHAR rho
ENCODING 961
SWIDTH 1000 0
DWIDTH 16 0
BBX 12 12 0 -2
BITMAP
3FC0
3FC0
F0F0
F0F0
F0F0
F0F0
FFC0
FFC0
F000
F000
F000
F000
ENDCHAR
STARTCHAR sigma1
ENCODING 962
SWIDTH 1000 0
DWIDTH 16 0
BBX 14 12 0 -2
BITMAP
3FF0
3FF0
F03C
F03C
F000
F000
3FF0
3FF0
003C
003C
03F0
03F0
ENDCHAR
STARTCHAR sigma
ENCODING 963
SWIDTH 1000 0
DWIDTH 16 0
BBX 12 10 0 0
BITMAP
3FF0
3FF0
F3C0
F3C0
F0F0
F0F0
F0F0
F0F0
3FC0
3FC0
ENDCHAR
STARTCHAR tau
ENCODING 964
SWIDTH 1000 0
DWIDTH 16 0
BBX 12 10 0 0
BITMAP
FFF0
FFF0
0F00
0F00
0F00
0F00
0F00
0F00
03C0
03C0
ENDCHAR
STARTCHAR upsilon
ENCODING 965
SWIDTH 1000 0
DWIDTH 16 0
BBX 12 10 0 0
BITMAP
F0F0
F0F0
F0F0
F0F0
F0F0
F0F0
F0F0
F0F0
3FC0
3FC0
ENDCHAR
STARTCHAR phi
ENCODING 966
SWIDTH 1000 0
DWIDTH 16 0
BBX 14 12 0 -2
BITMAP
F3F0
F3F0
F33C
F33C
F33C
F33C
3FF0
3FF0
0300
0300
0300
0300
ENDCHAR
STARTCHAR chi
ENCODING 967
SWIDTH 1000 0
DWIDTH 16 0
BBX 12 10 0 0
BITMAP
F0F0
F0F0
3FC0
3FC0
0F00
0F00
3FC0
3FC0
F0F0
F0F0
ENDCHAR
STARTCHAR psi
ENCODING 968
SWIDTH 1000 0
DWIDTH 16 0
BBX 14 12 0 -2
BITMAP
F33C
F33C
F33C
F33C
F33C
F33C
3FF0
3FF0
0300
0300
0300
0300
ENDCHAR
STARTCHAR omega
ENCODING 969
SWIDTH 1000 0
DWIDTH 16 0
BBX 14 10 0 0
BITMAP
F03C
F03C
F33C
F33C
F33C
F33C
F33C
F33C
3CF0
3CF0
ENDCHAR
STARTCHAR iotadieresis
ENCODING 970
SWIDTH 1000 0
DWIDTH 16 0
BBX 12 14 0 0
BITMAP
F0F0
F0F0
0000
0000
0F00
0F00
0F00
0F00
0F00
0F00
0F00
0F00
03C0
03C0
ENDCHAR
STARTCHAR upsilondieresis
ENCODING 971
SWIDTH 1000 0
DWIDTH 16 0
BBX 12 14 0 0
BITMAP
F0F0
F0F0
0000
0000
F0F0
F0F0
F0F0
F0F0
F0F0
F0F0
F0F0
F0F0
3FC0
3FC0
ENDCHAR
STARTCHAR omicrontonos
ENCODING 972
SWIDTH 1000 0
DWIDTH 16 0
BBX 12 14 0 0
BITMAP
0F00
0F00
0000
0000
3FC0
3FC0
F0F0
F0F0
F0F0
F0F0
F0F0
F0F0
3FC0
3FC0
ENDCHAR
STARTCHAR upsilontonos
ENCODING 973
SWIDTH 1000 0
DWIDTH 16 0
BBX 12 14 0 0
BITMAP
0F00
0F00
0000
0000
F0F0
F0F0
F0F0
F0F0
F0F0
F0F0
F0F0
F0F0
3FC0
3FC0
ENDCHAR
STARTCHAR omegatonos
ENCODING 974
SWIDTH 1000 0
DWIDTH 16 0
BBX 14 14 0 0
BITMAP
03C0
03C0
0000
0000
F03C
F03C
F33C
F33C
F33C
F33C
F33C
F33C
3CF0
3CF0
ENDCHAR
STARTCHAR uni03D0
ENCODING 976
SWIDTH 1000 0
DWIDTH 16 0
BBX 12 14 0 -2
BITMAP
3FC0
3FC0
F0F0
F0F0
FFC0
FFC0
F0F0
F0F0
FFC0
FFC0
F000
F000
F000
F000
ENDCHAR
STARTCHAR uni03F4
ENCODING 1012
SWIDTH 1000 0
DWIDTH 16 0
BBX 14 14 0 0
BITMAP
0FC0
0FC0
3CF0
3CF0
F03C
F03C
FFFC
FFFC
F03C
F03C
3CF0
3CF0
0FC0
0FC0
ENDCHAR
STARTCHAR uni0400
ENCODING 1024
SWIDTH 1000 0
DWIDTH 16 0
BBX 14 14 0 0
BITMAP
FC00
FC00
0000
0000
FFFC
FFFC
3C0C
3C0C
3FC0
3FC0
3C0C
3C0C
FFFC
FFFC
ENDCHAR
STARTCHAR afii10023
ENCODING 1025
SWIDTH 1000 0
DWIDTH 16 0
BBX 14 14 0 0
BITMAP
3CF0
3CF0
FFFC
FFFC
3C0C
3C0C
3FC0
3FC0
3C00
3C00
3C0C
3C0C
FFFC
FFFC
ENDCHAR
STARTCHAR afii10051
ENCODING 1026
SWIDTH 1000 0
DWIDTH 16 0
BBX 14 14 0 0
BITMAP
FFF0
FFF0
3C00
3C00
3FF0
3FF0
3C3C
3C3C
3C3C
3C3C
3C3C
3C3C
3CF0
3CF0
ENDCHAR
STARTCHAR afii10052
ENCODING 1027
SWIDTH 1000 0
DWIDTH 16 0
BBX 14 14 0 0
BITMAP
0FC0
0FC0
0C00
0C00
FFFC
FFFC
F03C
F03C
F000
F000
F000
F000
F000
F000
ENDCHAR
STARTCHAR afii10053
ENCODING 1028
SWIDTH 1000 0
DWIDTH 16 0
BBX 14 14 0 0
BITMAP
0FF0
0FF0
3C3C
3C3C
F000
F000
FFC0
FFC0
F000
F000
3C3C
3C3C
0FF0
0FF0
ENDCHAR
STARTCHAR afii10054
ENCODING 1029
SWIDTH 1000 0
DWIDTH 16 0
BBX 12 14 2 0
BITMAP
3FC0
3FC0
F0F0
F0F0
FC00
FC00
3F00
3F00
03F0
03F0
F0F0
F0F0
3FC0
3FC0
ENDCHAR
STARTCHAR afii10055
ENCODING 1030
SWIDTH 1000 0
DWIDTH 16 0
BBX 8 14 4 0
BITMAP
FF
FF
3C
3C
3C
3C
3C
3C
3C
3C
3C
3C
FF
FF
ENDCHAR
STARTCHAR afii10056
ENCODING 1031
SWIDTH 1000 0
DWIDTH 16 0
BBX 12 14 2 0
BITMAP
F0F0
F0F0
0000
0000
3FC0
3FC0
0F00
0F00
0F00
0F00
0F00
0F00
3FC0
3FC0
ENDCHAR
STARTCHAR afii10057
ENCODING 1032
SWIDTH 1000 0
DWIDTH 16 0
BBX 14 14 0 0
BITMAP
03FC
03FC
00F0
00F0
00F0
00F0
00F0
00F0
F0F0
F0F0
F0F0
F0F0
3FC0
3FC0
ENDCHAR
STARTCHAR afii10058
ENCODING 1033
SWIDTH 1000 0
DWIDTH 16 0
BBX 14 14 0 0
BITMAP
FFC0
FFC0
33C0
33C0
33F0
33F0
33CC
33CC
33CC
33CC
33CC
33CC
F3F0
F3F0
ENDCHAR
STARTCHAR afii10059
ENCODING 1034
SWIDTH 1000 0
DWIDTH 16 0
BBX 14 14 0 0
BITMAP
F3C0
F3C0
F3C0
F3C0
F3C0
F3C0
FFF0
FFF0
F3CC
F3CC
F3CC
F3CC
F3F0
F3F0
ENDCHAR
STARTCHAR afii10060
ENCODING 1035
SWIDTH 1000 0
DWIDTH 16 0
BBX 14 14 0 0
BITMAP
FFC0
FFC0
3C00
3C00
3FF0
3FF0
3C3C
3C3C
3C3C
3C3C
3C3C
3C3C
3C3C
3C3C
ENDCHAR
STARTCHAR afii10061
ENCODING 1036
SWIDTH 1000 0
DWIDTH 16 0
BBX 14 14 0 0
BITMAP
03C0
03C0
FC3C
FC3C
3CF0
3CF0
3FC0
3FC0
3CF0
3CF0
3C3C
3C3C
FC3C
FC3C
ENDCHAR
STARTCHAR uni040D
ENCODING 1037
SWIDTH 1000 0
DWIDTH 16 0
BBX 14 14 0 0
BITMAP
3F00
3F00
0300
0300
F03C
F03C
F0FC
F0FC
F3FC
F3FC
FF3C
FF3C
FC3C
FC3C
ENDCHAR
STARTCHAR afii10062
ENCODING 1038
SWIDTH 1000 0
DWIDTH 16 0
BBX 14 14 0 0
BITMAP
0FC0
0FC0
0000
0000
F03C
F03C
F03C
F03C
3FFC
3FFC
003C
003C
3FF0
3FF0
ENDCHAR
STARTCHAR afii10145
ENCODING 1039
SWIDTH 1000 0
DWIDTH 16 0
BBX 14 16 0 -2
BITMAP
F03C
F03C
F03C
F03C
F03C
F03C
F03C
F03C
F03C
F03C
F03C
F03C
FFFC
FFFC
0300
0300
ENDCHAR
STARTCHAR afii10017
ENCODING 1040
SWIDTH 1000 0
DWIDTH 16 0
BBX 12 14 0 0
BITMAP
0F00
0F00
3FC0
3FC0
F0F0
F0F0
F0F0
F0F0
FFF0
FFF0
F0F0
F0F0
F0F0
F0F0
ENDCHAR
STARTCHAR afii10018
ENCODING 1041
SWIDTH 1000 0
DWIDTH 16 0
BBX 14 14 0 0
BITMAP
FFFC
FFFC
3C3C
3C3C
3C00
3C00
3FF0
3FF0
3C3C
3C3C
3C3C
3C3C
FFF0
FFF0
ENDCHAR
STARTCHAR afii10019
ENCODING 1042
SWIDTH 1000 0
DWIDTH 16 0
BBX 14 14 0 0
BITMAP
FFF0
FFF0
3C3C
3C3C
3C3C
3C3C
3FF0
3FF0
3C3C
3C3C
3C3C
3C3C
FFF0
FFF0
ENDCHAR
STARTCHAR afii10020
ENCODING 1043
SWIDTH 1000 0
DWIDTH 16 0
BBX 14 14 0 0
BITMAP
FFFC
FFFC
3C3C
3C3C
3C0C
3C0C
3C00
3C00
3C00
3C00
3C00
3C00
FF00
FF00
ENDCHAR
STARTCHAR afii10021
ENCODING 1044
SWIDTH 1000 0
DWIDTH 16 0
BBX 16 16 0 -2
BITMAP
03FC
03FC
0F3C
0F3C
3C3C
3C3C
3C3C
3C3C
3C3C
3C3C
3C3C
3C3C
FFFF
FFFF
F00F
F00F
ENDCHAR
STARTCHAR afii10022
ENCODING 1045
SWIDTH 1000 0
DWIDTH 16 0
BBX 14 14 0 0
BITMAP
FFFC
FFFC
3C0C
3C0C
3CC0
3CC0
3FC0
3FC0
3CC0
3CC0
3C0C
3C0C
FFFC
FFFC
ENDCHAR
STARTCHAR afii10024
ENCODING 1046
SWIDTH 1000 0
DWIDTH 16 0
BBX 14 14 0 0
BITMAP
F33C
F33C
F33C
F33C
3FF0
3FF0
0FC0
0FC0
3FF0
3FF0
F33C
F33C
F33C
F33C
ENDCHAR
STARTCHAR afii10025
ENCODING 1047
SWIDTH 1000 0
DWIDTH 16 0
BBX 14 14 0 0
BITMAP
3FF0
3FF0
F03C
F03C
003C
003C
0FF0
0FF0
003C
003C
F03C
F03C
3FF0
3FF0
ENDCHAR
STARTCHAR afii10026
ENCODING 1048
SWIDTH 1000 0
DWIDTH 16 0
BBX 14 14 0 0
BITMAP
F03C
F03C
F03C
F03C
F0FC
F0FC
F3FC
F3FC
FF3C
FF3C
FC3C
FC3C
F03C
F03C
ENDCHAR
STARTCHAR afii10027
ENCODING 1049
SWIDTH 1000 0
DWIDTH 16 0
BBX 14 14 0 0
BITMAP
0FC0
0FC0
F03C
F03C
F0FC
F0FC
F3FC
F3FC
FF3C
FF3C
FC3C
FC3C
F03C
F03C
ENDCHAR
STARTCHAR afii10028
ENCODING 1050
SWIDTH 1000 0
DWIDTH 16 0
BBX 14 14 0 0
BITMAP
FC3C
FC3C
3C3C
3C3C
3CF0
3CF0
3FC0
3FC0
3CF0
3CF0
3C3C
3C3C
FC3C
FC3C
ENDCHAR
STARTCHAR afii10029
ENCODING 1051
SWIDTH 1000 0
DWIDTH 16 0
BBX 14 14 0 0
BITMAP
03FC
03FC
0F3C
0F3C
3C3C
3C3C
3C3C
3C3C
3C3C
3C3C
3C3C
3C3C
F03C
F03C
ENDCHAR
STARTCHAR afii10030
ENCODING 1052
SWIDTH 1000 0
DWIDTH 16 0
BBX 14 14 0 0
BITMAP
F03C
F03C
FCFC
FCFC
FFFC
FFFC
FFFC
FFFC
F33C
F33C
F03C
F03C
F03C
F03C
ENDCHAR
STARTCHAR afii10031
ENCODING 1053
SWIDTH 1000 0
DWIDTH 16 0
BBX 12 14 2 0
BITMAP
F0F0
F0F0
F0F0
F0F0
F0F0
F0F0
FFF0
FFF0
F0F0
F0F0
F0F0
F0F0
F0F0
F0F0
ENDCHAR
STARTCHAR afii10032
ENCODING 1054
SWIDTH 1000 0
DWIDTH 16 0
BBX 14 14 0 0
BITMAP
0FC0
0FC0
3CF0
3CF0
F03C
F03C
F03C
F03C
F03C
F03C
3CF0
3CF0
0FC0
0FC0
ENDCHAR
STARTCHAR afii10033
ENCODING 1055
SWIDTH 1000 0
DWIDTH 16 0
BBX 12 14 2 0
BITMAP
FFF0
FFF0
F0F0
F0F0
F0F0
F0F0
F0F0
F0F0
F0F0
F0F0
F0F0
F0F0
F0F0
F0F0
ENDCHAR
STARTCHAR afii10034
ENCODING 1056
SWIDTH 1000 0
DWIDTH 16 0
BBX 14 14 0 0
BITMAP
FFF0
FFF0
3C3C
3C3C
3C3C
3C3C
3C3C
3C3C
3FF0
3FF0
3C00
3C00
FF00
FF00
ENDCHAR
STARTCHAR afii10035
ENCODING 1057
SWIDTH 1000 0
DWIDTH 16 0
BBX 14 14 0 0
BITMAP
0FF0
0FF0
3C3C
3C3C
F000
F000
F000
F000
F000
F000
3C3C
3C3C
0FF0
0FF0
ENDCHAR
STARTCHAR afii10036
ENCODING 1058
SWIDTH 1000 0
DWIDTH 16 0
BBX 12 14 2 0
BITMAP
FFF0
FFF0
CF30
CF30
0F00
0F00
0F00
0F00
0F00
0F00
0F00
0F00
3FC0
3FC0
ENDCHAR
STARTCHAR afii10037
ENCODING 1059
SWIDTH 1000 0
DWIDTH 16 0
BBX 12 14 2 0
BITMAP
F0F0
F0F0
F0F0
F0F0
F0F0
F0F0
3FF0
3FF0
00F0
00F0
F0F0
F0F0
3FC0
3FC0
ENDCHAR
STARTCHAR afii10038
ENCODING 1060
SWIDTH 1000 0
DWIDTH 16 0
BBX 14 14 0 0
BITMAP
3FF0
3FF0
F33C
F33C
F33C
F33C
F33C
F33C
3FF0
3FF0
0300
0300
0FC0
0FC0
ENDCHAR
STARTCHAR afii10039
ENCODING 1061
SWIDTH 1000 0
DWIDTH 16 0
BBX 14 14 0 0
BITMAP
F03C
F03C
F03C
F03C
3CF0
3CF0
0FC0
0FC0
0FC0
0FC0
3CF0
3CF0
F03C
F03C
ENDCHAR
STARTCHAR afii10040
ENCODING 1062
SWIDTH 1000 0
DWIDTH 16 0
BBX 14 16 0 -2
BITMAP
F0F0
F0F0
F0F0
F0F0
F0F0
F0F0
F0F0
F0F0
F0F0
F0F0
F0F0
F0F0
FFFC
FFFC
003C
003C
ENDCHAR
STARTCHAR afii10041
ENCODING 1063
SWIDTH 1000 0
DWIDTH 16 0
BBX 12 14 2 0
BITMAP
F0F0
F0F0
F0F0
F0F0
F0F0
F0F0
3FF0
3FF0
00F0
00F0
00F0
00F0
00F0
00F0
ENDCHAR
STARTCHAR afii10042
ENCODING 1064
SWIDTH 1000 0
DWIDTH 16 0
BBX 14 14 0 0
BITMAP
F33C
F33C
F33C
F33C
F33C
F33C
F33C
F33C
F33C
F33C
F33C
F33C
FFFC
FFFC
ENDCHAR
STARTCHAR afii10043
ENCODING 1065
SWIDTH 1000 0
DWIDTH 16 0
BBX 16 16 0 -2
BITMAP
F33C
F33C
F33C
F33C
F33C
F33C
F33C
F33C
F33C
F33C
F33C
F33C
FFFF
FFFF
000F
000F
ENDCHAR
STARTCHAR afii10044
ENCODING 1066
SWIDTH 1000 0
DWIDTH 16 0
BBX 14 14 0 0
BITMAP
FF00
FF00
CF00
CF00
CF00
CF00
0FF0
0FF0
0F3C
0F3C
0F3C
0F3C
0FF0
0FF0
ENDCHAR
STARTCHAR afii10045
ENCODING 1067
SWIDTH 1000 0
DWIDTH 16 0
BBX 14 14 0 0
BITMAP
F03C
F03C
F03C
F03C
F03C
F03C
FF3C
FF3C
F3FC
F3FC
F3FC
F3FC
FF3C
FF3C
ENDCHAR
STARTCHAR afii10046
ENCODING 1068
SWIDTH 1000 0
DWIDTH 16 0
BBX 14 14 0 0
BITMAP
FF00
FF00
3C00
3C00
3C00
3C00
3FF0
3FF0
3C3C
3C3C
3C3C
3C3C
3FF0
3FF0
ENDCHAR
STARTCHAR afii10047
ENCODING 1069
SWIDTH 1000 0
DWIDTH 16 0
BBX 14 14 0 0
BITMAP
3FC0
3FC0
C0F0
C0F0
003C
003C
0FFC
0FFC
003C
003C
C0F0
C0F0
3FC0
3FC0
ENDCHAR
STARTCHAR afii10048
ENCODING 1070
SWIDTH 1000 0
DWIDTH 16 0
BBX 14 14 0 0
BITMAP
F0F0
F0F0
F33C
F33C
F33C
F33C
FF3C
FF3C
F33C
F33C
F33C
F33C
F0F0
F0F0
ENDCHAR
STARTCHAR afii10049
ENCODING 1071
SWIDTH 1000 0
DWIDTH 16 0
BBX 12 14 2 0
BITMAP
3FF0
3FF0
F0F0
F0F0
F0F0
F0F0
F0F0
F0F0
3FF0
3FF0
3CF0
3CF0
F0F0
F0F0
ENDCHAR
STARTCHAR afii10065
ENCODING 1072
SWIDTH 1000 0
DWIDTH 16 0
BBX 14 10 0 0
BITMAP
3FC0
3FC0
00F0
00F0
3FF0
3FF0
F0F0
F0F0
3F3C
3F3C
ENDCHAR
STARTCHAR afii10066
ENCODING 1073
SWIDTH 1000 0
DWIDTH 16 0
BBX 12 14 2 0
BITMAP
00F0
00F0
3FC0
3FC0
F000
F000
3FC0
3FC0
F0F0
F0F0
F0F0
F0F0
3FC0
3FC0
ENDCHAR
STARTCHAR afii10067
ENCODING 1074
SWIDTH 1000 0
DWIDTH 16 0
BBX 14 10 0 0
BITMAP
FFF0
FFF0
3C3C
3C3C
3FF0
3FF0
3C3C
3C3C
FFF0
FFF0
ENDCHAR
STARTCHAR afii10068
ENCODING 1075
SWIDTH 1000 0
DWIDTH 16 0
BBX 14 10 0 0
BITMAP
FFFC
FFFC
3C3C
3C3C
3C00
3C00
3C00
3C00
FF00
FF00
ENDCHAR
STARTCHAR afii10069
ENCODING 1076
SWIDTH 1000 0
DWIDTH 16 0
BBX 14 12 0 -2
BITMAP
0FF0
0FF0
3CF0
3CF0
3CF0
3CF0
3CF0
3CF0
FFFC
FFFC
F03C
F03C
ENDCHAR
STARTCHAR afii10070
ENCODING 1077
SWIDTH 1000 0
DWIDTH 16 0
BBX 12 10 2 0
BITMAP
3FC0
3FC0
F0F0
F0F0
FFF0
FFF0
F000
F000
3FC0
3FC0
ENDCHAR
STARTCHAR afii10072
ENCODING 1078
SWIDTH 1000 0
DWIDTH 16 0
BBX 14 10 0 0
BITMAP
F33C
F33C
3FF0
3FF0
0FC0
0FC0
3FF0
3FF0
F33C
F33C
ENDCHAR
STARTCHAR afii10073
ENCODING 1079
SWIDTH 1000 0
DWIDTH 16 0
BBX 14 10 0 0
BITMAP
3FF0
3FF0
F03C
F03C
03F0
03F0
F03C
F03C
3FF0
3FF0
ENDCHAR
STARTCHAR afii10074
ENCODING 1080
SWIDTH 1000 0
DWIDTH 16 0
BBX 14 10 0 0
BITMAP
F03C
F03C
F0FC
F0FC
F3FC
F3FC
FF3C
FF3C
FC3C
FC3C
ENDCHAR
STARTCHAR afii10075
ENCODING 1081
SWIDTH 1000 0
DWIDTH 16 0
BBX 14 14 0 0
BITMAP
3CF0
3CF0
0FC0
0FC0
F03C
F03C
F0FC
F0FC
F3FC
F3FC
FF3C
FF3C
FC3C
FC3C
ENDCHAR
STARTCHAR afii10076
ENCODING 1082
SWIDTH 1000 0
DWIDTH 16 0
BBX 14 10 0 0
BITMAP
FC3C
FC3C
3CF0
3CF0
3FC0
3FC0
3CF0
3CF0
FC3C
FC3C
ENDCHAR
STARTCHAR afii10077
ENCODING 1083
SWIDTH 1000 0
DWIDTH 16 0
BBX 14 10 0 0
BITMAP
0FFC
0FFC
3C3C
3C3C
3C3C
3C3C
3C3C
3C3C
FC3C
FC3C
ENDCHAR
STARTCHAR afii10078
ENCODING 1084
SWIDTH 1000 0
DWIDTH 16 0
BBX 14 10 0 0
BITMAP
F03C
F03C
FFFC
FFFC
FFFC
FFFC
F33C
F33C
F03C
F03C
ENDCHAR
STARTCHAR afii10079
ENCODING 1085
SWIDTH 1000 0
DWIDTH 16 0
BBX 12 10 2 0
BITMAP
F0F0
F0F0
F0F0
F0F0
FFF0
FFF0
F0F0
F0F0
F0F0
F0F0
ENDCHAR
STARTCHAR afii10080
ENCODING 1086
SWIDTH 1000 0
DWIDTH 16 0
BBX 12 10 2 0
BITMAP
3FC0
3FC0
F0F0
F0F0
F0F0
F0F0
F0F0
F0F0
3FC0
3FC0
ENDCHAR
STARTCHAR afii10081
ENCODING 1087
SWIDTH 1000 0
DWIDTH 16 0
BBX 12 10 2 0
BITMAP
FFF0
FFF0
F0F0
F0F0
F0F0
F0F0
F0F0
F0F0
F0F0
F0F0
ENDCHAR
STARTCHAR afii10082
ENCODING 1088
SWIDTH 1000 0
DWIDTH 16 0
BBX 14 12 0 -2
BITMAP
FFF0
FFF0
3C3C
3C3C
3C3C
3C3C
3FF0
3FF0
3C00
3C00
FF00
FF00
ENDCHAR
STARTCHAR afii10083
ENCODING 1089
SWIDTH 1000 0
DWIDTH 16 0
BBX 12 10 2 0
BITMAP
3FC0
3FC0
F0F0
F0F0
F000
F000
F0F0
F0F0
3FC0
3FC0
ENDCHAR
STARTCHAR afii10084
ENCODING 1090
SWIDTH 1000 0
DWIDTH 16 0
BBX 12 10 2 0
BITMAP
FFF0
FFF0
CF30
CF30
0F00
0F00
0F00
0F00
3FC0
3FC0
ENDCHAR
STARTCHAR afii10085
ENCODING 1091
SWIDTH 1000 0
DWIDTH 16 0
BBX 12 12 2 -2
BITMAP
F0F0
F0F0
F0F0
F0F0
F0F0
F0F0
3FF0
3FF0
00F0
00F0
FFC0
FFC0
ENDCHAR
STARTCHAR afii10086
ENCODING 1092
SWIDTH 1000 0
DWIDTH 16 0
BBX 14 12 0 -2
BITMAP
3FF0
3FF0
F33C
F33C
F33C
F33C
3FF0
3FF0
0300
0300
0FC0
0FC0
ENDCHAR
STARTCHAR afii10087
ENCODING 1093
SWIDTH 1000 0
DWIDTH 16 0
BBX 14 10 0 0
BITMAP
F03C
F03C
3CF0
3CF0
0FC0
0FC0
3CF0
3CF0
F03C
F03C
ENDCHAR
STARTCHAR afii10088
ENCODING 1094
SWIDTH 1000 0
DWIDTH 16 0
BBX 14 12 0 -2
BITMAP
F0F0
F0F0
F0F0
F0F0
F0F0
F0F0
F0F0
F0F0
FFFC
FFFC
003C
003C
ENDCHAR
STARTCHAR afii10089
ENCODING 1095
SWIDTH 1000 0
DWIDTH 16 0
BBX 12 10 2 0
BITMAP
F0F0
F0F0
F0F0
F0F0
3FF0
3FF0
00F0
00F0
00F0
00F0
ENDCHAR
STARTCHAR afii10090
ENCODING 1096
SWIDTH 1000 0
DWIDTH 16 0
BBX 14 10 0 0
BITMAP
F33C
F33C
F33C
F33C
F33C
F33C
F33C
F33C
FFFC
FFFC
ENDCHAR
STARTCHAR afii10091
ENCODING 1097
SWIDTH 1000 0
DWIDTH 16 0
BBX 16 12 0 -2
BITMAP
F33C
F33C
F33C
F33C
F33C
F33C
F33C
F33C
FFFF
FFFF
000F
000F
ENDCHAR
STARTCHAR afii10092
ENCODING 1098
SWIDTH 1000 0
DWIDTH 16 0
BBX 14 10 0 0
BITMAP
FF00
FF00
CF00
CF00
0FF0
0FF0
0F3C
0F3C
0FF0
0FF0
ENDCHAR
STARTCHAR afii10093
ENCODING 1099
SWIDTH 1000 0
DWIDTH 16 0
BBX 14 10 0 0
BITMAP
F03C
F03C
F03C
F03C
FF3C
FF3C
F3FC
F3FC
FF3C
FF3C
ENDCHAR
STARTCHAR afii10094
ENCODING 1100
SWIDTH 1000 0
DWIDTH 16 0
BBX 14 10 0 0
BITMAP
FF00
FF00
3C00
3C00
3FF0
3FF0
3C3C
3C3C
FFF0
FFF0
ENDCHAR
STARTCHAR afii10095
ENCODING 1101
SWIDTH 1000 0
DWIDTH 16 0
BBX 14 10 0 0
BITMAP
3FF0
3FF0
F03C
F03C
03FC
03FC
F03C
F03C
3FF0
3FF0
ENDCHAR
STARTCHAR afii10096
ENCODING 1102
SWIDTH 1000 0
DWIDTH 16 0
BBX 14 10 0 0
BITMAP
F0F0
F0F0
F33C
F33C
FF3C
FF3C
F33C
F33C
F0F0
F0F0
ENDCHAR
STARTCHAR afii10097
ENCODING 1103
SWIDTH 1000 0
DWIDTH 16 0
BBX 12 10 2 0
BITMAP
3FF0
3FF0
F0F0
F0F0
3FF0
3FF0
3CF0
3CF0
F0F0
F0F0
ENDCHAR
STARTCHAR uni0450
ENCODING 1104
SWIDTH 1000 0
DWIDTH 16 0
BBX 12 14 2 0
BITMAP
FC00
FC00
0000
0000
3FC0
3FC0
F0F0
F0F0
FFF0
FFF0
F000
F000
3FC0
3FC0
ENDCHAR
STARTCHAR afii10071
ENCODING 1105
SWIDTH 1000 0
DWIDTH 16 0
BBX 12 14 2 0
BITMAP
F0F0
F0F0
0000
0000
3FC0
3FC0
F0F0
F0F0
FFF0
FFF0
F000
F000
3FC0
3FC0
ENDCHAR
STARTCHAR afii10099
ENCODING 1106
SWIDTH 1000 0
DWIDTH 16 0
BBX 14 16 0 -2
BITMAP
3C00
3C00
FF00
FF00
3C00
3C00
3FF0
3FF0
3C3C
3C3C
3C3C
3C3C
3C3C
3C3C
00F0
00F0
ENDCHAR
STARTCHAR afii10100
ENCODING 1107
SWIDTH 1000 0
DWIDTH 16 0
BBX 12 14 2 0
BITMAP
0FC0
0FC0
0C00
0C00
0000
0000
FFF0
FFF0
F000
F000
F000
F000
F000
F000
ENDCHAR
STARTCHAR afii10101
ENCODING 1108
SWIDTH 1000 0
DWIDTH 16 0
BBX 14 10 0 0
BITMAP
3FF0
3FF0
F03C
F03C
FF00
FF00
F03C
F03C
3FF0
3FF0
ENDCHAR
STARTCHAR afii10102
ENCODING 1109
SWIDTH 1000 0
DWIDTH 16 0
BBX 12 10 2 0
BITMAP
3FF0
3FF0
F000
F000
3FC0
3FC0
00F0
00F0
FFC0
FFC0
ENDCHAR
STARTCHAR afii10103
ENCODING 1110
SWIDTH 1000 0
DWIDTH 16 0
BBX 8 14 4 0
BITMAP
3C
3C
00
00
FC
FC
3C
3C
3C
3C
3C
3C
FF
FF
ENDCHAR
STARTCHAR afii10104
ENCODING 1111
SWIDTH 1000 0
DWIDTH 16 0
BBX 12 14 2 0
BITMAP
F0F0
F0F0
0000
0000
3F00
3F00
0F00
0F00
0F00
0F00
0F00
0F00
3FC0
3FC0
ENDCHAR
STARTCHAR afii10105
ENCODING 1112
SWIDTH 1000 0
DWIDTH 16 0
BBX 12 16 2 -2
BITMAP
00F0
00F0
0000
0000
00F0
00F0
00F0
00F0
00F0
00F0
F0F0
F0F0
F0F0
F0F0
3FC0
3FC0
ENDCHAR
STARTCHAR afii10106
ENCODING 1113
SWIDTH 1000 0
DWIDTH 16 0
BBX 14 10 0 0
BITMAP
FFC0
FFC0
33C0
33C0
33F0
33F0
33CC
33CC
F3F0
F3F0
ENDCHAR
STARTCHAR afii10107
ENCODING 1114
SWIDTH 1000 0
DWIDTH 16 0
BBX 14 10 0 0
BITMAP
F3C0
F3C0
F3C0
F3C0
FFF0
FFF0
F3CC
F3CC
F3F0
F3F0
ENDCHAR
STARTCHAR afii10108
ENCODING 1115
SWIDTH 1000 0
DWIDTH 16 0
BBX 14 14 0 0
BITMAP
3C00
3C00
FF00
FF00
3C00
3C00
3FF0
3FF0
3C3C
3C3C
3C3C
3C3C
3C3C
3C3C
ENDCHAR
STARTCHAR afii10109
ENCODING 1116
SWIDTH 1000 0
DWIDTH 16 0
BBX 14 14 0 0
BITMAP
03F0
03F0
0300
0300
FC3C
FC3C
3CF0
3CF0
3FC0
3FC0
3CF0
3CF0
FC3C
FC3C
ENDCHAR
STARTCHAR uni045D
ENCODING 1117
SWIDTH 1000 0
DWIDTH 16 0
BBX 12 14 2 0
BITMAP
3F00
3F00
0300
0300
0000
0000
F0F0
F0F0
F3F0
F3F0
FFF0
FFF0
FCF0
FCF0
ENDCHAR
STARTCHAR afii10110
ENCODING 1118
SWIDTH 1000 0
DWIDTH 16 0
BBX 14 16 0 -2
BITMAP
3CF0
3CF0
0FC0
0FC0
F03C
F03C
F03C
F03C
F03C
F03C
3FFC
3FFC
003C
003C
3FF0
3FF0
ENDCHAR
STARTCHAR afii10193
ENCODING 1119
SWIDTH 1000 0
DWIDTH 16 0
BBX 14 12 0 -2
BITMAP
F03C
F03C
F03C
F03C
F03C
F03C
F03C
F03C
FFFC
FFFC
0300
0300
ENDCHAR
STARTCHAR afii10050
ENCODING 1168
SWIDTH 1000 0
DWIDTH 16 0
BBX 14 14 0 0
BITMAP
003C
003C
FFFC
FFFC
3C00
3C00
3C00
3C00
3C00
3C00
3C00
3C00
FF00
FF00
ENDCHAR
STARTCHAR afii10098
ENCODING 1169
SWIDTH 1000 0
DWIDTH 16 0
BBX 14 12 0 0
BITMAP
003C
003C
FFFC
FFFC
3C00
3C00
3C00
3C00
3C00
3C00
FF00
FF00
ENDCHAR
STARTCHAR afii57645
ENCODING 1470
SWIDTH 1000 0
DWIDTH 16 0
BBX 12 2 2 10
BITMAP
FFF0
FFF0
ENDCHAR
STARTCHAR afii57664
ENCODING 1488
SWIDTH 1000 0
DWIDTH 16 0
BBX 14 12 0 0
BITMAP
F03C
F03C
3C3C
3C3C
3F3C
3F3C
F3F0
F3F0
F0F0
F0F0
F03C
F03C
ENDCHAR
STARTCHAR afii57665
ENCODING 1489
SWIDTH 1000 0
DWIDTH 16 0
BBX 14 12 0 0
BITMAP
FFC0
FFC0
00F0
00F0
00F0
00F0
00F0
00F0
00F0
00F0
FFFC
FFFC
ENDCHAR
STARTCHAR afii57666
ENCODING 1490
SWIDTH 1000 0
DWIDTH 16 0
BBX 14 12 0 0
BITMAP
0FC0
0FC0
00F0
00F0
00F0
00F0
03F0
03F0
0F30
0F30
FC3C
FC3C
ENDCHAR
STARTCHAR afii57667
ENCODING 1491
SWIDTH 1000 0
DWIDTH 16 0
BBX 14 12 0 0
BITMAP
FFFC
FFFC
00F0
00F0
00F0
00F0
00F0
00F0
00F0
00F0
00F0
00F0
ENDCHAR
STARTCHAR afii57668
ENCODING 1492
SWIDTH 1000 0
DWIDTH 16 0
BBX 14 12 0 0
BITMAP
FFF0
FFF0
003C
003C
003C
003C
F03C
F03C
F03C
F03C
F03C
F03C
ENDCHAR
STARTCHAR afii57669
ENCODING 1493
SWIDTH 1000 0
DWIDTH 16 0
BBX 8 12 2 0
BITMAP
FC
FC
0F
0F
0F
0F
0F
0F
0F
0F
0F
0F
ENDCHAR
STARTCHAR afii57670
ENCODING 1494
SWIDTH 1000 0
DWIDTH 16 0
BBX 8 12 4 0
BITMAP
FF
FF
3C
3C
3C
3C
0F
0F
3C
3C
F0
F0
ENDCHAR
STARTCHAR afii57671
ENCODING 1495
SWIDTH 1000 0
DWIDTH 16 0
BBX 14 12 0 0
BITMAP
FFF0
FFF0
3C3C
3C3C
F03C
F03C
F03C
F03C
F03C
F03C
F03C
F03C
ENDCHAR
STARTCHAR afii57672
ENCODING 1496
SWIDTH 1000 0
DWIDTH 16 0
BBX 14 12 0 0
BITMAP
F0F0
F0F0
F33C
F33C
F33C
F33C
F03C
F03C
F0F0
F0F0
3FC0
3FC0
ENDCHAR
STARTCHAR afii57673
ENCODING 1497
SWIDTH 1000 0
DWIDTH 16 0
BBX 8 8 4 4
BITMAP
FC
FC
0F
0F
0F
0F
3C
3C
ENDCHAR
STARTCHAR afii57674
ENCODING 1498
SWIDTH 1000 0
DWIDTH 16 0
BBX 14 14 0 -2
BITMAP
FFF0
FFF0
003C
003C
003C
003C
00F0
00F0
00F0
00F0
00F0
00F0
00FC
00FC
ENDCHAR
STARTCHAR afii57675
ENCODING 1499
SWIDTH 1000 0
DWIDTH 16 0
BBX 14 12 0 0
BITMAP
FFF0
FFF0
003C
003C
003C
003C
003C
003C
003C
003C
FFF0
FFF0
ENDCHAR
STARTCHAR afii57676
ENCODING 1500
SWIDTH 1000 0
DWIDTH 16 0
BBX 14 14 0 0
BITMAP
F000
F000
FFF0
FFF0
003C
003C
003C
003C
00F0
00F0
03C0
03C0
03C0
03C0
ENDCHAR
STARTCHAR afii57677
ENCODING 1501
SWIDTH 1000 0
DWIDTH 16 0
BBX 14 12 0 0
BITMAP
FFF0
FFF0
3C3C
3C3C
F03C
F03C
F03C
F03C
F03C
F03C
FFFC
FFFC
ENDCHAR
STARTCHAR afii57678
ENCODING 1502
SWIDTH 1000 0
DWIDTH 16 0
BBX 14 12 0 0
BITMAP
F3F0
F3F0
3F3C
3F3C
3C3C
3C3C
F03C
F03C
F03C
F03C
F3FC
F3FC
ENDCHAR
STARTCHAR afii57679
ENCODING 1503
SWIDTH 1000 0
DWIDTH 16 0
BBX 8 14 4 -2
BITMAP
FC
FC
0F
0F
3C
3C
3C
3C
3C
3C
3C
3C
3F
3F
ENDCHAR
STARTCHAR afii57680
ENCODING 1504
SWIDTH 1000 0
DWIDTH 16 0
BBX 10 12 2 0
BITMAP
3F00
3F00
03C0
03C0
03C0
03C0
03C0
03C0
03C0
03C0
FFC0
FFC0
ENDCHAR
STARTCHAR afii57681
ENCODING 1505
SWIDTH 1000 0
DWIDTH 16 0
BBX 14 12 0 0
BITMAP
FFF0
FFF0
3C3C
3C3C
F03C
F03C
F03C
F03C
F0F0
F0F0
3FC0
3FC0
ENDCHAR
STARTCHAR afii57682
ENCODING 1506
SWIDTH 1000 0
DWIDTH 16 0
BBX 14 12 0 0
BITMAP
3C3C
3C3C
3C3C
3C3C
3C3C
3C3C
3C3C
3C3C
0F3C
0F3C
FFF0
FFF0
ENDCHAR
STARTCHAR afii57683
ENCODING 1507
SWIDTH 1000 0
DWIDTH 16 0
BBX 14 14 0 -2
BITMAP
FFC0
FFC0
30F0
30F0
F0F0
F0F0
FCF0
FCF0
00F0
00F0
00F0
00F0
00FC
00FC
ENDCHAR
STARTCHAR afii57684
ENCODING 1508
SWIDTH 1000 0
DWIDTH 16 0
BBX 14 12 0 0
BITMAP
FFF0
FFF0
303C
303C
F03C
F03C
FC3C
FC3C
003C
003C
FFFC
FFFC
ENDCHAR
STARTCHAR afii57685
ENCODING 1509
SWIDTH 1000 0
DWIDTH 16 0
BBX 12 14 2 -2
BITMAP
F0F0
F0F0
F0F0
F0F0
F0F0
F0F0
FFC0
FFC0
F000
F000
F000
F000
FC00
FC00
ENDCHAR
STARTCHAR afii57686
ENCODING 1510
SWIDTH 1000 0
DWIDTH 16 0
BBX 12 12 2 0
BITMAP
F0F0
F0F0
3CF0
3CF0
0FC0
0FC0
03C0
03C0
00F0
00F0
FFF0
FFF0
ENDCHAR
STARTCHAR afii57687
ENCODING 1511
SWIDTH 1000 0
DWIDTH 16 0
BBX 14 14 0 -2
BITMAP
FFF0
FFF0
003C
003C
3C3C
3C3C
3CF0
3CF0
3CFC
3CFC
3C00
3C00
3C00
3C00
ENDCHAR
STARTCHAR afii57688
ENCODING 1512
SWIDTH 1000 0
DWIDTH 16 0
BBX 14 12 0 0
BITMAP
FFF0
FFF0
003C
003C
003C
003C
003C
003C
003C
003C
003C
003C
ENDCHAR
STARTCHAR afii57689
ENCODING 1513
SWIDTH 1000 0
DWIDTH 16 0
BBX 14 12 0 0
BITMAP
F33C
F33C
F33C
F33C
F33C
F33C
FF3C
FF3C
F03C
F03C
3FF0
3FF0
ENDCHAR
STARTCHAR afii57690
ENCODING 1514
SWIDTH 1000 0
DWIDTH 16 0
BBX 14 12 0 0
BITMAP
FFF0
FFF0
3C3C
3C3C
3C3C
3C3C
3C3C
3C3C
FC3C
FC3C
FC3C
FC3C
ENDCHAR
STARTCHAR afii57716
ENCODING 1520
SWIDTH 1000 0
DWIDTH 16 0
BBX 14 12 0 0
BITMAP
F0F0
F0F0
3C3C
3C3C
3C3C
3C3C
3C3C
3C3C
3C3C
3C3C
3C3C
3C3C
ENDCHAR
STARTCHAR afii57717
ENCODING 1521
SWIDTH 1000 0
DWIDTH 16 0
BBX 14 12 0 0
BITMAP
F0F0
F0F0
3C3C
3C3C
3C3C
3C3C
003C
003C
003C
003C
003C
003C
ENDCHAR
STARTCHAR afii57718
ENCODING 1522
SWIDTH 1000 0
DWIDTH 16 0
BBX 14 6 0 6
BITMAP
F0F0
F0F0
3C3C
3C3C
3C3C
3C3C
ENDCHAR
STARTCHAR uni05F3
ENCODING 1523
SWIDTH 1000 0
DWIDTH 16 0
BBX 6 6 4 8
BITMAP
3C
3C
3C
3C
F0
F0
ENDCHAR
STARTCHAR uni05F4
ENCODING 1524
SWIDTH 1000 0
DWIDTH 16 0
BBX 14 6 0 8
BITMAP
3C3C
3C3C
3C3C
3C3C
F0F0
F0F0
ENDCHAR
STARTCHAR uni1D1B
ENCODING 7451
SWIDTH 1000 0
DWIDTH 16 0
BBX 14 12 0 0
BITMAP
3F3C
3F3C
F3F0
F3F0
03C0
03C0
03C0
03C0
03C0
03C0
03C0
03C0
ENDCHAR
STARTCHAR uni1D26
ENCODING 7462
SWIDTH 1000 0
DWIDTH 16 0
BBX 12 12 0 0
BITMAP
FFF0
FFF0
F0F0
F0F0
F000
F000
F000
F000
F000
F000
F000
F000
ENDCHAR
STARTCHAR uni1D28
ENCODING 7464
SWIDTH 1000 0
DWIDTH 16 0
BBX 14 12 0 0
BITMAP
FFFC
FFFC
3CF0
3CF0
3CF0
3CF0
3CF0
3CF0
3CF0
3CF0
3CF0
3CF0
ENDCHAR
STARTCHAR Wgrave
ENCODING 7808
SWIDTH 1000 0
DWIDTH 16 0
BBX 14 14 0 0
BITMAP
FC00
FC00
0000
0000
F03C
F03C
F33C
F33C
FFFC
FFFC
FCFC
FCFC
F03C
F03C
ENDCHAR
STARTCHAR wgrave
ENCODING 7809
SWIDTH 1000 0
DWIDTH 16 0
BBX 14 14 0 0
BITMAP
FC00
FC00
0000
0000
F03C
F03C
F33C
F33C
FFFC
FFFC
FFFC
FFFC
3CF0
3CF0
ENDCHAR
STARTCHAR Wacute
ENCODING 7810
SWIDTH 1000 0
DWIDTH 16 0
BBX 14 14 0 0
BITMAP
00FC
00FC
0000
0000
F03C
F03C
F33C
F33C
FFFC
FFFC
FCFC
FCFC
F03C
F03C
ENDCHAR
STARTCHAR wacute
ENCODING 7811
SWIDTH 1000 0
DWIDTH 16 0
BBX 14 14 0 0
BITMAP
00FC
00FC
0000
0000
F03C
F03C
F33C
F33C
FFFC
FFFC
FFFC
FFFC
3CF0
3CF0
ENDCHAR
STARTCHAR Wdieresis
ENCODING 7812
SWIDTH 1000 0
DWIDTH 16 0
BBX 14 14 0 0
BITMAP
F03C
F03C
0000
0000
F03C
F03C
F33C
F33C
FFFC
FFFC
FCFC
FCFC
F03C
F03C
ENDCHAR
STARTCHAR wdieresis
ENCODING 7813
SWIDTH 1000 0
DWIDTH 16 0
BBX 14 14 0 0
BITMAP
F03C
F03C
0000
0000
F03C
F03C
F33C
F33C
FFFC
FFFC
FFFC
FFFC
3CF0
3CF0
ENDCHAR
STARTCHAR uni1E9F
ENCODING 7839
SWIDTH 1000 0
DWIDTH 16 0
BBX 12 14 0 0
BITMAP
03F0
03F0
0F00
0F00
03C0
03C0
3FF0
3FF0
F0F0
F0F0
F0F0
F0F0
3FC0
3FC0
ENDCHAR
STARTCHAR Ygrave
ENCODING 7922
SWIDTH 1000 0
DWIDTH 16 0
BBX 12 14 0 0
BITMAP
FC00
FC00
0000
0000
F0F0
F0F0
F0F0
F0F0
3FC0
3FC0
0F00
0F00
3FC0
3FC0
ENDCHAR
STARTCHAR ygrave
ENCODING 7923
SWIDTH 1000 0
DWIDTH 16 0
BBX 12 14 0 -2
BITMAP
FC00
FC00
0000
0000
F0F0
F0F0
F0F0
F0F0
3FF0
3FF0
00F0
00F0
FFC0
FFC0
ENDCHAR
STARTCHAR uni2010
ENCODING 8208
SWIDTH 1000 0
DWIDTH 16 0
BBX 12 2 0 6
BITMAP
FFF0
FFF0
ENDCHAR
STARTCHAR figuredash
ENCODING 8210
SWIDTH 1000 0
DWIDTH 16 0
BBX 10 2 2 6
BITMAP
FFC0
FFC0
ENDCHAR
STARTCHAR endash
ENCODING 8211
SWIDTH 1000 0
DWIDTH 16 0
BBX 10 2 2 6
BITMAP
FFC0
FFC0
ENDCHAR
STARTCHAR emdash
ENCODING 8212
SWIDTH 1000 0
DWIDTH 16 0
BBX 16 2 0 6
BITMAP
FFFF
FFFF
ENDCHAR
STARTCHAR afii00208
ENCODING 8213
SWIDTH 1000 0
DWIDTH 16 0
BBX 16 2 0 6
BITMAP
FFFF
FFFF
ENDCHAR
STARTCHAR underscoredbl
ENCODING 8215
SWIDTH 1000 0
DWIDTH 16 0
BBX 16 6 0 -2
BITMAP
FFFF
FFFF
0000
0000
FFFF
FFFF
ENDCHAR
STARTCHAR quoteleft
ENCODING 8216
SWIDTH 1000 0
DWIDTH 16 0
BBX 6 6 4 8
BITMAP
3C
3C
F0
F0
F0
F0
ENDCHAR
STARTCHAR quoteright
ENCODING 8217
SWIDTH 1000 0
DWIDTH 16 0
BBX 6 6 2 8
BITMAP
3C
3C
3C
3C
F0
F0
ENDCHAR
STARTCHAR quotesinglbase
ENCODING 8218
SWIDTH 1000 0
DWIDTH 16 0
BBX 6 6 2 -2
BITMAP
3C
3C
3C
3C
F0
F0
ENDCHAR
STARTCHAR quotereversed
ENCODING 8219
SWIDTH 1000 0
DWIDTH 16 0
BBX 6 6 4 8
BITMAP
F0
F0
F0
F0
3C
3C
ENDCHAR
STARTCHAR quotedblleft
ENCODING 8220
SWIDTH 1000 0
DWIDTH 16 0
BBX 14 6 0 8
BITMAP
3C3C
3C3C
F0F0
F0F0
F0F0
F0F0
ENDCHAR
STARTCHAR quotedblright
ENCODING 8221
SWIDTH 1000 0
DWIDTH 16 0
BBX 14 6 0 8
BITMAP
3C3C
3C3C
3C3C
3C3C
F0F0
F0F0
ENDCHAR
STARTCHAR quotedblbase
ENCODING 8222
SWIDTH 1000 0
DWIDTH 16 0
BBX 14 6 0 -2
BITMAP
3C3C
3C3C
3C3C
3C3C
F0F0
F0F0
ENDCHAR
STARTCHAR uni201F
ENCODING 8223
SWIDTH 1000 0
DWIDTH 16 0
BBX 14 6 0 8
BITMAP
F0F0
F0F0
F0F0
F0F0
3C3C
3C3C
ENDCHAR
STARTCHAR dagger
ENCODING 8224
SWIDTH 1000 0
DWIDTH 16 0
BBX 12 16 0 -2
BITMAP
0F00
0F00
0F00
0F00
FFF0
FFF0
0F00
0F00
0F00
0F00
0F00
0F00
0F00
0F00
0F00
0F00
ENDCHAR
STARTCHAR daggerdbl
ENCODING 8225
SWIDTH 1000 0
DWIDTH 16 0
BBX 12 16 0 -2
BITMAP
0F00
0F00
0F00
0F00
FFF0
FFF0
0F00
0F00
0F00
0F00
FFF0
FFF0
0F00
0F00
0F00
0F00
ENDCHAR
STARTCHAR bullet
ENCODING 8226
SWIDTH 1000 0
DWIDTH 16 0
BBX 8 8 4 2
BITMAP
3C
3C
FF
FF
FF
FF
3C
3C
ENDCHAR
STARTCHAR ellipsis
ENCODING 8230
SWIDTH 1000 0
DWIDTH 16 0
BBX 16 4 0 0
BITMAP
F3CF
F3CF
F3CF
F3CF
ENDCHAR
STARTCHAR uni2027
ENCODING 8231
SWIDTH 1000 0
DWIDTH 16 0
BBX 4 4 6 4
BITMAP
F0
F0
F0
F0
ENDCHAR
STARTCHAR perthousand
ENCODING 8240
SWIDTH 1000 0
DWIDTH 16 0
BBX 16 12 0 0
BITMAP
F0F0
F0F0
F3C0
F3C0
0F00
0F00
3C00
3C00
F3CF
F3CF
C3CF
C3CF
ENDCHAR
STARTCHAR minute
ENCODING 8242
SWIDTH 1000 0
DWIDTH 16 0
BBX 8 6 2 8
BITMAP
0F
0F
3C
3C
F0
F0
ENDCHAR
STARTCHAR second
ENCODING 8243
SWIDTH 1000 0
DWIDTH 16 0
BBX 14 6 0 8
BITMAP
0F3C
0F3C
3CF0
3CF0
F3C0
F3C0
ENDCHAR
STARTCHAR uni2035
ENCODING 8245
SWIDTH 1000 0
DWIDTH 16 0
BBX 8 6 2 8
BITMAP
F0
F0
3C
3C
0F
0F
ENDCHAR
STARTCHAR guilsinglleft
ENCODING 8249
SWIDTH 1000 0
DWIDTH 16 0
BBX 8 10 2 2
BITMAP
0F
0F
3C
3C
F0
F0
3C
3C
0F
0F
ENDCHAR
STARTCHAR guilsinglright
ENCODING 8250
SWIDTH 1000 0
DWIDTH 16 0
BBX 8 10 2 2
BITMAP
F0
F0
3C
3C
0F
0F
3C
3C
F0
F0
ENDCHAR
STARTCHAR exclamdbl
ENCODING 8252
SWIDTH 1000 0
DWIDTH 16 0
BBX 12 14 2 0
BITMAP
F0F0
F0F0
F0F0
F0F0
F0F0
F0F0
F0F0
F0F0
F0F0
F0F0
0000
0000
F0F0
F0F0
ENDCHAR
STARTCHAR uni203E
ENCODING 8254
SWIDTH 1000 0
DWIDTH 16 0
BBX 16 2 0 12
BITMAP
FFFF
FFFF
ENDCHAR
STARTCHAR uni203F
ENCODING 8255
SWIDTH 1000 0
DWIDTH 16 0
BBX 14 4 0 -2
BITMAP
F03C
F03C
3FF0
3FF0
ENDCHAR
STARTCHAR uni2040
ENCODING 8256
SWIDTH 1000 0
DWIDTH 16 0
BBX 14 4 0 10
BITMAP
3FF0
3FF0
F03C
F03C
ENDCHAR
STARTCHAR fraction
ENCODING 8260
SWIDTH 1000 0
DWIDTH 16 0
BBX 14 14 0 0
BITMAP
003C
003C
00F0
00F0
03C0
03C0
0F00
0F00
3C00
3C00
F000
F000
C000
C000
ENDCHAR
STARTCHAR uni2054
ENCODING 8276
SWIDTH 1000 0
DWIDTH 16 0
BBX 14 4 0 -2
BITMAP
3FF0
3FF0
F03C
F03C
ENDCHAR
STARTCHAR uni2074
ENCODING 8308
SWIDTH 1000 0
DWIDTH 16 0
BBX 10 10 2 4
BITMAP
0F00
0F00
3F00
3F00
FF00
FF00
FFC0
FFC0
0F00
0F00
ENDCHAR
STARTCHAR uni2075
ENCODING 8309
SWIDTH 1000 0
DWIDTH 16 0
BBX 8 10 2 4
BITMAP
FF
FF
F0
F0
FC
FC
0F
0F
FC
FC
ENDCHAR
STARTCHAR uni2076
ENCODING 8310
SWIDTH 1000 0
DWIDTH 16 0
BBX 10 10 2 4
BITMAP
3F00
3F00
F000
F000
FF00
FF00
F3C0
F3C0
3F00
3F00
ENDCHAR
STARTCHAR uni2077
ENCODING 8311
SWIDTH 1000 0
DWIDTH 16 0
BBX 10 10 2 4
BITMAP
FFC0
FFC0
03C0
03C0
0F00
0F00
3C00
3C00
3C00
3C00
ENDCHAR
STARTCHAR uni2078
ENCODING 8312
SWIDTH 1000 0
DWIDTH 16 0
BBX 10 10 2 4
BITMAP
3F00
3F00
F3C0
F3C0
3F00
3F00
F3C0
F3C0
3F00
3F00
ENDCHAR
STARTCHAR uni2079
ENCODING 8313
SWIDTH 1000 0
DWIDTH 16 0
BBX 10 10 2 4
BITMAP
3F00
3F00
F3C0
F3C0
3FC0
3FC0
03C0
03C0
3F00
3F00
ENDCHAR
STARTCHAR uni207A
ENCODING 8314
SWIDTH 1000 0
DWIDTH 16 0
BBX 12 10 0 4
BITMAP
0F00
0F00
0F00
0F00
FFF0
FFF0
0F00
0F00
0F00
0F00
ENDCHAR
STARTCHAR uni207B
ENCODING 8315
SWIDTH 1000 0
DWIDTH 16 0
BBX 8 2 2 8
BITMAP
FF
FF
ENDCHAR
STARTCHAR uni207F
ENCODING 8319
SWIDTH 1000 0
DWIDTH 16 0
BBX 10 10 2 4
BITMAP
FF00
FF00
F3C0
F3C0
F3C0
F3C0
F3C0
F3C0
F3C0
F3C0
ENDCHAR
STARTCHAR uni2081
ENCODING 8321
SWIDTH 1000 0
DWIDTH 16 0
BBX 8 10 2 -2
BITMAP
3C
3C
FC
FC
3C
3C
3C
3C
FF
FF
ENDCHAR
STARTCHAR uni2082
ENCODING 8322
SWIDTH 1000 0
DWIDTH 16 0
BBX 8 10 2 -2
BITMAP
FC
FC
0F
0F
3C
3C
F0
F0
FF
FF
ENDCHAR
STARTCHAR uni2083
ENCODING 8323
SWIDTH 1000 0
DWIDTH 16 0
BBX 8 10 2 -2
BITMAP
FC
FC
0F
0F
3C
3C
0F
0F
FC
FC
ENDCHAR
STARTCHAR uni2084
ENCODING 8324
SWIDTH 1000 0
DWIDTH 16 0
BBX 10 10 2 -2
BITMAP
0F00
0F00
3F00
3F00
FF00
FF00
FFC0
FFC0
0F00
0F00
ENDCHAR
STARTCHAR uni2085
ENCODING 8325
SWIDTH 1000 0
DWIDTH 16 0
BBX 8 10 2 -2
BITMAP
FF
FF
F0
F0
FC
FC
0F
0F
FC
FC
ENDCHAR
STARTCHAR uni2086
ENCODING 8326
SWIDTH 1000 0
DWIDTH 16 0
BBX 10 10 2 -2
BITMAP
3F00
3F00
F000
F000
FF00
FF00
F3C0
F3C0
3F00
3F00
ENDCHAR
STARTCHAR uni2087
ENCODING 8327
SWIDTH 1000 0
DWIDTH 16 0
BBX 10 10 2 -2
BITMAP
FFC0
FFC0
03C0
03C0
0F00
0F00
3C00
3C00
3C00
3C00
ENDCHAR
STARTCHAR uni2088
ENCODING 8328
SWIDTH 1000 0
DWIDTH 16 0
BBX 10 10 2 -2
BITMAP
3F00
3F00
F3C0
F3C0
3F00
3F00
F3C0
F3C0
3F00
3F00
ENDCHAR
STARTCHAR uni2089
ENCODING 8329
SWIDTH 1000 0
DWIDTH 16 0
BBX 10 10 2 -2
BITMAP
3F00
3F00
F3C0
F3C0
3FC0
3FC0
03C0
03C0
3F00
3F00
ENDCHAR
STARTCHAR uni208A
ENCODING 8330
SWIDTH 1000 0
DWIDTH 16 0
BBX 12 10 0 -2
BITMAP
0F00
0F00
0F00
0F00
FFF0
FFF0
0F00
0F00
0F00
0F00
ENDCHAR
STARTCHAR uni208B
ENCODING 8331
SWIDTH 1000 0
DWIDTH 16 0
BBX 8 2 2 2
BITMAP
FF
FF
ENDCHAR
STARTCHAR franc
ENCODING 8355
SWIDTH 1000 0
DWIDTH 16 0
BBX 14 16 0 -2
BITMAP
FFFC
FFFC
3C0C
3C0C
3CC0
3CC0
3FC0
3FC0
3CC0
3CC0
3C00
3C00
FF00
FF00
3C00
3C00
ENDCHAR
STARTCHAR lira
ENCODING 8356
SWIDTH 1000 0
DWIDTH 16 0
BBX 14 14 0 0
BITMAP
0FF0
0FF0
3C3C
3C3C
FF0C
FF0C
3C00
3C00
FF00
FF00
3C3C
3C3C
FFF0
FFF0
ENDCHAR
STARTCHAR peseta
ENCODING 8359
SWIDTH 1000 0
DWIDTH 16 0
BBX 16 16 0 -2
BITMAP
FFC0
FFC0
F0F0
F0F0
F0F0
F0F0
FFCC
FFCC
F03C
F03C
F0FF
F0FF
F03C
F03C
F03F
F03F
ENDCHAR
STARTCHAR afii57636
ENCODING 8362
SWIDTH 1000 0
DWIDTH 16 0
BBX 14 12 0 0
BITMAP
FFCC
FFCC
C0CC
C0CC
CCCC
CCCC
CCCC
CCCC
CC0C
CC0C
CFFC
CFFC
ENDCHAR
STARTCHAR Euro
ENCODING 8364
SWIDTH 1000 0
DWIDTH 16 0
BBX 14 14 0 0
BITMAP
0FF0
0FF0
3C0C
3C0C
FFC0
FFC0
3C00
3C00
FFC0
FFC0
3C0C
3C0C
0FF0
0FF0
ENDCHAR
STARTCHAR afii61248
ENCODING 8453
SWIDTH 1000 0
DWIDTH 16 0
BBX 16 16 0 -2
BITMAP
3F0F
3F0F
F03C
F03C
F0F0
F0F0
3FC0
3FC0
0FFC
0FFC
3FCF
3FCF
F3CF
F3CF
00FC
00FC
ENDCHAR
STARTCHAR afii61289
ENCODING 8467
SWIDTH 1000 0
DWIDTH 16 0
BBX 10 14 2 0
BITMAP
0C00
0C00
3F00
3F00
F3C0
F3C0
F3C0
F3C0
3F00
3F00
3CC0
3CC0
CF00
CF00
ENDCHAR
STARTCHAR afii61352
ENCODING 8470
SWIDTH 1000 0
DWIDTH 16 0
BBX 16 14 0 0
BITMAP
F0FF
F0FF
FCF3
FCF3
FFFF
FFFF
F3F0
F3F0
F0FF
F0FF
F0F0
F0F0
F0F0
F0F0
ENDCHAR
STARTCHAR trademark
ENCODING 8482
SWIDTH 1000 0
DWIDTH 16 0
BBX 16 8 0 6
BITMAP
FF03
FF03
33CF
33CF
3333
3333
3303
3303
ENDCHAR
STARTCHAR Omega
ENCODING 8486
SWIDTH 1000 0
DWIDTH 16 0
BBX 14 14 0 0
BITMAP
0FC0
0FC0
3CF0
3CF0
F03C
F03C
F03C
F03C
3CF0
3CF0
3CF0
3CF0
FCFC
FCFC
ENDCHAR
STARTCHAR estimated
ENCODING 8494
SWIDTH 1000 0
DWIDTH 16 0
BBX 12 10 0 0
BITMAP
3FC0
3FC0
F0F0
F0F0
FFF0
FFF0
F000
F000
3FC0
3FC0
ENDCHAR
STARTCHAR uni2150
ENCODING 8528
SWIDTH 1000 0
DWIDTH 16 0
BBX 16 16 0 -2
BITMAP
F00F
F00F
F03C
F03C
F0F0
F0F0
F3C0
F3C0
0FFF
0FFF
3C0F
3C0F
F03C
F03C
003C
003C
ENDCHAR
STARTCHAR uni2151
ENCODING 8529
SWIDTH 1000 0
DWIDTH 16 0
BBX 16 16 0 -2
BITMAP
F00F
F00F
F03C
F03C
F0F0
F0F0
F3FC
F3FC
0FCF
0FCF
3CFF
3CFF
F00F
F00F
00FC
00FC
ENDCHAR
STARTCHAR onethird
ENCODING 8531
SWIDTH 1000 0
DWIDTH 16 0
BBX 16 16 0 -2
BITMAP
F00F
F00F
F03C
F03C
F0F0
F0F0
F3FC
F3FC
0F0F
0F0F
3C3C
3C3C
F00F
F00F
00FC
00FC
ENDCHAR
STARTCHAR twothirds
ENCODING 8532
SWIDTH 1000 0
DWIDTH 16 0
BBX 16 16 0 -2
BITMAP
F00F
F00F
3C3C
3C3C
F0F0
F0F0
FFFC
FFFC
0F0F
0F0F
3C3C
3C3C
F00F
F00F
00FC
00FC
ENDCHAR
STARTCHAR uni2155
ENCODING 8533
SWIDTH 1000 0
DWIDTH 16 0
BBX 16 16 0 -2
BITMAP
F00F
F00F
F03C
F03C
F0F0
F0F0
F3FF
F3FF
0FF0
0FF0
3CFC
3CFC
F00F
F00F
00FC
00FC
ENDCHAR
STARTCHAR uni2156
ENCODING 8534
SWIDTH 1000 0
DWIDTH 16 0
BBX 16 16 0 -2
BITMAP
F00F
F00F
3C3C
3C3C
F0F0
F0F0
FFFF
FFFF
0FF0
0FF0
3CFC
3CFC
F00F
F00F
00FC
00FC
ENDCHAR
STARTCHAR uni2157
ENCODING 8535
SWIDTH 1000 0
DWIDTH 16 0
BBX 16 16 0 -2
BITMAP
FC0F
FC0F
0F3C
0F3C
3CF0
3CF0
0FFF
0FFF
FFF0
FFF0
3CFC
3CFC
F00F
F00F
00FC
00FC
ENDCHAR
STARTCHAR uni2158
ENCODING 8536
SWIDTH 1000 0
DWIDTH 16 0
BBX 16 16 0 -2
BITMAP
0F0F
0F0F
3F3C
3F3C
FFF0
FFF0
0FFF
0FFF
0FF0
0FF0
3CFC
3CFC
F00F
F00F
00FC
00FC
ENDCHAR
STARTCHAR uni2159
ENCODING 8537
SWIDTH 1000 0
DWIDTH 16 0
BBX 16 16 0 -2
BITMAP
F00F
F00F
F03C
F03C
F0F0
F0F0
F3FC
F3FC
0FC0
0FC0
3FFC
3FFC
F3CF
F3CF
00FC
00FC
ENDCHAR
STARTCHAR uni215A
ENCODING 8538
SWIDTH 1000 0
DWIDTH 16 0
BBX 16 16 0 -2
BITMAP
FF0F
FF0F
F03C
F03C
FCF0
FCF0
0FFC
0FFC
FFC0
FFC0
3FFC
3FFC
F3CF
F3CF
00FC
00FC
ENDCHAR
STARTCHAR oneeighth
ENCODING 8539
SWIDTH 1000 0
DWIDTH 16 0
BBX 16 16 0 -2
BITMAP
F00F
F00F
F03C
F03C
F0F0
F0F0
F3FC
F3FC
0FCF
0FCF
3CFC
3CFC
F3CF
F3CF
00FC
00FC
ENDCHAR
STARTCHAR threeeighths
ENCODING 8540
SWIDTH 1000 0
DWIDTH 16 0
BBX 16 16 0 -2
BITMAP
FC0F
FC0F
0F3C
0F3C
3CF0
3CF0
0FFC
0FFC
FFCF
FFCF
3CFC
3CFC
F3CF
F3CF
00FC
00FC
ENDCHAR
STARTCHAR fiveeighths
ENCODING 8541
SWIDTH 1000 0
DWIDTH 16 0
BBX 16 16 0 -2
BITMAP
FF0F
FF0F
F03C
F03C
FCF0
FCF0
0FFC
0FFC
FFCF
FFCF
3CFC
3CFC
F3CF
F3CF
00FC
00FC
ENDCHAR
STARTCHAR seveneighths
ENCODING 8542
SWIDTH 1000 0
DWIDTH 16 0
BBX 16 16 0 -2
BITMAP
FF0F
FF0F
0F3C
0F3C
3CF0
3CF0
F3FC
F3FC
0FCF
0FCF
3CFC
3CFC
F3CF
F3CF
00FC
00FC
ENDCHAR
STARTCHAR arrowleft
ENCODING 8592
SWIDTH 1000 0
DWIDTH 16 0
BBX 14 10 0 2
BITMAP
0F00
0F00
3C00
3C00
FFFC
FFFC
3C00
3C00
0F00
0F00
ENDCHAR
STARTCHAR arrowup
ENCODING 8593
SWIDTH 1000 0
DWIDTH 16 0
BBX 12 14 2 0
BITMAP
0F00
0F00
3FC0
3FC0
FFF0
FFF0
0F00
0F00
0F00
0F00
0F00
0F00
0F00
0F00
ENDCHAR
STARTCHAR arrowright
ENCODING 8594
SWIDTH 1000 0
DWIDTH 16 0
BBX 14 10 0 2
BITMAP
03C0
03C0
00F0
00F0
FFFC
FFFC
00F0
00F0
03C0
03C0
ENDCHAR
STARTCHAR arrowdown
ENCODING 8595
SWIDTH 1000 0
DWIDTH 16 0
BBX 12 14 2 0
BITMAP
0F00
0F00
0F00
0F00
0F00
0F00
0F00
0F00
FFF0
FFF0
3FC0
3FC0
0F00
0F00
ENDCHAR
STARTCHAR arrowboth
ENCODING 8596
SWIDTH 1000 0
DWIDTH 16 0
BBX 16 10 0 2
BITMAP
0C30
0C30
3C3C
3C3C
FFFF
FFFF
3C3C
3C3C
0C30
0C30
ENDCHAR
STARTCHAR arrowupdn
ENCODING 8597
SWIDTH 1000 0
DWIDTH 16 0
BBX 12 16 2 -2
BITMAP
0F00
0F00
3FC0
3FC0
FFF0
FFF0
0F00
0F00
0F00
0F00
FFF0
FFF0
3FC0
3FC0
0F00
0F00
ENDCHAR
STARTCHAR arrowupdnbse
ENCODING 8616
SWIDTH 1000 0
DWIDTH 16 0
BBX 16 16 0 -2
BITMAP
03C0
03C0
0FF0
0FF0
3FFC
3FFC
03C0
03C0
3FFC
3FFC
0FF0
0FF0
03C0
03C0
FFFF
FFFF
ENDCHAR
STARTCHAR partialdiff
ENCODING 8706
SWIDTH 1000 0
DWIDTH 16 0
BBX 12 14 0 0
BITMAP
0FC0
0FC0
3CF0
3CF0
00F0
00F0
3FF0
3FF0
F0F0
F0F0
F0F0
F0F0
3FC0
3FC0
ENDCHAR
STARTCHAR emptyset
ENCODING 8709
SWIDTH 1000 0
DWIDTH 16 0
BBX 16 16 0 -2
BITMAP
003C
003C
00F0
00F0
3FFC
3FFC
F3CF
F3CF
F3CF
F3CF
3FFC
3FFC
0F00
0F00
3C00
3C00
ENDCHAR
STARTCHAR Delta
ENCODING 8710
SWIDTH 1000 0
DWIDTH 16 0
BBX 14 14 0 0
BITMAP
0300
0300
0FC0
0FC0
3CF0
3CF0
F03C
F03C
F03C
F03C
F03C
F03C
FFFC
FFFC
ENDCHAR
STARTCHAR element
ENCODING 8712
SWIDTH 1000 0
DWIDTH 16 0
BBX 10 14 0 0
BITMAP
0FC0
0FC0
3C00
3C00
F000
F000
FFC0
FFC0
F000
F000
3C00
3C00
0FC0
0FC0
ENDCHAR
STARTCHAR product
ENCODING 8719
SWIDTH 1000 0
DWIDTH 16 0
BBX 14 16 0 -2
BITMAP
FFFC
FFFC
F03C
F03C
F03C
F03C
F03C
F03C
F03C
F03C
F03C
F03C
F03C
F03C
F03C
F03C
ENDCHAR
STARTCHAR summation
ENCODING 8721
SWIDTH 1000 0
DWIDTH 16 0
BBX 12 14 0 0
BITMAP
FFF0
FFF0
F0F0
F0F0
3C00
3C00
0F00
0F00
3C00
3C00
F0F0
F0F0
FFF0
FFF0
ENDCHAR
STARTCHAR minus
ENCODING 8722
SWIDTH 1000 0
DWIDTH 16 0
BBX 12 2 0 6
BITMAP
FFF0
FFF0
ENDCHAR
STARTCHAR uni2215
ENCODING 8725
SWIDTH 1000 0
DWIDTH 16 0
BBX 14 14 0 0
BITMAP
003C
003C
00F0
00F0
03C0
03C0
0F00
0F00
3C00
3C00
F000
F000
C000
C000
ENDCHAR
STARTCHAR uni2219
ENCODING 8729
SWIDTH 1000 0
DWIDTH 16 0
BBX 4 4 6 4
BITMAP
F0
F0
F0
F0
ENDCHAR
STARTCHAR radical
ENCODING 8730
SWIDTH 1000 0
DWIDTH 16 0
BBX 16 16 0 -2
BITMAP
00FF
00FF
00F0
00F0
00F0
00F0
00F0
00F0
FCF0
FCF0
3CF0
3CF0
0FF0
0FF0
03F0
03F0
ENDCHAR
STARTCHAR infinity
ENCODING 8734
SWIDTH 1000 0
DWIDTH 16 0
BBX 16 8 0 2
BITMAP
3FFC
3FFC
F3CF
F3CF
F3CF
F3CF
3FFC
3FFC
ENDCHAR
STARTCHAR orthogonal
ENCODING 8735
SWIDTH 1000 0
DWIDTH 16 0
BBX 14 8 0 2
BITMAP
F000
F000
F000
F000
F000
F000
FFFC
FFFC
ENDCHAR
STARTCHAR intersection
ENCODING 8745
SWIDTH 1000 0
DWIDTH 16 0
BBX 12 14 0 0
BITMAP
3FC0
3FC0
F0F0
F0F0
F0F0
F0F0
F0F0
F0F0
F0F0
F0F0
F0F0
F0F0
F0F0
F0F0
ENDCHAR
STARTCHAR integral
ENCODING 8747
SWIDTH 1000 0
DWIDTH 16 0
BBX 16 16 0 -2
BITMAP
00FC
00FC
03CF
03CF
03CF
03CF
03C0
03C0
03C0
03C0
F3C0
F3C0
F3C0
F3C0
3F00
3F00
ENDCHAR
STARTCHAR approxequal
ENCODING 8776
SWIDTH 1000 0
DWIDTH 16 0
BBX 14 10 0 2
BITMAP
3F3C
3F3C
F3F0
F3F0
0000
0000
3F3C
3F3C
F3F0
F3F0
ENDCHAR
STARTCHAR notequal
ENCODING 8800
SWIDTH 1000 0
DWIDTH 16 0
BBX 14 12 0 0
BITMAP
00F0
00F0
FFFC
FFFC
03C0
03C0
0F00
0F00
FFFC
FFFC
3C00
3C00
ENDCHAR
STARTCHAR equivalence
ENCODING 8801
SWIDTH 1000 0
DWIDTH 16 0
BBX 12 10 0 2
BITMAP
FFF0
FFF0
0000
0000
FFF0
FFF0
0000
0000
FFF0
FFF0
ENDCHAR
STARTCHAR lessequal
ENCODING 8804
SWIDTH 1000 0
DWIDTH 16 0
BBX 12 14 0 0
BITMAP
03C0
03C0
0F00
0F00
3C00
3C00
0F00
0F00
03C0
03C0
0000
0000
FFF0
FFF0
ENDCHAR
STARTCHAR greaterequal
ENCODING 8805
SWIDTH 1000 0
DWIDTH 16 0
BBX 12 14 0 0
BITMAP
3C00
3C00
0F00
0F00
03C0
03C0
0F00
0F00
3C00
3C00
0000
0000
FFF0
FFF0
ENDCHAR
STARTCHAR uni2299
ENCODING 8857
SWIDTH 1000 0
DWIDTH 16 0
BBX 14 14 0 0
BITMAP
3FF0
3FF0
F03C
F03C
F03C
F03C
F33C
F33C
F03C
F03C
F03C
F03C
3FF0
3FF0
ENDCHAR
STARTCHAR uni2300
ENCODING 8960
SWIDTH 1000 0
DWIDTH 16 0
BBX 14 14 0 0
BITMAP
3FF0
3FF0
F03C
F03C
F0FC
F0FC
F33C
F33C
FC3C
FC3C
F03C
F03C
3FF0
3FF0
ENDCHAR
STARTCHAR house
ENCODING 8962
SWIDTH 1000 0
DWIDTH 16 0
BBX 14 12 0 0
BITMAP
0300
0300
0FC0
0FC0
3CF0
3CF0
F03C
F03C
F03C
F03C
FFFC
FFFC
ENDCHAR
STARTCHAR revlogicalnot
ENCODING 8976
SWIDTH 1000 0
DWIDTH 16 0
BBX 12 6 0 2
BITMAP
FFF0
FFF0
F000
F000
F000
F000
ENDCHAR
STARTCHAR integraltp
ENCODING 8992
SWIDTH 1000 0
DWIDTH 16 0
BBX 10 16 6 -2
BITMAP
3F00
3F00
F3C0
F3C0
F3C0
F3C0
F000
F000
F000
F000
F000
F000
F000
F000
F000
F000
ENDCHAR
STARTCHAR integralbt
ENCODING 8993
SWIDTH 1000 0
DWIDTH 16 0
BBX 10 16 0 -2
BITMAP
03C0
03C0
03C0
03C0
03C0
03C0
03C0
03C0
03C0
03C0
F3C0
F3C0
F3C0
F3C0
3F00
3F00
ENDCHAR
STARTCHAR SF100000
ENCODING 9472
SWIDTH 1000 0
DWIDTH 16 0
BBX 16 2 0 4
BITMAP
FFFF
FFFF
ENDCHAR
STARTCHAR SF110000
ENCODING 9474
SWIDTH 1000 0
DWIDTH 16 0
BBX 4 16 6 -2
BITMAP
F0
F0
F0
F0
F0
F0
F0
F0
F0
F0
F0
F0
F0
F0
F0
F0
ENDCHAR
STARTCHAR SF010000
ENCODING 9484
SWIDTH 1000 0
DWIDTH 16 0
BBX 10 8 6 -2
BITMAP
FFC0
FFC0
F000
F000
F000
F000
F000
F000
ENDCHAR
STARTCHAR SF030000
ENCODING 9488
SWIDTH 1000 0
DWIDTH 16 0
BBX 10 8 0 -2
BITMAP
FFC0
FFC0
03C0
03C0
03C0
03C0
03C0
03C0
ENDCHAR
STARTCHAR SF020000
ENCODING 9492
SWIDTH 1000 0
DWIDTH 16 0
BBX 10 10 6 4
BITMAP
F000
F000
F000
F000
F000
F000
F000
F000
FFC0
FFC0
ENDCHAR
STARTCHAR SF040000
ENCODING 9496
SWIDTH 1000 0
DWIDTH 16 0
BBX 10 10 0 4
BITMAP
03C0
03C0
03C0
03C0
03C0
03C0
03C0
03C0
FFC0
FFC0
ENDCHAR
STARTCHAR SF080000
ENCODING 9500
SWIDTH 1000 0
DWIDTH 16 0
BBX 10 16 6 -2
BITMAP
F000
F000
F000
F000
F000
F000
F000
F000
FFC0
FFC0
F000
F000
F000
F000
F000
F000
ENDCHAR
STARTCHAR SF090000
ENCODING 9508
SWIDTH 1000 0
DWIDTH 16 0
BBX 10 16 0 -2
BITMAP
03C0
03C0
03C0
03C0
03C0
03C0
03C0
03C0
FFC0
FFC0
03C0
03C0
03C0
03C0
03C0
03C0
ENDCHAR
STARTCHAR SF060000
ENCODING 9516
SWIDTH 1000 0
DWIDTH 16 0
BBX 16 8 0 -2
BITMAP
FFFF
FFFF
03C0
03C0
03C0
03C0
03C0
03C0
ENDCHAR
STARTCHAR SF070000
ENCODING 9524
SWIDTH 1000 0
DWIDTH 16 0
BBX 16 10 0 4
BITMAP
03C0
03C0
03C0
03C0
03C0
03C0
03C0
03C0
FFFF
FFFF
ENDCHAR
STARTCHAR SF050000
ENCODING 9532
SWIDTH 1000 0
DWIDTH 16 0
BBX 16 16 0 -2
BITMAP
03C0
03C0
03C0
03C0
03C0
03C0
03C0
03C0
FFFF
FFFF
03C0
03C0
03C0
03C0
03C0
03C0
ENDCHAR
STARTCHAR SF430000
ENCODING 9552
SWIDTH 1000 0
DWIDTH 16 0
BBX 16 6 0 4
BITMAP
FFFF
FFFF
0000
0000
FFFF
FFFF
ENDCHAR
STARTCHAR SF240000
ENCODING 9553
SWIDTH 1000 0
DWIDTH 16 0
BBX 10 16 4 -2
BITMAP
F3C0
F3C0
F3C0
F3C0
F3C0
F3C0
F3C0
F3C0
F3C0
F3C0
F3C0
F3C0
F3C0
F3C0
F3C0
F3C0
ENDCHAR
STARTCHAR SF510000
ENCODING 9554
SWIDTH 1000 0
DWIDTH 16 0
BBX 10 12 6 -2
BITMAP
FFC0
FFC0
F000
F000
FFC0
FFC0
F000
F000
F000
F000
F000
F000
ENDCHAR
STARTCHAR SF520000
ENCODING 9555
SWIDTH 1000 0
DWIDTH 16 0
BBX 12 8 4 -2
BITMAP
FFF0
FFF0
F3C0
F3C0
F3C0
F3C0
F3C0
F3C0
ENDCHAR
STARTCHAR SF390000
ENCODING 9556
SWIDTH 1000 0
DWIDTH 16 0
BBX 12 12 4 -2
BITMAP
FFF0
FFF0
F000
F000
F3F0
F3F0
F3C0
F3C0
F3C0
F3C0
F3C0
F3C0
ENDCHAR
STARTCHAR SF220000
ENCODING 9557
SWIDTH 1000 0
DWIDTH 16 0
BBX 10 12 0 -2
BITMAP
FFC0
FFC0
03C0
03C0
FFC0
FFC0
03C0
03C0
03C0
03C0
03C0
03C0
ENDCHAR
STARTCHAR SF210000
ENCODING 9558
SWIDTH 1000 0
DWIDTH 16 0
BBX 14 8 0 -2
BITMAP
FFFC
FFFC
0F3C
0F3C
0F3C
0F3C
0F3C
0F3C
ENDCHAR
STARTCHAR SF250000
ENCODING 9559
SWIDTH 1000 0
DWIDTH 16 0
BBX 14 12 0 -2
BITMAP
FFFC
FFFC
003C
003C
FF3C
FF3C
0F3C
0F3C
0F3C
0F3C
0F3C
0F3C
ENDCHAR
STARTCHAR SF500000
ENCODING 9560
SWIDTH 1000 0
DWIDTH 16 0
BBX 10 10 6 4
BITMAP
F000
F000
F000
F000
FFC0
FFC0
F000
F000
FFC0
FFC0
ENDCHAR
STARTCHAR SF490000
ENCODING 9561
SWIDTH 1000 0
DWIDTH 16 0
BBX 12 10 4 4
BITMAP
F3C0
F3C0
F3C0
F3C0
F3C0
F3C0
F3C0
F3C0
FFF0
FFF0
ENDCHAR
STARTCHAR SF380000
ENCODING 9562
SWIDTH 1000 0
DWIDTH 16 0
BBX 12 10 4 4
BITMAP
F3C0
F3C0
F3C0
F3C0
F3F0
F3F0
F000
F000
FFF0
FFF0
ENDCHAR
STARTCHAR SF280000
ENCODING 9563
SWIDTH 1000 0
DWIDTH 16 0
BBX 10 10 0 4
BITMAP
03C0
03C0
03C0
03C0
FFC0
FFC0
03C0
03C0
FFC0
FFC0
ENDCHAR
STARTCHAR SF270000
ENCODING 9564
SWIDTH 1000 0
DWIDTH 16 0
BBX 14 10 0 4
BITMAP
0F3C
0F3C
0F3C
0F3C
0F3C
0F3C
0F3C
0F3C
FFFC
FFFC
ENDCHAR
STARTCHAR SF260000
ENCODING 9565
SWIDTH 1000 0
DWIDTH 16 0
BBX 14 10 0 4
BITMAP
0F3C
0F3C
0F3C
0F3C
FF3C
FF3C
003C
003C
FFFC
FFFC
ENDCHAR
STARTCHAR SF360000
ENCODING 9566
SWIDTH 1000 0
DWIDTH 16 0
BBX 10 16 6 -2
BITMAP
F000
F000
F000
F000
FFC0
FFC0
F000
F000
FFC0
FFC0
F000
F000
F000
F000
F000
F000
ENDCHAR
STARTCHAR SF370000
ENCODING 9567
SWIDTH 1000 0
DWIDTH 16 0
BBX 12 16 4 -2
BITMAP
F3C0
F3C0
F3C0
F3C0
F3C0
F3C0
F3C0
F3C0
F3F0
F3F0
F3C0
F3C0
F3C0
F3C0
F3C0
F3C0
ENDCHAR
STARTCHAR SF420000
ENCODING 9568
SWIDTH 1000 0
DWIDTH 16 0
BBX 12 16 4 -2
BITMAP
F3C0
F3C0
F3C0
F3C0
F3F0
F3F0
F000
F000
F3F0
F3F0
F3C0
F3C0
F3C0
F3C0
F3C0
F3C0
ENDCHAR
STARTCHAR SF190000
ENCODING 9569
SWIDTH 1000 0
DWIDTH 16 0
BBX 10 16 0 -2
BITMAP
03C0
03C0
03C0
03C0
FFC0
FFC0
03C0
03C0
FFC0
FFC0
03C0
03C0
03C0
03C0
03C0
03C0
ENDCHAR
STARTCHAR SF200000
ENCODING 9570
SWIDTH 1000 0
DWIDTH 16 0
BBX 14 16 0 -2
BITMAP
0F3C
0F3C
0F3C
0F3C
0F3C
0F3C
0F3C
0F3C
FF3C
FF3C
0F3C
0F3C
0F3C
0F3C
0F3C
0F3C
ENDCHAR
STARTCHAR SF230000
ENCODING 9571
SWIDTH 1000 0
DWIDTH 16 0
BBX 14 16 0 -2
BITMAP
0F3C
0F3C
0F3C
0F3C
FF3C
FF3C
003C
003C
FF3C
FF3C
0F3C
0F3C
0F3C
0F3C
0F3C
0F3C
ENDCHAR
STARTCHAR SF470000
ENCODING 9572
SWIDTH 1000 0
DWIDTH 16 0
BBX 16 12 0 -2
BITMAP
FFFF
FFFF
0000
0000
FFFF
FFFF
03C0
03C0
03C0
03C0
03C0
03C0
ENDCHAR
STARTCHAR SF480000
ENCODING 9573
SWIDTH 1000 0
DWIDTH 16 0
BBX 16 8 0 -2
BITMAP
FFFF
FFFF
0F3C
0F3C
0F3C
0F3C
0F3C
0F3C
ENDCHAR
STARTCHAR SF410000
ENCODING 9574
SWIDTH 1000 0
DWIDTH 16 0
BBX 16 12 0 -2
BITMAP
FFFF
FFFF
0000
0000
FF3F
FF3F
0F3C
0F3C
0F3C
0F3C
0F3C
0F3C
ENDCHAR
STARTCHAR SF450000
ENCODING 9575
SWIDTH 1000 0
DWIDTH 16 0
BBX 16 10 0 4
BITMAP
03C0
03C0
03C0
03C0
FFFF
FFFF
0000
0000
FFFF
FFFF
ENDCHAR
STARTCHAR SF460000
ENCODING 9576
SWIDTH 1000 0
DWIDTH 16 0
BBX 16 10 0 4
BITMAP
0F3C
0F3C
0F3C
0F3C
0F3C
0F3C
0F3C
0F3C
FFFF
FFFF
ENDCHAR
STARTCHAR SF400000
ENCODING 9577
SWIDTH 1000 0
DWIDTH 16 0
BBX 16 10 0 4
BITMAP
0F3C
0F3C
0F3C
0F3C
FF3F
FF3F
0000
0000
FFFF
FFFF
ENDCHAR
STARTCHAR SF540000
ENCODING 9578
SWIDTH 1000 0
DWIDTH 16 0
BBX 16 16 0 -2
BITMAP
03C0
03C0
03C0
03C0
FFFF
FFFF
03C0
03C0
FFFF
FFFF
03C0
03C0
03C0
03C0
03C0
03C0
ENDCHAR
STARTCHAR SF530000
ENCODING 9579
SWIDTH 1000 0
DWIDTH 16 0
BBX 16 16 0 -2
BITMAP
0F3C
0F3C
0F3C
0F3C
0F3C
0F3C
0F3C
0F3C
FFFF
FFFF
0F3C
0F3C
0F3C
0F3C
0F3C
0F3C
ENDCHAR
STARTCHAR SF440000
ENCODING 9580
SWIDTH 1000 0
DWIDTH 16 0
BBX 16 16 0 -2
BITMAP
0F3C
0F3C
0F3C
0F3C
FF3F
FF3F
0000
0000
FF3F
FF3F
0F3C
0F3C
0F3C
0F3C
0F3C
0F3C
ENDCHAR
STARTCHAR upblock
ENCODING 9600
SWIDTH 1000 0
DWIDTH 16 0
BBX 16 8 0 6
BITMAP
FFFF
FFFF
FFFF
FFFF
FFFF
FFFF
FFFF
FFFF
ENDCHAR
STARTCHAR uni2581
ENCODING 9601
SWIDTH 1000 0
DWIDTH 16 0
BBX 16 4 0 -2
BITMAP
FFFF
FFFF
FFFF
FFFF
ENDCHAR
STARTCHAR dnblock
ENCODING 9604
SWIDTH 1000 0
DWIDTH 16 0
BBX 16 8 0 -2
BITMAP
FFFF
FFFF
FFFF
FFFF
FFFF
FFFF
FFFF
FFFF
ENDCHAR
STARTCHAR block
ENCODING 9608
SWIDTH 1000 0
DWIDTH 16 0
BBX 16 16 0 -2
BITMAP
FFFF
FFFF
FFFF
FFFF
FFFF
FFFF
FFFF
FFFF
FFFF
FFFF
FFFF
FFFF
FFFF
FFFF
FFFF
FFFF
ENDCHAR
STARTCHAR lfblock
ENCODING 9612
SWIDTH 1000 0
DWIDTH 16 0
BBX 8 16 0 -2
BITMAP
FF
FF
FF
FF
FF
FF
FF
FF
FF
FF
FF
FF
FF
FF
FF
FF
ENDCHAR
STARTCHAR rtblock
ENCODING 9616
SWIDTH 1000 0
DWIDTH 16 0
BBX 8 16 8 -2
BITMAP
FF
FF
FF
FF
FF
FF
FF
FF
FF
FF
FF
FF
FF
FF
FF
FF
ENDCHAR
STARTCHAR ltshade
ENCODING 9617
SWIDTH 1000 0
DWIDTH 16 0
BBX 14 16 0 -2
BITMAP
0C0C
0C0C
C0C0
C0C0
0C0C
0C0C
C0C0
C0C0
0C0C
0C0C
C0C0
C0C0
0C0C
0C0C
C0C0
C0C0
ENDCHAR
STARTCHAR shade
ENCODING 9618
SWIDTH 1000 0
DWIDTH 16 0
BBX 16 16 0 -2
BITMAP
3333
3333
CCCC
CCCC
3333
3333
CCCC
CCCC
3333
3333
CCCC
CCCC
3333
3333
CCCC
CCCC
ENDCHAR
STARTCHAR dkshade
ENCODING 9619
SWIDTH 1000 0
DWIDTH 16 0
BBX 16 16 0 -2
BITMAP
F3CF
F3CF
3F3F
3F3F
F3CF
F3CF
FCFC
FCFC
F3CF
F3CF
3F3F
3F3F
F3CF
F3CF
FCFC
FCFC
ENDCHAR
STARTCHAR filledbox
ENCODING 9632
SWIDTH 1000 0
DWIDTH 16 0
BBX 8 8 4 2
BITMAP
FF
FF
FF
FF
FF
FF
FF
FF
ENDCHAR
STARTCHAR H22073
ENCODING 9633
SWIDTH 1000 0
DWIDTH 16 0
BBX 10 8 2 2
BITMAP
FFC0
FFC0
F3C0
F3C0
F3C0
F3C0
FFC0
FFC0
ENDCHAR
STARTCHAR H18543
ENCODING 9642
SWIDTH 1000 0
DWIDTH 16 0
BBX 8 6 4 2
BITMAP
FF
FF
FF
FF
FF
FF
ENDCHAR
STARTCHAR H18551
ENCODING 9643
SWIDTH 1000 0
DWIDTH 16 0
BBX 10 6 2 2
BITMAP
FFC0
FFC0
F3C0
F3C0
FFC0
FFC0
ENDCHAR
STARTCHAR filledrect
ENCODING 9644
SWIDTH 1000 0
DWIDTH 16 0
BBX 12 6 2 0
BITMAP
FFF0
FFF0
FFF0
FFF0
FFF0
FFF0
ENDCHAR
STARTCHAR triagup
ENCODING 9650
SWIDTH 1000 0
DWIDTH 16 0
BBX 16 10 0 2
BITMAP
03C0
03C0
0FF0
0FF0
3FFC
3FFC
FFFF
FFFF
FFFF
FFFF
ENDCHAR
STARTCHAR triagrt
ENCODING 9658
SWIDTH 1000 0
DWIDTH 16 0
BBX 14 14 0 0
BITMAP
C000
C000
FC00
FC00
FFC0
FFC0
FFFC
FFFC
FFC0
FFC0
FC00
FC00
C000
C000
ENDCHAR
STARTCHAR triagdn
ENCODING 9660
SWIDTH 1000 0
DWIDTH 16 0
BBX 16 10 0 2
BITMAP
FFFF
FFFF
FFFF
FFFF
3FFC
3FFC
0FF0
0FF0
03C0
03C0
ENDCHAR
STARTCHAR triaglf
ENCODING 9668
SWIDTH 1000 0
DWIDTH 16 0
BBX 14 14 0 0
BITMAP
000C
000C
00FC
00FC
0FFC
0FFC
FFFC
FFFC
0FFC
0FFC
00FC
00FC
000C
000C
ENDCHAR
STARTCHAR lozenge
ENCODING 9674
SWIDTH 1000 0
DWIDTH 16 0
BBX 14 14 0 0
BITMAP
0300
0300
0FC0
0FC0
3CF0
3CF0
F03C
F03C
3CF0
3CF0
0FC0
0FC0
0300
0300
ENDCHAR
STARTCHAR circle
ENCODING 9675
SWIDTH 1000 0
DWIDTH 16 0
BBX 12 12 2 0
BITMAP
3FC0
3FC0
F0F0
F0F0
C030
C030
C030
C030
F0F0
F0F0
3FC0
3FC0
ENDCHAR
STARTCHAR H18533
ENCODING 9679
SWIDTH 1000 0
DWIDTH 16 0
BBX 12 12 2 0
BITMAP
3FC0
3FC0
FFF0
FFF0
FFF0
FFF0
FFF0
FFF0
FFF0
FFF0
3FC0
3FC0
ENDCHAR
STARTCHAR invbullet
ENCODING 9688
SWIDTH 1000 0
DWIDTH 16 0
BBX 16 16 0 -2
BITMAP
FFFF
FFFF
FFFF
FFFF
FC3F
FC3F
F00F
F00F
F00F
F00F
FC3F
FC3F
FFFF
FFFF
FFFF
FFFF
ENDCHAR
STARTCHAR invcircle
ENCODING 9689
SWIDTH 1000 0
DWIDTH 16 0
BBX 16 16 0 -2
BITMAP
FFFF
FFFF
F00F
F00F
C3C3
C3C3
CFF3
CFF3
CFF3
CFF3
C3C3
C3C3
F00F
F00F
FFFF
FFFF
ENDCHAR
STARTCHAR openbullet
ENCODING 9702
SWIDTH 1000 0
DWIDTH 16 0
BBX 10 8 2 2
BITMAP
3F00
3F00
F3C0
F3C0
F3C0
F3C0
3F00
3F00
ENDCHAR
STARTCHAR smileface
ENCODING 9786
SWIDTH 1000 0
DWIDTH 16 0
BBX 16 16 0 -2
BITMAP
3FFC
3FFC
C003
C003
CC33
CC33
C003
C003
CFF3
CFF3
C3C3
C3C3
C003
C003
3FFC
3FFC
ENDCHAR
STARTCHAR invsmileface
ENCODING 9787
SWIDTH 1000 0
DWIDTH 16 0
BBX 16 16 0 -2
BITMAP
3FFC
3FFC
FFFF
FFFF
F3CF
F3CF
FFFF
FFFF
F00F
F00F
FC3F
FC3F
FFFF
FFFF
3FFC
3FFC
ENDCHAR
STARTCHAR sun
ENCODING 9788
SWIDTH 1000 0
DWIDTH 16 0
BBX 16 16 0 -2
BITMAP
C3C3
C3C3
33CC
33CC
0FF0
0FF0
FC3F
FC3F
FC3F
FC3F
0FF0
0FF0
33CC
33CC
C3C3
C3C3
ENDCHAR
STARTCHAR female
ENCODING 9792
SWIDTH 1000 0
DWIDTH 16 0
BBX 12 16 2 -2
BITMAP
3FC0
3FC0
F0F0
F0F0
F0F0
F0F0
F0F0
F0F0
3FC0
3FC0
0F00
0F00
FFF0
FFF0
0F00
0F00
ENDCHAR
STARTCHAR male
ENCODING 9794
SWIDTH 1000 0
DWIDTH 16 0
BBX 16 16 0 -2
BITMAP
00FF
00FF
003F
003F
00FF
00FF
3FF3
3FF3
F0F0
F0F0
F0F0
F0F0
F0F0
F0F0
3FC0
3FC0
ENDCHAR
STARTCHAR spade
ENCODING 9824
SWIDTH 1000 0
DWIDTH 16 0
BBX 14 16 0 -2
BITMAP
0300
0300
0300
0300
0FC0
0FC0
3FF0
3FF0
FFFC
FFFC
3FF0
3FF0
0FC0
0FC0
3FF0
3FF0
ENDCHAR
STARTCHAR club
ENCODING 9827
SWIDTH 1000 0
DWIDTH 16 0
BBX 14 16 0 -2
BITMAP
0FC0
0FC0
3FF0
3FF0
0FC0
0FC0
FFFC
FFFC
FFFC
FFFC
3FF0
3FF0
0FC0
0FC0
3FF0
3FF0
ENDCHAR
STARTCHAR heart
ENCODING 9829
SWIDTH 1000 0
DWIDTH 16 0
BBX 14 14 0 0
BITMAP
3CF0
3CF0
FFFC
FFFC
FFFC
FFFC
FFFC
FFFC
3FF0
3FF0
0FC0
0FC0
0300
0300
ENDCHAR
STARTCHAR diamond
ENCODING 9830
SWIDTH 1000 0
DWIDTH 16 0
BBX 14 14 0 0
BITMAP
0300
0300
0FC0
0FC0
3FF0
3FF0
FFFC
FFFC
3FF0
3FF0
0FC0
0FC0
0300
0300
ENDCHAR
STARTCHAR musicalnote
ENCODING 9834
SWIDTH 1000 0
DWIDTH 16 0
BBX 16 16 0 -2
BITMAP
0FFF
0FFF
0F0F
0F0F
0FFF
0FFF
0F00
0F00
0F00
0F00
3F00
3F00
FF00
FF00
FC00
FC00
ENDCHAR
STARTCHAR musicalnotedbl
ENCODING 9835
SWIDTH 1000 0
DWIDTH 16 0
BBX 16 16 0 -2
BITMAP
3FFF
3FFF
3C0F
3C0F
3FFF
3FFF
3C0F
3C0F
3C0F
3C0F
3C3F
3C3F
FC3C
FC3C
F000
F000
ENDCHAR
STARTCHAR uni2713
ENCODING 10003
SWIDTH 1000 0
DWIDTH 16 0
BBX 16 16 0 -2
BITMAP
000F
000F
000F
000F
003C
003C
003C
003C
F03C
F03C
3CF0
3CF0
0FF0
0FF0
03C0
03C0
ENDCHAR
STARTCHAR uniFB01
ENCODING 64257
SWIDTH 1000 0
DWIDTH 16 0
BBX 16 14 0 0
BITMAP
0FFC
0FFC
3CFC
3CFC
3C00
3C00
FFFC
FFFC
3C3C
3C3C
3C3C
3C3C
FF3F
FF3F
ENDCHAR
STARTCHAR uniFB02
ENCODING 64258
SWIDTH 1000 0
DWIDTH 16 0
BBX 16 14 0 0
BITMAP
0FFC
0FFC
3C3C
3C3C
3C3C
3C3C
FF3C
FF3C
3C3C
3C3C
3C3C
3C3C
FF3F
FF3F
ENDCHAR
STARTCHAR uniFFFD
ENCODING 65533
SWIDTH 1000 0
DWIDTH 16 0
BBX 16 16 0 -2
BITMAP
F00F
F00F
C3C3
C3C3
FFC3
FFC3
FF0F
FF0F
FC3F
FC3F
FFFF
FFFF
FC3F
FC3F
FFFF
FFFF
ENDCHAR
STARTCHAR .notdef
ENCODING 65535
SWIDTH 1000 0
DWIDTH 16 0
BBX 16 16 0 -2
BITMAP
F00F
F00F
C3C3
C3C3
FFC3
FFC3
FF0F
FF0F
FC3F
FC3F
FFFF
FFFF
FC3F
FC3F
FFFF
FFFF
ENDCHAR
ENDFONT
